<svg width="44" height="44" viewBox="0 0 44 44" fill="none" xmlns="http://www.w3.org/2000/svg">
<path fill-rule="evenodd" clip-rule="evenodd" d="M17.114 15.2552L17.114 13.9367C17.114 11.2102 19.3015 9 22 9C24.6985 9 26.8861 11.2102 26.8861 13.9367V15.2532L26.8861 15.2552C30.3836 15.2711 32.2419 15.414 33.2843 16.6987C34.4571 18.1442 34.0245 20.3298 33.1592 24.701L32.3775 28.6503C31.7758 31.6899 31.475 33.2097 30.3943 34.1048C29.3136 35 27.7796 35 24.7116 35H19.2884C16.2204 35 14.6864 35 13.6057 34.1048C12.525 33.2097 12.2242 31.6899 11.6225 28.6503L10.8408 24.701C9.9755 20.3298 9.54287 18.1442 10.7157 16.6987C11.7581 15.414 13.6164 15.2711 17.114 15.2552ZM19.0684 13.9367C19.0684 12.3008 20.3809 10.9747 22 10.9747C23.6191 10.9747 24.9316 12.3008 24.9316 13.9367V15.2532H19.0684V13.9367ZM25.9088 20.519C26.6284 20.519 27.2118 19.9296 27.2118 19.2025C27.2118 18.4755 26.6284 17.8861 25.9088 17.8861C25.1892 17.8861 24.6059 18.4755 24.6059 19.2025C24.6059 19.9296 25.1892 20.519 25.9088 20.519ZM19.3941 19.2025C19.3941 19.9296 18.8108 20.519 18.0912 20.519C17.3716 20.519 16.7882 19.9296 16.7882 19.2025C16.7882 18.4755 17.3716 17.8861 18.0912 17.8861C18.8108 17.8861 19.3941 18.4755 19.3941 19.2025Z" fill="black"/>
<rect x="0.5" y="0.5" width="43" height="43" stroke="black"/>
</svg>
