<svg width="162" height="47" viewBox="0 0 162 47" fill="none" xmlns="http://www.w3.org/2000/svg">
<path d="M21.3997 17.38H22.8247L26.0947 26.11H26.1247L29.4997 17.38H30.8347L26.6797 28H25.4647L21.3997 17.38ZM30.5893 24.49C30.5893 23.94 30.6843 23.44 30.8743 22.99C31.0643 22.54 31.3243 22.155 31.6543 21.835C31.9843 21.505 32.3793 21.25 32.8393 21.07C33.2993 20.89 33.7993 20.8 34.3393 20.8C34.8793 20.8 35.3793 20.89 35.8393 21.07C36.2993 21.25 36.6943 21.505 37.0243 21.835C37.3543 22.155 37.6143 22.54 37.8043 22.99C37.9943 23.44 38.0893 23.94 38.0893 24.49C38.0893 25.04 37.9943 25.54 37.8043 25.99C37.6143 26.44 37.3543 26.83 37.0243 27.16C36.6943 27.48 36.2993 27.73 35.8393 27.91C35.3793 28.09 34.8793 28.18 34.3393 28.18C33.7993 28.18 33.2993 28.09 32.8393 27.91C32.3793 27.73 31.9843 27.48 31.6543 27.16C31.3243 26.83 31.0643 26.44 30.8743 25.99C30.6843 25.54 30.5893 25.04 30.5893 24.49ZM31.8493 24.49C31.8493 24.86 31.9043 25.205 32.0143 25.525C32.1343 25.835 32.3043 26.11 32.5243 26.35C32.7443 26.58 33.0043 26.765 33.3043 26.905C33.6143 27.035 33.9593 27.1 34.3393 27.1C34.7193 27.1 35.0593 27.035 35.3593 26.905C35.6693 26.765 35.9343 26.58 36.1543 26.35C36.3743 26.11 36.5393 25.835 36.6493 25.525C36.7693 25.205 36.8293 24.86 36.8293 24.49C36.8293 24.12 36.7693 23.78 36.6493 23.47C36.5393 23.15 36.3743 22.875 36.1543 22.645C35.9343 22.405 35.6693 22.22 35.3593 22.09C35.0593 21.95 34.7193 21.88 34.3393 21.88C33.9593 21.88 33.6143 21.95 33.3043 22.09C33.0043 22.22 32.7443 22.405 32.5243 22.645C32.3043 22.875 32.1343 23.15 32.0143 23.47C31.9043 23.78 31.8493 24.12 31.8493 24.49ZM40.0055 20.98H41.1755V28H40.0055V20.98ZM39.7355 18.235C39.7355 18.005 39.8155 17.805 39.9755 17.635C40.1455 17.465 40.3505 17.38 40.5905 17.38C40.8305 17.38 41.0305 17.465 41.1905 17.635C41.3605 17.805 41.4455 18.005 41.4455 18.235C41.4455 18.485 41.3655 18.69 41.2055 18.85C41.0455 19.01 40.8405 19.09 40.5905 19.09C40.3405 19.09 40.1355 19.01 39.9755 18.85C39.8155 18.69 39.7355 18.485 39.7355 18.235ZM43.504 22.645C43.504 22.325 43.494 22.025 43.474 21.745C43.454 21.465 43.444 21.21 43.444 20.98H44.554C44.554 21.17 44.559 21.36 44.569 21.55C44.579 21.74 44.584 21.935 44.584 22.135H44.614C44.694 21.965 44.804 21.8 44.944 21.64C45.094 21.48 45.269 21.34 45.469 21.22C45.669 21.09 45.894 20.99 46.144 20.92C46.394 20.84 46.664 20.8 46.954 20.8C47.034 20.8 47.114 20.805 47.194 20.815C47.274 20.825 47.354 20.845 47.434 20.875L47.359 22.06C47.159 22 46.949 21.97 46.729 21.97C46.009 21.97 45.484 22.205 45.154 22.675C44.834 23.135 44.674 23.77 44.674 24.58V28H43.504V22.645ZM56.7923 21.97H54.7223V25.48C54.7223 25.71 54.7273 25.925 54.7373 26.125C54.7473 26.315 54.7873 26.485 54.8573 26.635C54.9273 26.775 55.0323 26.89 55.1723 26.98C55.3123 27.06 55.5123 27.1 55.7723 27.1C55.9423 27.1 56.1173 27.08 56.2973 27.04C56.4773 27 56.6473 26.94 56.8073 26.86L56.8523 27.925C56.6523 28.015 56.4273 28.08 56.1773 28.12C55.9373 28.16 55.7073 28.18 55.4873 28.18C55.0673 28.18 54.7323 28.125 54.4823 28.015C54.2323 27.905 54.0373 27.75 53.8973 27.55C53.7573 27.35 53.6623 27.105 53.6123 26.815C53.5723 26.515 53.5523 26.185 53.5523 25.825V21.97H52.0223V20.98H53.5523V18.985H54.7223V20.98H56.7923V21.97ZM57.8207 24.49C57.8207 23.94 57.9157 23.44 58.1057 22.99C58.2957 22.54 58.5557 22.155 58.8857 21.835C59.2157 21.505 59.6107 21.25 60.0707 21.07C60.5307 20.89 61.0307 20.8 61.5707 20.8C62.1107 20.8 62.6107 20.89 63.0707 21.07C63.5307 21.25 63.9257 21.505 64.2557 21.835C64.5857 22.155 64.8457 22.54 65.0357 22.99C65.2257 23.44 65.3207 23.94 65.3207 24.49C65.3207 25.04 65.2257 25.54 65.0357 25.99C64.8457 26.44 64.5857 26.83 64.2557 27.16C63.9257 27.48 63.5307 27.73 63.0707 27.91C62.6107 28.09 62.1107 28.18 61.5707 28.18C61.0307 28.18 60.5307 28.09 60.0707 27.91C59.6107 27.73 59.2157 27.48 58.8857 27.16C58.5557 26.83 58.2957 26.44 58.1057 25.99C57.9157 25.54 57.8207 25.04 57.8207 24.49ZM59.0807 24.49C59.0807 24.86 59.1357 25.205 59.2457 25.525C59.3657 25.835 59.5357 26.11 59.7557 26.35C59.9757 26.58 60.2357 26.765 60.5357 26.905C60.8457 27.035 61.1907 27.1 61.5707 27.1C61.9507 27.1 62.2907 27.035 62.5907 26.905C62.9007 26.765 63.1657 26.58 63.3857 26.35C63.6057 26.11 63.7707 25.835 63.8807 25.525C64.0007 25.205 64.0607 24.86 64.0607 24.49C64.0607 24.12 64.0007 23.78 63.8807 23.47C63.7707 23.15 63.6057 22.875 63.3857 22.645C63.1657 22.405 62.9007 22.22 62.5907 22.09C62.2907 21.95 61.9507 21.88 61.5707 21.88C61.1907 21.88 60.8457 21.95 60.5357 22.09C60.2357 22.22 59.9757 22.405 59.7557 22.645C59.5357 22.875 59.3657 23.15 59.2457 23.47C59.1357 23.78 59.0807 24.12 59.0807 24.49ZM73.252 26.335C73.252 26.655 73.262 26.955 73.282 27.235C73.302 27.515 73.312 27.77 73.312 28H72.202C72.202 27.81 72.197 27.62 72.187 27.43C72.177 27.24 72.172 27.045 72.172 26.845H72.142C72.062 27.015 71.947 27.18 71.797 27.34C71.657 27.5 71.487 27.645 71.287 27.775C71.087 27.895 70.862 27.99 70.612 28.06C70.362 28.14 70.092 28.18 69.802 28.18C69.342 28.18 68.942 28.11 68.602 27.97C68.272 27.83 67.997 27.635 67.777 27.385C67.557 27.135 67.392 26.835 67.282 26.485C67.182 26.125 67.132 25.735 67.132 25.315V20.98H68.302V25.195C68.302 25.785 68.432 26.25 68.692 26.59C68.952 26.93 69.357 27.1 69.907 27.1C70.287 27.1 70.612 27.035 70.882 26.905C71.162 26.775 71.387 26.59 71.557 26.35C71.737 26.11 71.867 25.825 71.947 25.495C72.037 25.165 72.082 24.8 72.082 24.4V20.98H73.252V26.335ZM75.6169 26.155C75.8469 26.445 76.0969 26.675 76.3669 26.845C76.6469 27.015 76.9969 27.1 77.4169 27.1C77.5969 27.1 77.7769 27.08 77.9569 27.04C78.1469 27 78.3169 26.935 78.4669 26.845C78.6169 26.755 78.7369 26.645 78.8269 26.515C78.9169 26.375 78.9619 26.21 78.9619 26.02C78.9619 25.83 78.9169 25.675 78.8269 25.555C78.7469 25.435 78.6369 25.335 78.4969 25.255C78.3569 25.165 78.1969 25.095 78.0169 25.045C77.8369 24.995 77.6519 24.95 77.4619 24.91C77.1319 24.84 76.8169 24.76 76.5169 24.67C76.2169 24.58 75.9519 24.465 75.7219 24.325C75.5019 24.175 75.3219 23.985 75.1819 23.755C75.0519 23.525 74.9869 23.23 74.9869 22.87C74.9869 22.53 75.0619 22.23 75.2119 21.97C75.3619 21.71 75.5619 21.495 75.8119 21.325C76.0619 21.155 76.3419 21.025 76.6519 20.935C76.9619 20.845 77.2819 20.8 77.6119 20.8C78.1119 20.8 78.5719 20.9 78.9919 21.1C79.4219 21.3 79.7569 21.625 79.9969 22.075L79.0219 22.72C78.8719 22.47 78.6719 22.27 78.4219 22.12C78.1819 21.96 77.8869 21.88 77.5369 21.88C77.3769 21.88 77.2119 21.9 77.0419 21.94C76.8819 21.98 76.7369 22.04 76.6069 22.12C76.4769 22.2 76.3669 22.305 76.2769 22.435C76.1969 22.555 76.1569 22.695 76.1569 22.855C76.1569 23.005 76.2019 23.135 76.2919 23.245C76.3919 23.345 76.5219 23.435 76.6819 23.515C76.8519 23.595 77.0419 23.665 77.2519 23.725C77.4719 23.785 77.6969 23.835 77.9269 23.875C78.2369 23.935 78.5319 24.015 78.8119 24.115C79.0919 24.205 79.3369 24.33 79.5469 24.49C79.7569 24.65 79.9219 24.85 80.0419 25.09C80.1619 25.33 80.2219 25.625 80.2219 25.975C80.2219 26.375 80.1419 26.715 79.9819 26.995C79.8219 27.275 79.6069 27.505 79.3369 27.685C79.0769 27.855 78.7769 27.98 78.4369 28.06C78.1069 28.14 77.7669 28.18 77.4169 28.18C76.8169 28.18 76.2969 28.09 75.8569 27.91C75.4269 27.72 75.0369 27.375 74.6869 26.875L75.6169 26.155ZM86.1335 16.66H87.3035V28H86.1335V16.66ZM95.902 26.725C95.482 27.265 95.022 27.645 94.522 27.865C94.022 28.075 93.442 28.18 92.782 28.18C92.232 28.18 91.737 28.085 91.297 27.895C90.857 27.695 90.482 27.43 90.172 27.1C89.872 26.77 89.637 26.38 89.467 25.93C89.307 25.48 89.227 25 89.227 24.49C89.227 23.95 89.317 23.455 89.497 23.005C89.677 22.545 89.927 22.155 90.247 21.835C90.567 21.505 90.947 21.25 91.387 21.07C91.827 20.89 92.307 20.8 92.827 20.8C93.317 20.8 93.767 20.885 94.177 21.055C94.587 21.215 94.937 21.455 95.227 21.775C95.527 22.085 95.757 22.47 95.917 22.93C96.077 23.38 96.157 23.895 96.157 24.475V24.85H90.487C90.507 25.15 90.577 25.44 90.697 25.72C90.827 25.99 90.992 26.23 91.192 26.44C91.392 26.64 91.627 26.8 91.897 26.92C92.167 27.04 92.462 27.1 92.782 27.1C93.292 27.1 93.722 27.01 94.072 26.83C94.422 26.65 94.737 26.385 95.017 26.035L95.902 26.725ZM94.897 23.86C94.877 23.26 94.682 22.78 94.312 22.42C93.942 22.06 93.432 21.88 92.782 21.88C92.132 21.88 91.607 22.06 91.207 22.42C90.807 22.78 90.567 23.26 90.487 23.86H94.897ZM98.1169 26.155C98.3469 26.445 98.5969 26.675 98.8669 26.845C99.1469 27.015 99.4969 27.1 99.9169 27.1C100.097 27.1 100.277 27.08 100.457 27.04C100.647 27 100.817 26.935 100.967 26.845C101.117 26.755 101.237 26.645 101.327 26.515C101.417 26.375 101.462 26.21 101.462 26.02C101.462 25.83 101.417 25.675 101.327 25.555C101.247 25.435 101.137 25.335 100.997 25.255C100.857 25.165 100.697 25.095 100.517 25.045C100.337 24.995 100.152 24.95 99.9619 24.91C99.6319 24.84 99.3169 24.76 99.0169 24.67C98.7169 24.58 98.4519 24.465 98.2219 24.325C98.0019 24.175 97.8219 23.985 97.6819 23.755C97.5519 23.525 97.4869 23.23 97.4869 22.87C97.4869 22.53 97.5619 22.23 97.7119 21.97C97.8619 21.71 98.0619 21.495 98.3119 21.325C98.5619 21.155 98.8419 21.025 99.1519 20.935C99.4619 20.845 99.7819 20.8 100.112 20.8C100.612 20.8 101.072 20.9 101.492 21.1C101.922 21.3 102.257 21.625 102.497 22.075L101.522 22.72C101.372 22.47 101.172 22.27 100.922 22.12C100.682 21.96 100.387 21.88 100.037 21.88C99.8769 21.88 99.7119 21.9 99.5419 21.94C99.3819 21.98 99.2369 22.04 99.1069 22.12C98.9769 22.2 98.8669 22.305 98.7769 22.435C98.6969 22.555 98.6569 22.695 98.6569 22.855C98.6569 23.005 98.7019 23.135 98.7919 23.245C98.8919 23.345 99.0219 23.435 99.1819 23.515C99.3519 23.595 99.5419 23.665 99.7519 23.725C99.9719 23.785 100.197 23.835 100.427 23.875C100.737 23.935 101.032 24.015 101.312 24.115C101.592 24.205 101.837 24.33 102.047 24.49C102.257 24.65 102.422 24.85 102.542 25.09C102.662 25.33 102.722 25.625 102.722 25.975C102.722 26.375 102.642 26.715 102.482 26.995C102.322 27.275 102.107 27.505 101.837 27.685C101.577 27.855 101.277 27.98 100.937 28.06C100.607 28.14 100.267 28.18 99.9169 28.18C99.3169 28.18 98.7969 28.09 98.3569 27.91C97.9269 27.72 97.5369 27.375 97.1869 26.875L98.1169 26.155ZM112.368 21.97H110.298V25.48C110.298 25.71 110.303 25.925 110.313 26.125C110.323 26.315 110.363 26.485 110.433 26.635C110.503 26.775 110.608 26.89 110.748 26.98C110.888 27.06 111.088 27.1 111.348 27.1C111.518 27.1 111.693 27.08 111.873 27.04C112.053 27 112.223 26.94 112.383 26.86L112.428 27.925C112.228 28.015 112.003 28.08 111.753 28.12C111.513 28.16 111.283 28.18 111.063 28.18C110.643 28.18 110.308 28.125 110.058 28.015C109.808 27.905 109.613 27.75 109.473 27.55C109.333 27.35 109.238 27.105 109.188 26.815C109.148 26.515 109.128 26.185 109.128 25.825V21.97H107.598V20.98H109.128V18.985H110.298V20.98H112.368V21.97ZM113.712 21.88C114.072 21.51 114.497 21.24 114.987 21.07C115.487 20.89 115.992 20.8 116.502 20.8C117.542 20.8 118.292 21.045 118.752 21.535C119.212 22.025 119.442 22.77 119.442 23.77V26.785C119.442 26.985 119.452 27.195 119.472 27.415C119.492 27.625 119.517 27.82 119.547 28H118.422C118.382 27.84 118.357 27.665 118.347 27.475C118.347 27.275 118.347 27.1 118.347 26.95H118.317C118.087 27.31 117.777 27.605 117.387 27.835C117.007 28.065 116.547 28.18 116.007 28.18C115.647 28.18 115.307 28.135 114.987 28.045C114.677 27.955 114.402 27.825 114.162 27.655C113.932 27.475 113.747 27.255 113.607 26.995C113.467 26.735 113.397 26.435 113.397 26.095C113.397 25.515 113.547 25.06 113.847 24.73C114.147 24.4 114.517 24.155 114.957 23.995C115.407 23.835 115.887 23.735 116.397 23.695C116.917 23.655 117.392 23.635 117.822 23.635H118.272V23.425C118.272 22.915 118.117 22.53 117.807 22.27C117.507 22.01 117.082 21.88 116.532 21.88C116.152 21.88 115.777 21.945 115.407 22.075C115.047 22.195 114.727 22.385 114.447 22.645L113.712 21.88ZM117.102 24.625C116.352 24.625 115.757 24.73 115.317 24.94C114.877 25.15 114.657 25.495 114.657 25.975C114.657 26.415 114.802 26.73 115.092 26.92C115.392 27.1 115.762 27.19 116.202 27.19C116.542 27.19 116.837 27.135 117.087 27.025C117.347 26.905 117.562 26.75 117.732 26.56C117.902 26.37 118.032 26.15 118.122 25.9C118.212 25.64 118.262 25.365 118.272 25.075V24.625H117.102ZM121.58 22.645C121.58 22.325 121.57 22.025 121.55 21.745C121.53 21.465 121.52 21.21 121.52 20.98H122.63C122.63 21.17 122.635 21.36 122.645 21.55C122.655 21.74 122.66 21.935 122.66 22.135H122.69C122.77 21.965 122.88 21.8 123.02 21.64C123.17 21.48 123.345 21.34 123.545 21.22C123.745 21.09 123.97 20.99 124.22 20.92C124.47 20.84 124.74 20.8 125.03 20.8C125.11 20.8 125.19 20.805 125.27 20.815C125.35 20.825 125.43 20.845 125.51 20.875L125.435 22.06C125.235 22 125.025 21.97 124.805 21.97C124.085 21.97 123.56 22.205 123.23 22.675C122.91 23.135 122.75 23.77 122.75 24.58V28H121.58V22.645ZM126.959 20.98H128.129V28H126.959V20.98ZM126.689 18.235C126.689 18.005 126.769 17.805 126.929 17.635C127.099 17.465 127.304 17.38 127.544 17.38C127.784 17.38 127.984 17.465 128.144 17.635C128.314 17.805 128.399 18.005 128.399 18.235C128.399 18.485 128.319 18.69 128.159 18.85C127.999 19.01 127.794 19.09 127.544 19.09C127.294 19.09 127.089 19.01 126.929 18.85C126.769 18.69 126.689 18.485 126.689 18.235ZM131.057 21.97H129.527V20.98H131.057V19.405C131.057 18.975 131.097 18.585 131.177 18.235C131.257 17.875 131.392 17.565 131.582 17.305C131.782 17.045 132.042 16.845 132.362 16.705C132.682 16.555 133.077 16.48 133.547 16.48C133.697 16.48 133.857 16.495 134.027 16.525C134.197 16.555 134.337 16.6 134.447 16.66L134.282 17.71C134.002 17.61 133.737 17.56 133.487 17.56C133.187 17.56 132.952 17.615 132.782 17.725C132.612 17.825 132.482 17.97 132.392 18.16C132.312 18.34 132.262 18.56 132.242 18.82C132.232 19.08 132.227 19.36 132.227 19.66V20.98H133.937V21.97H132.227V28H131.057V21.97ZM135.339 26.155C135.569 26.445 135.819 26.675 136.089 26.845C136.369 27.015 136.719 27.1 137.139 27.1C137.319 27.1 137.499 27.08 137.679 27.04C137.869 27 138.039 26.935 138.189 26.845C138.339 26.755 138.459 26.645 138.549 26.515C138.639 26.375 138.684 26.21 138.684 26.02C138.684 25.83 138.639 25.675 138.549 25.555C138.469 25.435 138.359 25.335 138.219 25.255C138.079 25.165 137.919 25.095 137.739 25.045C137.559 24.995 137.374 24.95 137.184 24.91C136.854 24.84 136.539 24.76 136.239 24.67C135.939 24.58 135.674 24.465 135.444 24.325C135.224 24.175 135.044 23.985 134.904 23.755C134.774 23.525 134.709 23.23 134.709 22.87C134.709 22.53 134.784 22.23 134.934 21.97C135.084 21.71 135.284 21.495 135.534 21.325C135.784 21.155 136.064 21.025 136.374 20.935C136.684 20.845 137.004 20.8 137.334 20.8C137.834 20.8 138.294 20.9 138.714 21.1C139.144 21.3 139.479 21.625 139.719 22.075L138.744 22.72C138.594 22.47 138.394 22.27 138.144 22.12C137.904 21.96 137.609 21.88 137.259 21.88C137.099 21.88 136.934 21.9 136.764 21.94C136.604 21.98 136.459 22.04 136.329 22.12C136.199 22.2 136.089 22.305 135.999 22.435C135.919 22.555 135.879 22.695 135.879 22.855C135.879 23.005 135.924 23.135 136.014 23.245C136.114 23.345 136.244 23.435 136.404 23.515C136.574 23.595 136.764 23.665 136.974 23.725C137.194 23.785 137.419 23.835 137.649 23.875C137.959 23.935 138.254 24.015 138.534 24.115C138.814 24.205 139.059 24.33 139.269 24.49C139.479 24.65 139.644 24.85 139.764 25.09C139.884 25.33 139.944 25.625 139.944 25.975C139.944 26.375 139.864 26.715 139.704 26.995C139.544 27.275 139.329 27.505 139.059 27.685C138.799 27.855 138.499 27.98 138.159 28.06C137.829 28.14 137.489 28.18 137.139 28.18C136.539 28.18 136.019 28.09 135.579 27.91C135.149 27.72 134.759 27.375 134.409 26.875L135.339 26.155Z" fill="black"/>
<rect x="1" y="0.5" width="160" height="46" stroke="black"/>
</svg>
