<svg width="44" height="44" viewBox="0 0 44 44" fill="none" xmlns="http://www.w3.org/2000/svg">
<rect width="44" height="44" fill="black"/>
<rect x="8" y="8" width="29" height="29" rx="9" fill="white"/>
<path d="M21.8118 37.0999H21.9118V36.9999V25.8599H26.2118H26.3118V25.7599V22.2799V22.1799H26.2118H21.9118C21.9125 21.1 21.9238 20.4932 21.9808 20.094C22.0099 19.8905 22.0504 19.7449 22.1057 19.6205C22.161 19.4961 22.233 19.3884 22.3308 19.2613C22.7399 18.7409 23.6159 18.4599 25.0118 18.4599H25.013C25.4098 18.4599 25.6447 18.4599 26.1977 18.5389L26.3118 18.5552V18.4399V14.9199V14.825L26.2171 14.82C25.4548 14.7799 25.2129 14.7799 24.6118 14.7799C21.6436 14.7799 20.1269 15.2205 18.9377 16.5327C18.3484 17.183 17.9597 17.8369 17.7251 18.7243C17.4967 19.5886 17.4153 20.6706 17.4307 22.1799H14.6118H14.5118V22.2799V25.7599V25.8599H14.6118H17.4318V36.9999V37.0999H17.5318H21.8118Z" fill="black" stroke="black" stroke-width="0.2"/>
</svg>
