<svg width="415" height="433" viewBox="0 0 415 433" fill="none" xmlns="http://www.w3.org/2000/svg">
<path fill-rule="evenodd" clip-rule="evenodd" d="M198.499 0L0 0L0 433H198.499V433.001C198.708 433.001 198.916 433.001 199.125 433H201V432.987C319.418 431.646 414.999 335.236 414.999 216.5C414.999 97.7653 319.418 1.35453 201 0.0141481V0L198.499 0Z" fill="black"/>
<path d="M52.61 94.9C52.61 96.3933 52.3533 97.7467 51.84 98.96C51.3267 100.15 50.6267 101.165 49.74 102.005C48.8533 102.845 47.8033 103.498 46.59 103.965C45.3767 104.408 44.0583 104.63 42.635 104.63C41.2117 104.63 39.8933 104.408 38.68 103.965C37.4667 103.498 36.405 102.845 35.495 102.005C34.6083 101.165 33.9083 100.15 33.395 98.96C32.905 97.7467 32.66 96.3933 32.66 94.9V79.22H37.07V94.76C37.07 95.3667 37.1633 96.0083 37.35 96.685C37.5367 97.3383 37.84 97.945 38.26 98.505C38.7033 99.065 39.275 99.5317 39.975 99.905C40.6983 100.255 41.585 100.43 42.635 100.43C43.685 100.43 44.56 100.255 45.26 99.905C45.9833 99.5317 46.555 99.065 46.975 98.505C47.4183 97.945 47.7333 97.3383 47.92 96.685C48.1067 96.0083 48.2 95.3667 48.2 94.76V79.22H52.61V94.9ZM57.6388 87.2H61.6288V89.895H61.6988C62.0955 89.055 62.7021 88.3317 63.5188 87.725C64.3355 87.095 65.4438 86.78 66.8438 86.78C67.9638 86.78 68.9088 86.9667 69.6788 87.34C70.4721 87.7133 71.1138 88.2033 71.6038 88.81C72.0938 89.4167 72.4438 90.1167 72.6538 90.91C72.8638 91.7033 72.9688 92.5317 72.9688 93.395V104H68.7688V95.495C68.7688 95.0283 68.7455 94.515 68.6988 93.955C68.6521 93.3717 68.5238 92.835 68.3138 92.345C68.1271 91.8317 67.8238 91.4117 67.4038 91.085C66.9838 90.735 66.4121 90.56 65.6888 90.56C64.9888 90.56 64.3938 90.6767 63.9038 90.91C63.4371 91.1433 63.0405 91.4583 62.7138 91.855C62.4105 92.2517 62.1888 92.7067 62.0488 93.22C61.9088 93.7333 61.8388 94.27 61.8388 94.83V104H57.6388V87.2ZM89.5979 90.77H86.1329V87.2H89.5979V84.82C89.5979 83.6533 89.6796 82.6033 89.8429 81.67C90.0062 80.7133 90.3096 79.8967 90.7529 79.22C91.2196 78.5433 91.8612 78.03 92.6779 77.68C93.4946 77.3067 94.5562 77.12 95.8629 77.12C96.8196 77.12 97.7062 77.2017 98.5229 77.365L98.2429 80.935C97.9396 80.865 97.6479 80.8067 97.3679 80.76C97.0879 80.7133 96.7962 80.69 96.4929 80.69C95.9096 80.69 95.4429 80.7833 95.0929 80.97C94.7429 81.1567 94.4629 81.4133 94.2529 81.74C94.0662 82.0433 93.9379 82.405 93.8679 82.825C93.8212 83.245 93.7979 83.6883 93.7979 84.155V87.2H97.6829V90.77H93.7979V104H89.5979V90.77ZM103.758 97.07C103.898 98.33 104.388 99.31 105.228 100.01C106.068 100.71 107.083 101.06 108.273 101.06C109.323 101.06 110.198 100.85 110.898 100.43C111.621 99.9867 112.251 99.4383 112.788 98.785L115.798 101.06C114.818 102.273 113.721 103.137 112.508 103.65C111.294 104.163 110.023 104.42 108.693 104.42C107.433 104.42 106.243 104.21 105.123 103.79C104.003 103.37 103.034 102.775 102.218 102.005C101.401 101.235 100.748 100.313 100.258 99.24C99.7909 98.1433 99.5576 96.93 99.5576 95.6C99.5576 94.27 99.7909 93.0683 100.258 91.995C100.748 90.8983 101.401 89.965 102.218 89.195C103.034 88.425 104.003 87.83 105.123 87.41C106.243 86.99 107.433 86.78 108.693 86.78C109.859 86.78 110.921 86.99 111.878 87.41C112.858 87.8067 113.686 88.39 114.363 89.16C115.063 89.93 115.599 90.8867 115.973 92.03C116.369 93.15 116.568 94.445 116.568 95.915V97.07H103.758ZM112.368 93.92C112.344 92.6833 111.959 91.715 111.213 91.015C110.466 90.2917 109.428 89.93 108.098 89.93C106.838 89.93 105.834 90.2917 105.088 91.015C104.364 91.7383 103.921 92.7067 103.758 93.92H112.368ZM129.455 91.855C128.639 90.7117 127.542 90.14 126.165 90.14C125.605 90.14 125.057 90.28 124.52 90.56C123.984 90.84 123.715 91.295 123.715 91.925C123.715 92.4383 123.937 92.8117 124.38 93.045C124.824 93.2783 125.384 93.4767 126.06 93.64C126.737 93.8033 127.46 93.9783 128.23 94.165C129.024 94.3283 129.759 94.5967 130.435 94.97C131.112 95.32 131.672 95.81 132.115 96.44C132.559 97.07 132.78 97.9333 132.78 99.03C132.78 100.033 132.559 100.885 132.115 101.585C131.695 102.262 131.135 102.81 130.435 103.23C129.759 103.65 128.989 103.953 128.125 104.14C127.262 104.327 126.399 104.42 125.535 104.42C124.229 104.42 123.027 104.233 121.93 103.86C120.834 103.487 119.854 102.81 118.99 101.83L121.79 99.205C122.327 99.8117 122.899 100.313 123.505 100.71C124.135 101.083 124.894 101.27 125.78 101.27C126.084 101.27 126.399 101.235 126.725 101.165C127.052 101.095 127.355 100.978 127.635 100.815C127.915 100.652 128.137 100.453 128.3 100.22C128.487 99.9633 128.58 99.6717 128.58 99.345C128.58 98.7617 128.359 98.33 127.915 98.05C127.472 97.77 126.912 97.5483 126.235 97.385C125.559 97.1983 124.824 97.035 124.03 96.895C123.26 96.7317 122.537 96.4867 121.86 96.16C121.184 95.81 120.624 95.3317 120.18 94.725C119.737 94.1183 119.515 93.2783 119.515 92.205C119.515 91.2717 119.702 90.4667 120.075 89.79C120.472 89.09 120.985 88.5183 121.615 88.075C122.245 87.6317 122.969 87.305 123.785 87.095C124.602 86.885 125.43 86.78 126.27 86.78C127.39 86.78 128.499 86.9783 129.595 87.375C130.692 87.7483 131.579 88.4017 132.255 89.335L129.455 91.855ZM134.087 90.77V87.2H137.552V82.335H141.752V87.2H146.372V90.77H141.752V98.12C141.752 98.96 141.904 99.625 142.207 100.115C142.534 100.605 143.164 100.85 144.097 100.85C144.47 100.85 144.879 100.815 145.322 100.745C145.765 100.652 146.115 100.512 146.372 100.325V103.86C145.929 104.07 145.38 104.21 144.727 104.28C144.097 104.373 143.537 104.42 143.047 104.42C141.927 104.42 141.005 104.292 140.282 104.035C139.582 103.802 139.022 103.44 138.602 102.95C138.205 102.437 137.925 101.807 137.762 101.06C137.622 100.313 137.552 99.45 137.552 98.47V90.77H134.087ZM149.755 87.2H153.955V104H149.755V87.2ZM149.16 81.495C149.16 80.8183 149.405 80.235 149.895 79.745C150.408 79.2317 151.05 78.975 151.82 78.975C152.59 78.975 153.231 79.22 153.745 79.71C154.281 80.1767 154.55 80.7717 154.55 81.495C154.55 82.2183 154.281 82.825 153.745 83.315C153.231 83.7817 152.59 84.015 151.82 84.015C151.05 84.015 150.408 83.77 149.895 83.28C149.405 82.7667 149.16 82.1717 149.16 81.495ZM156.501 87.2H161.086L165.566 98.96H165.636L170.151 87.2H174.456L167.841 104H163.361L156.501 87.2ZM187.426 101.69H187.321C186.714 102.647 185.944 103.347 185.011 103.79C184.078 104.21 183.051 104.42 181.931 104.42C181.161 104.42 180.403 104.315 179.656 104.105C178.933 103.895 178.279 103.58 177.696 103.16C177.136 102.74 176.681 102.215 176.331 101.585C175.981 100.955 175.806 100.22 175.806 99.38C175.806 98.47 175.969 97.7 176.296 97.07C176.623 96.4167 177.054 95.88 177.591 95.46C178.151 95.0167 178.793 94.6667 179.516 94.41C180.239 94.1533 180.986 93.9667 181.756 93.85C182.549 93.71 183.343 93.6283 184.136 93.605C184.929 93.5583 185.676 93.535 186.376 93.535H187.426V93.08C187.426 92.03 187.064 91.2483 186.341 90.735C185.618 90.1983 184.696 89.93 183.576 89.93C182.689 89.93 181.861 90.0933 181.091 90.42C180.321 90.7233 179.656 91.1433 179.096 91.68L176.891 89.475C177.824 88.5183 178.909 87.83 180.146 87.41C181.406 86.99 182.701 86.78 184.031 86.78C185.221 86.78 186.224 86.92 187.041 87.2C187.858 87.4567 188.534 87.795 189.071 88.215C189.608 88.635 190.016 89.125 190.296 89.685C190.599 90.2217 190.809 90.77 190.926 91.33C191.066 91.89 191.148 92.4383 191.171 92.975C191.194 93.4883 191.206 93.9433 191.206 94.34V104H187.426V101.69ZM187.181 96.475H186.306C185.723 96.475 185.069 96.4983 184.346 96.545C183.623 96.5917 182.934 96.7083 182.281 96.895C181.651 97.0583 181.114 97.315 180.671 97.665C180.228 97.9917 180.006 98.4583 180.006 99.065C180.006 99.4617 180.088 99.8 180.251 100.08C180.438 100.337 180.671 100.558 180.951 100.745C181.231 100.932 181.546 101.072 181.896 101.165C182.246 101.235 182.596 101.27 182.946 101.27C184.393 101.27 185.454 100.932 186.131 100.255C186.831 99.555 187.181 98.61 187.181 97.42V96.475ZM195.795 77.54H199.995V104H195.795V77.54ZM43.86 137.24C43.37 136.727 42.8567 136.318 42.32 136.015C41.7833 135.712 41.235 135.56 40.675 135.56C39.905 135.56 39.2167 135.7 38.61 135.98C38.0033 136.26 37.4783 136.633 37.035 137.1C36.615 137.567 36.2883 138.103 36.055 138.71C35.845 139.317 35.74 139.947 35.74 140.6C35.74 141.253 35.845 141.883 36.055 142.49C36.2883 143.097 36.615 143.633 37.035 144.1C37.4783 144.567 38.0033 144.94 38.61 145.22C39.2167 145.5 39.905 145.64 40.675 145.64C41.3283 145.64 41.935 145.512 42.495 145.255C43.055 144.975 43.5333 144.578 43.93 144.065L46.73 147.075C46.31 147.495 45.82 147.857 45.26 148.16C44.7233 148.463 44.175 148.708 43.615 148.895C43.055 149.082 42.5183 149.21 42.005 149.28C41.4917 149.373 41.0483 149.42 40.675 149.42C39.415 149.42 38.225 149.21 37.105 148.79C35.985 148.37 35.0167 147.775 34.2 147.005C33.3833 146.235 32.73 145.313 32.24 144.24C31.7733 143.143 31.54 141.93 31.54 140.6C31.54 139.27 31.7733 138.068 32.24 136.995C32.73 135.898 33.3833 134.965 34.2 134.195C35.0167 133.425 35.985 132.83 37.105 132.41C38.225 131.99 39.415 131.78 40.675 131.78C41.7483 131.78 42.8217 131.99 43.895 132.41C44.9917 132.807 45.9483 133.448 46.765 134.335L43.86 137.24ZM48.4248 140.6C48.4248 139.27 48.6581 138.068 49.1248 136.995C49.6148 135.898 50.2681 134.965 51.0848 134.195C51.9014 133.425 52.8698 132.83 53.9898 132.41C55.1098 131.99 56.2998 131.78 57.5598 131.78C58.8198 131.78 60.0098 131.99 61.1298 132.41C62.2498 132.83 63.2181 133.425 64.0348 134.195C64.8514 134.965 65.4931 135.898 65.9598 136.995C66.4498 138.068 66.6948 139.27 66.6948 140.6C66.6948 141.93 66.4498 143.143 65.9598 144.24C65.4931 145.313 64.8514 146.235 64.0348 147.005C63.2181 147.775 62.2498 148.37 61.1298 148.79C60.0098 149.21 58.8198 149.42 57.5598 149.42C56.2998 149.42 55.1098 149.21 53.9898 148.79C52.8698 148.37 51.9014 147.775 51.0848 147.005C50.2681 146.235 49.6148 145.313 49.1248 144.24C48.6581 143.143 48.4248 141.93 48.4248 140.6ZM52.6248 140.6C52.6248 141.253 52.7298 141.883 52.9398 142.49C53.1731 143.097 53.4998 143.633 53.9198 144.1C54.3631 144.567 54.8881 144.94 55.4948 145.22C56.1014 145.5 56.7898 145.64 57.5598 145.64C58.3298 145.64 59.0181 145.5 59.6248 145.22C60.2314 144.94 60.7448 144.567 61.1648 144.1C61.6081 143.633 61.9348 143.097 62.1448 142.49C62.3781 141.883 62.4948 141.253 62.4948 140.6C62.4948 139.947 62.3781 139.317 62.1448 138.71C61.9348 138.103 61.6081 137.567 61.1648 137.1C60.7448 136.633 60.2314 136.26 59.6248 135.98C59.0181 135.7 58.3298 135.56 57.5598 135.56C56.7898 135.56 56.1014 135.7 55.4948 135.98C54.8881 136.26 54.3631 136.633 53.9198 137.1C53.4998 137.567 53.1731 138.103 52.9398 138.71C52.7298 139.317 52.6248 139.947 52.6248 140.6ZM70.6271 132.2H74.6171V134.895H74.6871C75.0837 134.055 75.6904 133.332 76.5071 132.725C77.3237 132.095 78.4321 131.78 79.8321 131.78C80.9521 131.78 81.8971 131.967 82.6671 132.34C83.4604 132.713 84.1021 133.203 84.5921 133.81C85.0821 134.417 85.4321 135.117 85.6421 135.91C85.8521 136.703 85.9571 137.532 85.9571 138.395V149H81.7571V140.495C81.7571 140.028 81.7337 139.515 81.6871 138.955C81.6404 138.372 81.5121 137.835 81.3021 137.345C81.1154 136.832 80.8121 136.412 80.3921 136.085C79.9721 135.735 79.4004 135.56 78.6771 135.56C77.9771 135.56 77.3821 135.677 76.8921 135.91C76.4254 136.143 76.0287 136.458 75.7021 136.855C75.3987 137.252 75.1771 137.707 75.0371 138.22C74.8971 138.733 74.8271 139.27 74.8271 139.83V149H70.6271V132.2ZM88.7647 135.77V132.2H92.2297V127.335H96.4297V132.2H101.05V135.77H96.4297V143.12C96.4297 143.96 96.5814 144.625 96.8847 145.115C97.2114 145.605 97.8414 145.85 98.7747 145.85C99.1481 145.85 99.5564 145.815 99.9997 145.745C100.443 145.652 100.793 145.512 101.05 145.325V148.86C100.606 149.07 100.058 149.21 99.4047 149.28C98.7747 149.373 98.2147 149.42 97.7247 149.42C96.6047 149.42 95.6831 149.292 94.9597 149.035C94.2597 148.802 93.6997 148.44 93.2797 147.95C92.8831 147.437 92.6031 146.807 92.4397 146.06C92.2997 145.313 92.2297 144.45 92.2297 143.47V135.77H88.7647ZM107.688 142.07C107.828 143.33 108.318 144.31 109.158 145.01C109.998 145.71 111.013 146.06 112.203 146.06C113.253 146.06 114.128 145.85 114.828 145.43C115.552 144.987 116.182 144.438 116.718 143.785L119.728 146.06C118.748 147.273 117.652 148.137 116.438 148.65C115.225 149.163 113.953 149.42 112.623 149.42C111.363 149.42 110.173 149.21 109.053 148.79C107.933 148.37 106.965 147.775 106.148 147.005C105.332 146.235 104.678 145.313 104.188 144.24C103.722 143.143 103.488 141.93 103.488 140.6C103.488 139.27 103.722 138.068 104.188 136.995C104.678 135.898 105.332 134.965 106.148 134.195C106.965 133.425 107.933 132.83 109.053 132.41C110.173 131.99 111.363 131.78 112.623 131.78C113.79 131.78 114.852 131.99 115.808 132.41C116.788 132.807 117.617 133.39 118.293 134.16C118.993 134.93 119.53 135.887 119.903 137.03C120.3 138.15 120.498 139.445 120.498 140.915V142.07H107.688ZM116.298 138.92C116.275 137.683 115.89 136.715 115.143 136.015C114.397 135.292 113.358 134.93 112.028 134.93C110.768 134.93 109.765 135.292 109.018 136.015C108.295 136.738 107.852 137.707 107.688 138.92H116.298ZM124.251 132.2H128.241V134.825H128.311C128.684 134.032 129.279 133.332 130.096 132.725C130.936 132.095 132.056 131.78 133.456 131.78C136.093 131.78 137.843 132.818 138.706 134.895C139.313 133.822 140.071 133.04 140.981 132.55C141.891 132.037 142.976 131.78 144.236 131.78C145.356 131.78 146.301 131.967 147.071 132.34C147.841 132.713 148.459 133.227 148.926 133.88C149.416 134.533 149.766 135.303 149.976 136.19C150.186 137.053 150.291 137.987 150.291 138.99V149H146.091V139.48C146.091 138.967 146.044 138.477 145.951 138.01C145.858 137.52 145.694 137.1 145.461 136.75C145.228 136.377 144.913 136.085 144.516 135.875C144.119 135.665 143.606 135.56 142.976 135.56C142.323 135.56 141.763 135.688 141.296 135.945C140.853 136.178 140.479 136.505 140.176 136.925C139.896 137.322 139.686 137.788 139.546 138.325C139.429 138.838 139.371 139.363 139.371 139.9V149H135.171V138.99C135.171 137.94 134.949 137.112 134.506 136.505C134.063 135.875 133.328 135.56 132.301 135.56C131.601 135.56 131.006 135.677 130.516 135.91C130.049 136.143 129.653 136.458 129.326 136.855C129.023 137.252 128.801 137.707 128.661 138.22C128.521 138.733 128.451 139.27 128.451 139.83V149H124.251V132.2ZM154.88 132.2H158.87V134.72H158.94C159.547 133.693 160.363 132.947 161.39 132.48C162.417 132.013 163.525 131.78 164.715 131.78C165.998 131.78 167.153 132.013 168.18 132.48C169.207 132.923 170.082 133.542 170.805 134.335C171.528 135.128 172.077 136.062 172.45 137.135C172.823 138.208 173.01 139.363 173.01 140.6C173.01 141.837 172.812 142.992 172.415 144.065C172.018 145.138 171.458 146.072 170.735 146.865C170.035 147.658 169.183 148.288 168.18 148.755C167.177 149.198 166.08 149.42 164.89 149.42C164.097 149.42 163.397 149.338 162.79 149.175C162.183 149.012 161.647 148.802 161.18 148.545C160.713 148.288 160.317 148.02 159.99 147.74C159.663 147.437 159.395 147.145 159.185 146.865H159.08V156.98H154.88V132.2ZM168.81 140.6C168.81 139.947 168.693 139.317 168.46 138.71C168.25 138.103 167.923 137.567 167.48 137.1C167.06 136.633 166.547 136.26 165.94 135.98C165.333 135.7 164.645 135.56 163.875 135.56C163.105 135.56 162.417 135.7 161.81 135.98C161.203 136.26 160.678 136.633 160.235 137.1C159.815 137.567 159.488 138.103 159.255 138.71C159.045 139.317 158.94 139.947 158.94 140.6C158.94 141.253 159.045 141.883 159.255 142.49C159.488 143.097 159.815 143.633 160.235 144.1C160.678 144.567 161.203 144.94 161.81 145.22C162.417 145.5 163.105 145.64 163.875 145.64C164.645 145.64 165.333 145.5 165.94 145.22C166.547 144.94 167.06 144.567 167.48 144.1C167.923 143.633 168.25 143.097 168.46 142.49C168.693 141.883 168.81 141.253 168.81 140.6ZM176.086 140.6C176.086 139.27 176.319 138.068 176.786 136.995C177.276 135.898 177.929 134.965 178.746 134.195C179.563 133.425 180.531 132.83 181.651 132.41C182.771 131.99 183.961 131.78 185.221 131.78C186.481 131.78 187.671 131.99 188.791 132.41C189.911 132.83 190.879 133.425 191.696 134.195C192.513 134.965 193.154 135.898 193.621 136.995C194.111 138.068 194.356 139.27 194.356 140.6C194.356 141.93 194.111 143.143 193.621 144.24C193.154 145.313 192.513 146.235 191.696 147.005C190.879 147.775 189.911 148.37 188.791 148.79C187.671 149.21 186.481 149.42 185.221 149.42C183.961 149.42 182.771 149.21 181.651 148.79C180.531 148.37 179.563 147.775 178.746 147.005C177.929 146.235 177.276 145.313 176.786 144.24C176.319 143.143 176.086 141.93 176.086 140.6ZM180.286 140.6C180.286 141.253 180.391 141.883 180.601 142.49C180.834 143.097 181.161 143.633 181.581 144.1C182.024 144.567 182.549 144.94 183.156 145.22C183.763 145.5 184.451 145.64 185.221 145.64C185.991 145.64 186.679 145.5 187.286 145.22C187.893 144.94 188.406 144.567 188.826 144.1C189.269 143.633 189.596 143.097 189.806 142.49C190.039 141.883 190.156 141.253 190.156 140.6C190.156 139.947 190.039 139.317 189.806 138.71C189.596 138.103 189.269 137.567 188.826 137.1C188.406 136.633 187.893 136.26 187.286 135.98C186.679 135.7 185.991 135.56 185.221 135.56C184.451 135.56 183.763 135.7 183.156 135.98C182.549 136.26 182.024 136.633 181.581 137.1C181.161 137.567 180.834 138.103 180.601 138.71C180.391 139.317 180.286 139.947 180.286 140.6ZM198.288 132.2H202.488V134.86H202.558C203.025 133.88 203.69 133.122 204.553 132.585C205.417 132.048 206.408 131.78 207.528 131.78C207.785 131.78 208.03 131.803 208.263 131.85C208.52 131.897 208.777 131.955 209.033 132.025V136.085C208.683 135.992 208.333 135.922 207.983 135.875C207.657 135.805 207.33 135.77 207.003 135.77C206.023 135.77 205.23 135.957 204.623 136.33C204.04 136.68 203.585 137.088 203.258 137.555C202.955 138.022 202.745 138.488 202.628 138.955C202.535 139.422 202.488 139.772 202.488 140.005V149H198.288V132.2ZM222.392 146.69H222.287C221.68 147.647 220.91 148.347 219.977 148.79C219.043 149.21 218.017 149.42 216.897 149.42C216.127 149.42 215.368 149.315 214.622 149.105C213.898 148.895 213.245 148.58 212.662 148.16C212.102 147.74 211.647 147.215 211.297 146.585C210.947 145.955 210.772 145.22 210.772 144.38C210.772 143.47 210.935 142.7 211.262 142.07C211.588 141.417 212.02 140.88 212.557 140.46C213.117 140.017 213.758 139.667 214.482 139.41C215.205 139.153 215.952 138.967 216.722 138.85C217.515 138.71 218.308 138.628 219.102 138.605C219.895 138.558 220.642 138.535 221.342 138.535H222.392V138.08C222.392 137.03 222.03 136.248 221.307 135.735C220.583 135.198 219.662 134.93 218.542 134.93C217.655 134.93 216.827 135.093 216.057 135.42C215.287 135.723 214.622 136.143 214.062 136.68L211.857 134.475C212.79 133.518 213.875 132.83 215.112 132.41C216.372 131.99 217.667 131.78 218.997 131.78C220.187 131.78 221.19 131.92 222.007 132.2C222.823 132.457 223.5 132.795 224.037 133.215C224.573 133.635 224.982 134.125 225.262 134.685C225.565 135.222 225.775 135.77 225.892 136.33C226.032 136.89 226.113 137.438 226.137 137.975C226.16 138.488 226.172 138.943 226.172 139.34V149H222.392V146.69ZM222.147 141.475H221.272C220.688 141.475 220.035 141.498 219.312 141.545C218.588 141.592 217.9 141.708 217.247 141.895C216.617 142.058 216.08 142.315 215.637 142.665C215.193 142.992 214.972 143.458 214.972 144.065C214.972 144.462 215.053 144.8 215.217 145.08C215.403 145.337 215.637 145.558 215.917 145.745C216.197 145.932 216.512 146.072 216.862 146.165C217.212 146.235 217.562 146.27 217.912 146.27C219.358 146.27 220.42 145.932 221.097 145.255C221.797 144.555 222.147 143.61 222.147 142.42V141.475ZM230.761 132.2H234.961V149H230.761V132.2ZM230.166 126.495C230.166 125.818 230.411 125.235 230.901 124.745C231.414 124.232 232.056 123.975 232.826 123.975C233.596 123.975 234.237 124.22 234.751 124.71C235.287 125.177 235.556 125.772 235.556 126.495C235.556 127.218 235.287 127.825 234.751 128.315C234.237 128.782 233.596 129.015 232.826 129.015C232.056 129.015 231.414 128.77 230.901 128.28C230.411 127.767 230.166 127.172 230.166 126.495ZM239.782 132.2H243.772V134.895H243.842C244.239 134.055 244.846 133.332 245.662 132.725C246.479 132.095 247.587 131.78 248.987 131.78C250.107 131.78 251.052 131.967 251.822 132.34C252.616 132.713 253.257 133.203 253.747 133.81C254.237 134.417 254.587 135.117 254.797 135.91C255.007 136.703 255.112 137.532 255.112 138.395V149H250.912V140.495C250.912 140.028 250.889 139.515 250.842 138.955C250.796 138.372 250.667 137.835 250.457 137.345C250.271 136.832 249.967 136.412 249.547 136.085C249.127 135.735 248.556 135.56 247.832 135.56C247.132 135.56 246.537 135.677 246.047 135.91C245.581 136.143 245.184 136.458 244.857 136.855C244.554 137.252 244.332 137.707 244.192 138.22C244.052 138.733 243.982 139.27 243.982 139.83V149H239.782V132.2Z" fill="white"/>
</svg>
