<svg width="432" height="433" viewBox="0 0 432 433" fill="none" xmlns="http://www.w3.org/2000/svg">
<path fill-rule="evenodd" clip-rule="evenodd" d="M215.499 0L0 0L0 433H215.499V433.001C335.069 433.001 432 336.07 432 216.5C432 97.0974 335.34 0.270633 216 0.000566323V0L215.499 0Z" fill="#F96A14"/>
<path d="M43.78 348.64H26.84V344.44H65.34V348.64H48.4V394H43.78V348.64ZM71.7953 341.08H75.9953V367.33H76.1353C76.9753 365.557 78.3753 364.04 80.3353 362.78C82.2953 361.473 84.582 360.82 87.1953 360.82C89.7153 360.82 91.7686 361.217 93.3553 362.01C94.942 362.803 96.1786 363.853 97.0653 365.16C97.9986 366.42 98.6286 367.89 98.9553 369.57C99.3286 371.25 99.5153 372.977 99.5153 374.75V394H95.3153V374.96C95.3153 373.653 95.1986 372.393 94.9653 371.18C94.732 369.92 94.312 368.8 93.7053 367.82C93.1453 366.84 92.3286 366.07 91.2553 365.51C90.2286 364.903 88.8753 364.6 87.1953 364.6C85.6553 364.6 84.1853 364.88 82.7853 365.44C81.432 365.953 80.242 366.77 79.2153 367.89C78.2353 368.963 77.442 370.34 76.8353 372.02C76.2753 373.653 75.9953 375.59 75.9953 377.83V394H71.7953V341.08ZM139.252 387.91C137.618 390.383 135.588 392.157 133.162 393.23C130.782 394.303 128.145 394.84 125.252 394.84C122.778 394.84 120.538 394.42 118.532 393.58C116.525 392.74 114.798 391.573 113.352 390.08C111.905 388.54 110.785 386.743 109.992 384.69C109.245 382.59 108.872 380.28 108.872 377.76C108.872 375.333 109.268 373.093 110.062 371.04C110.855 368.987 111.975 367.213 113.422 365.72C114.868 364.18 116.572 362.99 118.532 362.15C120.492 361.263 122.662 360.82 125.042 360.82C127.515 360.82 129.685 361.263 131.552 362.15C133.465 362.99 135.052 364.133 136.312 365.58C137.618 366.98 138.598 368.59 139.252 370.41C139.905 372.23 140.232 374.073 140.232 375.94V378.88H113.072C113.072 379.767 113.235 380.91 113.562 382.31C113.935 383.663 114.588 384.993 115.522 386.3C116.455 387.607 117.692 388.727 119.232 389.66C120.818 390.593 122.848 391.06 125.322 391.06C127.468 391.06 129.545 390.547 131.552 389.52C133.558 388.493 135.098 387.093 136.172 385.32L139.252 387.91ZM136.032 375.1C136.032 373.653 135.728 372.3 135.122 371.04C134.562 369.78 133.768 368.683 132.742 367.75C131.762 366.77 130.572 366 129.172 365.44C127.818 364.88 126.372 364.6 124.832 364.6C122.545 364.6 120.632 365.067 119.092 366C117.598 366.933 116.408 368.007 115.522 369.22C114.635 370.433 114.005 371.623 113.632 372.79C113.258 373.91 113.072 374.68 113.072 375.1H136.032ZM127.772 344.44H133.372L123.992 354.52H120.492L127.772 344.44ZM174.718 380.42C174.718 382.007 174.718 383.43 174.718 384.69C174.765 385.95 174.812 387.117 174.858 388.19C174.905 389.263 174.952 390.267 174.998 391.2C175.092 392.133 175.208 393.067 175.348 394H171.428C171.148 392.413 171.008 390.663 171.008 388.75H170.868C169.655 390.85 168.138 392.39 166.318 393.37C164.545 394.35 162.282 394.84 159.528 394.84C158.128 394.84 156.752 394.653 155.398 394.28C154.045 393.953 152.832 393.417 151.758 392.67C150.685 391.877 149.798 390.873 149.098 389.66C148.445 388.447 148.118 386.977 148.118 385.25C148.118 382.777 148.748 380.817 150.008 379.37C151.268 377.923 152.808 376.85 154.628 376.15C156.495 375.403 158.455 374.937 160.508 374.75C162.608 374.517 164.452 374.4 166.038 374.4H170.938V372.44C170.938 369.64 170.075 367.633 168.348 366.42C166.622 365.207 164.452 364.6 161.838 364.6C158.105 364.6 154.815 365.813 151.968 368.24L149.518 365.37C151.058 363.877 152.972 362.757 155.258 362.01C157.545 361.217 159.738 360.82 161.838 360.82C165.758 360.82 168.885 361.753 171.218 363.62C173.552 365.44 174.718 368.403 174.718 372.51V380.42ZM166.318 377.76C164.545 377.76 162.818 377.877 161.138 378.11C159.505 378.343 158.012 378.74 156.658 379.3C155.352 379.86 154.302 380.607 153.508 381.54C152.715 382.473 152.318 383.64 152.318 385.04C152.318 386.02 152.528 386.907 152.948 387.7C153.415 388.447 153.998 389.077 154.698 389.59C155.398 390.057 156.168 390.43 157.008 390.71C157.895 390.943 158.782 391.06 159.668 391.06C161.908 391.06 163.752 390.733 165.198 390.08C166.645 389.427 167.788 388.587 168.628 387.56C169.515 386.487 170.122 385.297 170.448 383.99C170.775 382.637 170.938 381.283 170.938 379.93V377.76H166.318ZM159.738 344.44H164.638L172.198 354.52H167.648L161.978 346.96L156.308 354.52H152.178L159.738 344.44ZM201.707 365.44H192.467V386.51C192.467 387.957 192.864 389.077 193.657 389.87C194.45 390.663 195.547 391.06 196.947 391.06C197.74 391.06 198.534 390.967 199.327 390.78C200.167 390.547 200.96 390.267 201.707 389.94L202.057 393.72C201.264 394 200.354 394.257 199.327 394.49C198.3 394.723 197.39 394.84 196.597 394.84C195.104 394.84 193.82 394.607 192.747 394.14C191.674 393.72 190.81 393.137 190.157 392.39C189.504 391.643 189.014 390.78 188.687 389.8C188.407 388.773 188.267 387.677 188.267 386.51V365.44H181.267V361.66H188.267V352.35H192.467V361.66H201.707V365.44ZM209.198 370.76C209.198 370.153 209.174 369.43 209.128 368.59C209.081 367.703 209.034 366.817 208.988 365.93C208.988 365.043 208.964 364.227 208.918 363.48C208.871 362.687 208.848 362.08 208.848 361.66H213.048C213.094 362.873 213.118 364.04 213.118 365.16C213.164 366.28 213.234 367.003 213.328 367.33C214.401 365.417 215.778 363.853 217.458 362.64C219.138 361.427 221.191 360.82 223.618 360.82C224.038 360.82 224.434 360.867 224.808 360.96C225.228 361.007 225.648 361.077 226.068 361.17L225.578 365.3C225.018 365.113 224.481 365.02 223.968 365.02C222.148 365.02 220.561 365.323 219.208 365.93C217.901 366.49 216.804 367.283 215.918 368.31C215.078 369.337 214.448 370.55 214.028 371.95C213.608 373.303 213.398 374.773 213.398 376.36V394H209.198V370.76ZM259.838 387.91C258.204 390.383 256.174 392.157 253.748 393.23C251.368 394.303 248.731 394.84 245.838 394.84C243.364 394.84 241.124 394.42 239.118 393.58C237.111 392.74 235.384 391.573 233.938 390.08C232.491 388.54 231.371 386.743 230.578 384.69C229.831 382.59 229.458 380.28 229.458 377.76C229.458 375.333 229.854 373.093 230.648 371.04C231.441 368.987 232.561 367.213 234.008 365.72C235.454 364.18 237.158 362.99 239.118 362.15C241.078 361.263 243.248 360.82 245.628 360.82C248.101 360.82 250.271 361.263 252.138 362.15C254.051 362.99 255.638 364.133 256.898 365.58C258.204 366.98 259.184 368.59 259.838 370.41C260.491 372.23 260.818 374.073 260.818 375.94V378.88H233.658C233.658 379.767 233.821 380.91 234.148 382.31C234.521 383.663 235.174 384.993 236.108 386.3C237.041 387.607 238.278 388.727 239.818 389.66C241.404 390.593 243.434 391.06 245.908 391.06C248.054 391.06 250.131 390.547 252.138 389.52C254.144 388.493 255.684 387.093 256.758 385.32L259.838 387.91ZM256.618 375.1C256.618 373.653 256.314 372.3 255.708 371.04C255.148 369.78 254.354 368.683 253.328 367.75C252.348 366.77 251.158 366 249.758 365.44C248.404 364.88 246.958 364.6 245.418 364.6C243.131 364.6 241.218 365.067 239.678 366C238.184 366.933 236.994 368.007 236.108 369.22C235.221 370.433 234.591 371.623 234.218 372.79C233.844 373.91 233.658 374.68 233.658 375.1H256.618Z" fill="white"/>
</svg>
