<svg width="392" height="433" viewBox="0 0 392 433" fill="none" xmlns="http://www.w3.org/2000/svg">
<path fill-rule="evenodd" clip-rule="evenodd" d="M175.499 0L0 0L0 433H175.499V433.001C295.069 433.001 391.999 336.07 391.999 216.5C391.999 97.0976 295.34 0.270864 176 0.000567291V0L175.499 0Z" fill="#C300D3"/>
<path d="M29.57 369.22C29.57 365.44 30.2 361.963 31.46 358.79C32.72 355.617 34.47 352.887 36.71 350.6C38.95 348.267 41.6333 346.447 44.76 345.14C47.9333 343.833 51.41 343.18 55.19 343.18C58.97 343.18 62.4233 343.833 65.55 345.14C68.7233 346.447 71.43 348.267 73.67 350.6C75.91 352.887 77.66 355.617 78.92 358.79C80.18 361.963 80.81 365.44 80.81 369.22C80.81 373 80.18 376.5 78.92 379.72C77.66 382.893 75.91 385.647 73.67 387.98C71.43 390.267 68.7233 392.063 65.55 393.37C62.4233 394.63 58.97 395.26 55.19 395.26C51.41 395.26 47.9333 394.63 44.76 393.37C41.6333 392.063 38.95 390.267 36.71 387.98C34.47 385.647 32.72 382.893 31.46 379.72C30.2 376.5 29.57 373 29.57 369.22ZM34.19 369.22C34.19 372.3 34.68 375.17 35.66 377.83C36.64 380.49 38.04 382.8 39.86 384.76C41.68 386.72 43.8733 388.26 46.44 389.38C49.0533 390.5 51.97 391.06 55.19 391.06C58.41 391.06 61.3033 390.5 63.87 389.38C66.4833 388.26 68.7 386.72 70.52 384.76C72.34 382.8 73.74 380.49 74.72 377.83C75.7 375.17 76.19 372.3 76.19 369.22C76.19 366.14 75.7 363.27 74.72 360.61C73.74 357.95 72.34 355.64 70.52 353.68C68.7 351.72 66.4833 350.18 63.87 349.06C61.3033 347.94 58.41 347.38 55.19 347.38C51.97 347.38 49.0533 347.94 46.44 349.06C43.8733 350.18 41.68 351.72 39.86 353.68C38.04 355.64 36.64 357.95 35.66 360.61C34.68 363.27 34.19 366.14 34.19 369.22ZM89.0689 361.66H93.2689V367.33H93.4089C94.0622 366.21 94.8789 365.253 95.8589 364.46C96.8389 363.62 97.8889 362.943 99.0089 362.43C100.176 361.87 101.389 361.473 102.649 361.24C103.909 360.96 105.146 360.82 106.359 360.82C108.832 360.82 111.096 361.24 113.149 362.08C115.249 362.92 117.046 364.11 118.539 365.65C120.079 367.143 121.269 368.94 122.109 371.04C122.949 373.093 123.369 375.357 123.369 377.83C123.369 380.303 122.949 382.59 122.109 384.69C121.269 386.743 120.079 388.54 118.539 390.08C117.046 391.573 115.249 392.74 113.149 393.58C111.096 394.42 108.832 394.84 106.359 394.84C105.146 394.84 103.909 394.7 102.649 394.42C101.389 394.187 100.176 393.813 99.0089 393.3C97.8889 392.74 96.8389 392.063 95.8589 391.27C94.8789 390.43 94.0622 389.45 93.4089 388.33H93.2689V409.96H89.0689V361.66ZM92.8489 377.83C92.8489 379.65 93.1989 381.377 93.8989 383.01C94.5989 384.597 95.5556 385.997 96.7689 387.21C97.9822 388.377 99.4056 389.31 101.039 390.01C102.672 390.71 104.446 391.06 106.359 391.06C108.319 391.06 110.092 390.71 111.679 390.01C113.266 389.31 114.619 388.377 115.739 387.21C116.859 385.997 117.699 384.597 118.259 383.01C118.866 381.377 119.169 379.65 119.169 377.83C119.169 376.01 118.866 374.307 118.259 372.72C117.699 371.087 116.859 369.687 115.739 368.52C114.619 367.307 113.266 366.35 111.679 365.65C110.092 364.95 108.319 364.6 106.359 364.6C104.446 364.6 102.672 364.95 101.039 365.65C99.4056 366.35 97.9822 367.307 96.7689 368.52C95.5556 369.687 94.5989 371.087 93.8989 372.72C93.1989 374.307 92.8489 376.01 92.8489 377.83ZM161.332 387.91C159.699 390.383 157.669 392.157 155.242 393.23C152.862 394.303 150.225 394.84 147.332 394.84C144.859 394.84 142.619 394.42 140.612 393.58C138.605 392.74 136.879 391.573 135.432 390.08C133.985 388.54 132.865 386.743 132.072 384.69C131.325 382.59 130.952 380.28 130.952 377.76C130.952 375.333 131.349 373.093 132.142 371.04C132.935 368.987 134.055 367.213 135.502 365.72C136.949 364.18 138.652 362.99 140.612 362.15C142.572 361.263 144.742 360.82 147.122 360.82C149.595 360.82 151.765 361.263 153.632 362.15C155.545 362.99 157.132 364.133 158.392 365.58C159.699 366.98 160.679 368.59 161.332 370.41C161.985 372.23 162.312 374.073 162.312 375.94V378.88H135.152C135.152 379.767 135.315 380.91 135.642 382.31C136.015 383.663 136.669 384.993 137.602 386.3C138.535 387.607 139.772 388.727 141.312 389.66C142.899 390.593 144.929 391.06 147.402 391.06C149.549 391.06 151.625 390.547 153.632 389.52C155.639 388.493 157.179 387.093 158.252 385.32L161.332 387.91ZM158.112 375.1C158.112 373.653 157.809 372.3 157.202 371.04C156.642 369.78 155.849 368.683 154.822 367.75C153.842 366.77 152.652 366 151.252 365.44C149.899 364.88 148.452 364.6 146.912 364.6C144.625 364.6 142.712 365.067 141.172 366C139.679 366.933 138.489 368.007 137.602 369.22C136.715 370.433 136.085 371.623 135.712 372.79C135.339 373.91 135.152 374.68 135.152 375.1H158.112ZM149.852 344.44H155.452L146.072 354.52H142.572L149.852 344.44ZM171.668 370.76C171.668 370.153 171.645 369.43 171.598 368.59C171.552 367.703 171.505 366.817 171.458 365.93C171.458 365.043 171.435 364.227 171.388 363.48C171.342 362.687 171.318 362.08 171.318 361.66H175.518C175.565 362.873 175.588 364.04 175.588 365.16C175.635 366.28 175.705 367.003 175.798 367.33C176.872 365.417 178.248 363.853 179.928 362.64C181.608 361.427 183.662 360.82 186.088 360.82C186.508 360.82 186.905 360.867 187.278 360.96C187.698 361.007 188.118 361.077 188.538 361.17L188.048 365.3C187.488 365.113 186.952 365.02 186.438 365.02C184.618 365.02 183.032 365.323 181.678 365.93C180.372 366.49 179.275 367.283 178.388 368.31C177.548 369.337 176.918 370.55 176.498 371.95C176.078 373.303 175.868 374.773 175.868 376.36V394H171.668V370.76ZM220.109 380.42C220.109 382.007 220.109 383.43 220.109 384.69C220.156 385.95 220.202 387.117 220.249 388.19C220.296 389.263 220.342 390.267 220.389 391.2C220.482 392.133 220.599 393.067 220.739 394H216.819C216.539 392.413 216.399 390.663 216.399 388.75H216.259C215.046 390.85 213.529 392.39 211.709 393.37C209.936 394.35 207.672 394.84 204.919 394.84C203.519 394.84 202.142 394.653 200.789 394.28C199.436 393.953 198.222 393.417 197.149 392.67C196.076 391.877 195.189 390.873 194.489 389.66C193.836 388.447 193.509 386.977 193.509 385.25C193.509 382.777 194.139 380.817 195.399 379.37C196.659 377.923 198.199 376.85 200.019 376.15C201.886 375.403 203.846 374.937 205.899 374.75C207.999 374.517 209.842 374.4 211.429 374.4H216.329V372.44C216.329 369.64 215.466 367.633 213.739 366.42C212.012 365.207 209.842 364.6 207.229 364.6C203.496 364.6 200.206 365.813 197.359 368.24L194.909 365.37C196.449 363.877 198.362 362.757 200.649 362.01C202.936 361.217 205.129 360.82 207.229 360.82C211.149 360.82 214.276 361.753 216.609 363.62C218.942 365.44 220.109 368.403 220.109 372.51V380.42ZM211.709 377.76C209.936 377.76 208.209 377.877 206.529 378.11C204.896 378.343 203.402 378.74 202.049 379.3C200.742 379.86 199.692 380.607 198.899 381.54C198.106 382.473 197.709 383.64 197.709 385.04C197.709 386.02 197.919 386.907 198.339 387.7C198.806 388.447 199.389 389.077 200.089 389.59C200.789 390.057 201.559 390.43 202.399 390.71C203.286 390.943 204.172 391.06 205.059 391.06C207.299 391.06 209.142 390.733 210.589 390.08C212.036 389.427 213.179 388.587 214.019 387.56C214.906 386.487 215.512 385.297 215.839 383.99C216.166 382.637 216.329 381.283 216.329 379.93V377.76H211.709Z" fill="white"/>
</svg>
