<svg width="392" height="433" viewBox="0 0 392 433" fill="none" xmlns="http://www.w3.org/2000/svg">
<path fill-rule="evenodd" clip-rule="evenodd" d="M175.499 0L0 0L0 433H175.499V433.001C295.069 433.001 391.999 336.07 391.999 216.5C391.999 97.0976 295.34 0.270864 176 0.000567291V0L175.499 0Z" fill="black"/>
<path d="M32.16 344.44H47.49C51.7833 344.44 55.4233 344.977 58.41 346.05C61.3967 347.077 63.87 348.407 65.83 350.04C67.8367 351.673 69.4 353.493 70.52 355.5C71.6867 357.46 72.5267 359.35 73.04 361.17C73.6 362.99 73.95 364.647 74.09 366.14C74.23 367.587 74.3 368.613 74.3 369.22C74.3 369.827 74.23 370.877 74.09 372.37C73.95 373.817 73.6 375.45 73.04 377.27C72.5267 379.09 71.6867 381.003 70.52 383.01C69.4 384.97 67.8367 386.767 65.83 388.4C63.87 390.033 61.3967 391.387 58.41 392.46C55.4233 393.487 51.7833 394 47.49 394H32.16V344.44ZM36.78 389.8H46.3C49.5667 389.8 52.6233 389.403 55.47 388.61C58.3167 387.77 60.79 386.51 62.89 384.83C64.99 383.15 66.6467 381.027 67.86 378.46C69.0733 375.847 69.68 372.767 69.68 369.22C69.68 365.673 69.0733 362.617 67.86 360.05C66.6467 357.437 64.99 355.29 62.89 353.61C60.79 351.93 58.3167 350.693 55.47 349.9C52.6233 349.06 49.5667 348.64 46.3 348.64H36.78V389.8ZM108.615 380.42C108.615 382.007 108.615 383.43 108.615 384.69C108.661 385.95 108.708 387.117 108.755 388.19C108.801 389.263 108.848 390.267 108.895 391.2C108.988 392.133 109.105 393.067 109.245 394H105.325C105.045 392.413 104.905 390.663 104.905 388.75H104.765C103.551 390.85 102.035 392.39 100.215 393.37C98.4414 394.35 96.1781 394.84 93.4248 394.84C92.0248 394.84 90.6481 394.653 89.2948 394.28C87.9414 393.953 86.7281 393.417 85.6548 392.67C84.5814 391.877 83.6948 390.873 82.9948 389.66C82.3414 388.447 82.0148 386.977 82.0148 385.25C82.0148 382.777 82.6448 380.817 83.9048 379.37C85.1648 377.923 86.7048 376.85 88.5248 376.15C90.3914 375.403 92.3514 374.937 94.4048 374.75C96.5048 374.517 98.3481 374.4 99.9348 374.4H104.835V372.44C104.835 369.64 103.971 367.633 102.245 366.42C100.518 365.207 98.3481 364.6 95.7348 364.6C92.0014 364.6 88.7114 365.813 85.8648 368.24L83.4148 365.37C84.9548 363.877 86.8681 362.757 89.1548 362.01C91.4414 361.217 93.6348 360.82 95.7348 360.82C99.6548 360.82 102.781 361.753 105.115 363.62C107.448 365.44 108.615 368.403 108.615 372.51V380.42ZM100.215 377.76C98.4414 377.76 96.7148 377.877 95.0348 378.11C93.4014 378.343 91.9081 378.74 90.5548 379.3C89.2481 379.86 88.1981 380.607 87.4048 381.54C86.6114 382.473 86.2148 383.64 86.2148 385.04C86.2148 386.02 86.4248 386.907 86.8448 387.7C87.3114 388.447 87.8948 389.077 88.5948 389.59C89.2948 390.057 90.0648 390.43 90.9048 390.71C91.7914 390.943 92.6781 391.06 93.5648 391.06C95.8048 391.06 97.6481 390.733 99.0948 390.08C100.541 389.427 101.685 388.587 102.525 387.56C103.411 386.487 104.018 385.297 104.345 383.99C104.671 382.637 104.835 381.283 104.835 379.93V377.76H100.215ZM119.784 370.76C119.784 370.153 119.76 369.43 119.714 368.59C119.667 367.703 119.62 366.817 119.574 365.93C119.574 365.043 119.55 364.227 119.504 363.48C119.457 362.687 119.434 362.08 119.434 361.66H123.634C123.68 362.873 123.704 364.04 123.704 365.16C123.75 366.28 123.82 367.003 123.914 367.33H124.124C124.964 365.557 126.364 364.04 128.324 362.78C130.284 361.473 132.57 360.82 135.184 360.82C137.704 360.82 139.757 361.217 141.344 362.01C142.93 362.803 144.167 363.853 145.054 365.16C145.987 366.42 146.617 367.89 146.944 369.57C147.317 371.25 147.504 372.977 147.504 374.75V394H143.304V374.96C143.304 373.653 143.187 372.393 142.954 371.18C142.72 369.92 142.3 368.8 141.694 367.82C141.134 366.84 140.317 366.07 139.244 365.51C138.217 364.903 136.864 364.6 135.184 364.6C133.644 364.6 132.174 364.88 130.774 365.44C129.42 365.953 128.23 366.77 127.204 367.89C126.224 368.963 125.43 370.34 124.824 372.02C124.264 373.653 123.984 375.59 123.984 377.83V394H119.784V370.76ZM158.75 385.74C159.637 387.467 160.943 388.797 162.67 389.73C164.397 390.617 166.217 391.06 168.13 391.06C169.017 391.06 169.903 390.92 170.79 390.64C171.677 390.36 172.47 389.963 173.17 389.45C173.87 388.937 174.43 388.33 174.85 387.63C175.317 386.883 175.55 386.043 175.55 385.11C175.55 383.617 175.06 382.497 174.08 381.75C173.147 381.003 171.98 380.42 170.58 380C169.18 379.58 167.64 379.23 165.96 378.95C164.28 378.623 162.74 378.157 161.34 377.55C159.94 376.897 158.75 376.01 157.77 374.89C156.837 373.77 156.37 372.183 156.37 370.13C156.37 368.543 156.697 367.167 157.35 366C158.003 364.833 158.843 363.877 159.87 363.13C160.943 362.337 162.133 361.753 163.44 361.38C164.747 361.007 166.077 360.82 167.43 360.82C170.09 360.82 172.377 361.31 174.29 362.29C176.25 363.27 177.767 364.81 178.84 366.91L175.06 369.15C174.267 367.657 173.263 366.537 172.05 365.79C170.883 364.997 169.343 364.6 167.43 364.6C166.683 364.6 165.89 364.717 165.05 364.95C164.257 365.183 163.533 365.51 162.88 365.93C162.227 366.35 161.667 366.887 161.2 367.54C160.78 368.193 160.57 368.94 160.57 369.78C160.57 371.227 161.037 372.3 161.97 373C162.95 373.7 164.14 374.26 165.54 374.68C166.94 375.053 168.48 375.38 170.16 375.66C171.84 375.94 173.38 376.407 174.78 377.06C176.18 377.667 177.347 378.577 178.28 379.79C179.26 380.957 179.75 382.637 179.75 384.83C179.75 386.51 179.423 387.98 178.77 389.24C178.163 390.453 177.3 391.48 176.18 392.32C175.107 393.16 173.87 393.79 172.47 394.21C171.07 394.63 169.6 394.84 168.06 394.84C165.26 394.84 162.693 394.303 160.36 393.23C158.073 392.157 156.3 390.5 155.04 388.26L158.75 385.74ZM217.045 387.91C215.411 390.383 213.381 392.157 210.955 393.23C208.575 394.303 205.938 394.84 203.045 394.84C200.571 394.84 198.331 394.42 196.325 393.58C194.318 392.74 192.591 391.573 191.145 390.08C189.698 388.54 188.578 386.743 187.785 384.69C187.038 382.59 186.665 380.28 186.665 377.76C186.665 375.333 187.061 373.093 187.855 371.04C188.648 368.987 189.768 367.213 191.215 365.72C192.661 364.18 194.365 362.99 196.325 362.15C198.285 361.263 200.455 360.82 202.835 360.82C205.308 360.82 207.478 361.263 209.345 362.15C211.258 362.99 212.845 364.133 214.105 365.58C215.411 366.98 216.391 368.59 217.045 370.41C217.698 372.23 218.025 374.073 218.025 375.94V378.88H190.865C190.865 379.767 191.028 380.91 191.355 382.31C191.728 383.663 192.381 384.993 193.315 386.3C194.248 387.607 195.485 388.727 197.025 389.66C198.611 390.593 200.641 391.06 203.115 391.06C205.261 391.06 207.338 390.547 209.345 389.52C211.351 388.493 212.891 387.093 213.965 385.32L217.045 387.91ZM213.825 375.1C213.825 373.653 213.521 372.3 212.915 371.04C212.355 369.78 211.561 368.683 210.535 367.75C209.555 366.77 208.365 366 206.965 365.44C205.611 364.88 204.165 364.6 202.625 364.6C200.338 364.6 198.425 365.067 196.885 366C195.391 366.933 194.201 368.007 193.315 369.22C192.428 370.433 191.798 371.623 191.425 372.79C191.051 373.91 190.865 374.68 190.865 375.1H213.825Z" fill="white"/>
</svg>
