<svg width="432" height="433" viewBox="0 0 432 433" fill="none" xmlns="http://www.w3.org/2000/svg">
<path fill-rule="evenodd" clip-rule="evenodd" d="M216.5 0L432 0V433H216.5V433.001C96.9303 433.001 -0.000396729 336.07 -0.000396729 216.5C-0.000396729 97.0975 96.6598 0.270797 216 0.000567012V0L216.5 0Z" fill="black"/>
<path d="M142.3 344.44H149.23L167.29 386.02L185.35 344.44H191.93V394H187.31V350.32H187.17L168.27 394H166.24L147.06 350.32H146.92V394H142.3V344.44ZM231.177 384.9C231.177 385.507 231.2 386.253 231.247 387.14C231.294 387.98 231.317 388.843 231.317 389.73C231.364 390.617 231.41 391.457 231.457 392.25C231.504 392.997 231.527 393.58 231.527 394H227.327C227.28 392.787 227.234 391.62 227.187 390.5C227.187 389.38 227.14 388.657 227.047 388.33H226.837C225.997 390.103 224.597 391.643 222.637 392.95C220.677 394.21 218.39 394.84 215.777 394.84C213.257 394.84 211.18 394.443 209.547 393.65C207.96 392.857 206.7 391.83 205.767 390.57C204.88 389.263 204.274 387.77 203.947 386.09C203.62 384.41 203.457 382.683 203.457 380.91V361.66H207.657V380.7C207.657 382.007 207.774 383.29 208.007 384.55C208.24 385.763 208.637 386.86 209.197 387.84C209.804 388.82 210.62 389.613 211.647 390.22C212.72 390.78 214.097 391.06 215.777 391.06C217.317 391.06 218.764 390.803 220.117 390.29C221.517 389.73 222.707 388.913 223.687 387.84C224.714 386.72 225.507 385.343 226.067 383.71C226.674 382.03 226.977 380.07 226.977 377.83V361.66H231.177V384.9ZM242.774 385.74C243.66 387.467 244.967 388.797 246.694 389.73C248.42 390.617 250.24 391.06 252.154 391.06C253.04 391.06 253.927 390.92 254.814 390.64C255.7 390.36 256.494 389.963 257.194 389.45C257.894 388.937 258.454 388.33 258.874 387.63C259.34 386.883 259.574 386.043 259.574 385.11C259.574 383.617 259.084 382.497 258.104 381.75C257.17 381.003 256.004 380.42 254.604 380C253.204 379.58 251.664 379.23 249.984 378.95C248.304 378.623 246.764 378.157 245.364 377.55C243.964 376.897 242.774 376.01 241.794 374.89C240.86 373.77 240.394 372.183 240.394 370.13C240.394 368.543 240.72 367.167 241.374 366C242.027 364.833 242.867 363.877 243.894 363.13C244.967 362.337 246.157 361.753 247.464 361.38C248.77 361.007 250.1 360.82 251.454 360.82C254.114 360.82 256.4 361.31 258.314 362.29C260.274 363.27 261.79 364.81 262.864 366.91L259.084 369.15C258.29 367.657 257.287 366.537 256.074 365.79C254.907 364.997 253.367 364.6 251.454 364.6C250.707 364.6 249.914 364.717 249.074 364.95C248.28 365.183 247.557 365.51 246.904 365.93C246.25 366.35 245.69 366.887 245.224 367.54C244.804 368.193 244.594 368.94 244.594 369.78C244.594 371.227 245.06 372.3 245.994 373C246.974 373.7 248.164 374.26 249.564 374.68C250.964 375.053 252.504 375.38 254.184 375.66C255.864 375.94 257.404 376.407 258.804 377.06C260.204 377.667 261.37 378.577 262.304 379.79C263.284 380.957 263.774 382.637 263.774 384.83C263.774 386.51 263.447 387.98 262.794 389.24C262.187 390.453 261.324 391.48 260.204 392.32C259.13 393.16 257.894 393.79 256.494 394.21C255.094 394.63 253.624 394.84 252.084 394.84C249.284 394.84 246.717 394.303 244.384 393.23C242.097 392.157 240.324 390.5 239.064 388.26L242.774 385.74ZM273.208 361.66H277.408V394H273.208V361.66ZM272.158 348.85C272.158 347.963 272.462 347.217 273.068 346.61C273.675 346.003 274.422 345.7 275.308 345.7C276.195 345.7 276.942 346.003 277.548 346.61C278.155 347.217 278.458 347.963 278.458 348.85C278.458 349.737 278.155 350.483 277.548 351.09C276.942 351.697 276.195 352 275.308 352C274.422 352 273.675 351.697 273.068 351.09C272.462 350.483 272.158 349.737 272.158 348.85ZM317.605 388.33H317.465C316.811 389.45 315.995 390.43 315.015 391.27C314.035 392.063 312.961 392.74 311.795 393.3C310.675 393.813 309.485 394.187 308.225 394.42C306.965 394.7 305.728 394.84 304.515 394.84C302.041 394.84 299.755 394.42 297.655 393.58C295.555 392.74 293.758 391.573 292.265 390.08C290.771 388.54 289.605 386.743 288.765 384.69C287.925 382.59 287.505 380.303 287.505 377.83C287.505 375.357 287.925 373.093 288.765 371.04C289.605 368.94 290.771 367.143 292.265 365.65C293.758 364.11 295.555 362.92 297.655 362.08C299.755 361.24 302.041 360.82 304.515 360.82C305.728 360.82 306.965 360.96 308.225 361.24C309.485 361.473 310.675 361.87 311.795 362.43C312.961 362.943 314.035 363.62 315.015 364.46C315.995 365.253 316.811 366.21 317.465 367.33H317.605V361.66H321.805V409.96H317.605V388.33ZM318.025 377.83C318.025 376.01 317.675 374.307 316.975 372.72C316.275 371.087 315.318 369.687 314.105 368.52C312.891 367.307 311.468 366.35 309.835 365.65C308.201 364.95 306.428 364.6 304.515 364.6C302.555 364.6 300.781 364.95 299.195 365.65C297.608 366.35 296.255 367.307 295.135 368.52C294.015 369.687 293.151 371.087 292.545 372.72C291.985 374.307 291.705 376.01 291.705 377.83C291.705 379.65 291.985 381.377 292.545 383.01C293.151 384.597 294.015 385.997 295.135 387.21C296.255 388.377 297.608 389.31 299.195 390.01C300.781 390.71 302.555 391.06 304.515 391.06C306.428 391.06 308.201 390.71 309.835 390.01C311.468 389.31 312.891 388.377 314.105 387.21C315.318 385.997 316.275 384.597 316.975 383.01C317.675 381.377 318.025 379.65 318.025 377.83ZM359.488 384.9C359.488 385.507 359.511 386.253 359.558 387.14C359.604 387.98 359.628 388.843 359.628 389.73C359.674 390.617 359.721 391.457 359.768 392.25C359.814 392.997 359.838 393.58 359.838 394H355.638C355.591 392.787 355.544 391.62 355.498 390.5C355.498 389.38 355.451 388.657 355.358 388.33H355.148C354.308 390.103 352.908 391.643 350.948 392.95C348.988 394.21 346.701 394.84 344.088 394.84C341.568 394.84 339.491 394.443 337.858 393.65C336.271 392.857 335.011 391.83 334.078 390.57C333.191 389.263 332.584 387.77 332.258 386.09C331.931 384.41 331.768 382.683 331.768 380.91V361.66H335.968V380.7C335.968 382.007 336.084 383.29 336.318 384.55C336.551 385.763 336.948 386.86 337.508 387.84C338.114 388.82 338.931 389.613 339.958 390.22C341.031 390.78 342.408 391.06 344.088 391.06C345.628 391.06 347.074 390.803 348.428 390.29C349.828 389.73 351.018 388.913 351.998 387.84C353.024 386.72 353.818 385.343 354.378 383.71C354.984 382.03 355.288 380.07 355.288 377.83V361.66H359.488V384.9ZM399.574 387.91C397.941 390.383 395.911 392.157 393.484 393.23C391.104 394.303 388.467 394.84 385.574 394.84C383.101 394.84 380.861 394.42 378.854 393.58C376.847 392.74 375.121 391.573 373.674 390.08C372.227 388.54 371.107 386.743 370.314 384.69C369.567 382.59 369.194 380.28 369.194 377.76C369.194 375.333 369.591 373.093 370.384 371.04C371.177 368.987 372.297 367.213 373.744 365.72C375.191 364.18 376.894 362.99 378.854 362.15C380.814 361.263 382.984 360.82 385.364 360.82C387.837 360.82 390.007 361.263 391.874 362.15C393.787 362.99 395.374 364.133 396.634 365.58C397.941 366.98 398.921 368.59 399.574 370.41C400.227 372.23 400.554 374.073 400.554 375.94V378.88H373.394C373.394 379.767 373.557 380.91 373.884 382.31C374.257 383.663 374.911 384.993 375.844 386.3C376.777 387.607 378.014 388.727 379.554 389.66C381.141 390.593 383.171 391.06 385.644 391.06C387.791 391.06 389.867 390.547 391.874 389.52C393.881 388.493 395.421 387.093 396.494 385.32L399.574 387.91ZM396.354 375.1C396.354 373.653 396.051 372.3 395.444 371.04C394.884 369.78 394.091 368.683 393.064 367.75C392.084 366.77 390.894 366 389.494 365.44C388.141 364.88 386.694 364.6 385.154 364.6C382.867 364.6 380.954 365.067 379.414 366C377.921 366.933 376.731 368.007 375.844 369.22C374.957 370.433 374.327 371.623 373.954 372.79C373.581 373.91 373.394 374.68 373.394 375.1H396.354Z" fill="white"/>
</svg>
