<svg width="44" height="44" viewBox="0 0 44 44" fill="none" xmlns="http://www.w3.org/2000/svg">
<rect width="44" height="44" fill="black"/>
<path d="M29.9597 13.1279C29.0295 13.1279 28.2749 13.8826 28.2749 14.8128C28.2749 15.743 29.0295 16.4977 29.9597 16.4977C30.8899 16.4977 31.6446 15.743 31.6446 14.8128C31.6446 13.8826 30.8899 13.1279 29.9597 13.1279Z" fill="white"/>
<path d="M22.4762 15.2871C18.5764 15.2871 15.4067 18.4603 15.4067 22.3565C15.4067 26.2528 18.58 29.426 22.4762 29.426C26.3725 29.426 29.5456 26.2528 29.5456 22.3565C29.5456 18.4603 26.3725 15.2871 22.4762 15.2871ZM22.4762 26.8881C19.977 26.8881 17.9481 24.8557 17.9481 22.36C17.9481 19.8643 19.9805 17.832 22.4762 17.832C24.9719 17.832 27.0043 19.8643 27.0043 22.36C27.0043 24.8557 24.9719 26.8881 22.4762 26.8881Z" fill="white"/>
<path d="M28.0885 36.7129H16.6244C11.8681 36.7129 8 32.8448 8 28.0885V16.6244C8 11.8682 11.8681 8 16.6244 8H28.0885C32.8448 8 36.713 11.8682 36.713 16.6244V28.0885C36.713 32.8448 32.8448 36.7129 28.0885 36.7129ZM16.6244 10.7028C13.3599 10.7028 10.7028 13.36 10.7028 16.6244V28.0885C10.7028 31.353 13.3599 34.0101 16.6244 34.0101H28.0885C31.3529 34.0101 34.0101 31.353 34.0101 28.0885V16.6244C34.0101 13.3565 31.3529 10.7028 28.0885 10.7028H16.6244Z" fill="white"/>
</svg>
