<svg width="741" height="433" viewBox="0 0 741 433" fill="none" xmlns="http://www.w3.org/2000/svg">
<path fill-rule="evenodd" clip-rule="evenodd" d="M524.499 0L326 0V433H524.499V433.001C524.708 433.001 524.916 433.001 525.125 433H527V432.987C645.418 431.646 740.999 335.236 740.999 216.5C740.999 97.7653 645.418 1.35453 527 0.0141481V0L524.499 0Z" fill="black"/>
<path d="M378.61 94.9C378.61 96.3933 378.353 97.7467 377.84 98.96C377.327 100.15 376.627 101.165 375.74 102.005C374.853 102.845 373.803 103.498 372.59 103.965C371.377 104.408 370.058 104.63 368.635 104.63C367.212 104.63 365.893 104.408 364.68 103.965C363.467 103.498 362.405 102.845 361.495 102.005C360.608 101.165 359.908 100.15 359.395 98.96C358.905 97.7467 358.66 96.3933 358.66 94.9V79.22H363.07V94.76C363.07 95.3667 363.163 96.0083 363.35 96.685C363.537 97.3383 363.84 97.945 364.26 98.505C364.703 99.065 365.275 99.5317 365.975 99.905C366.698 100.255 367.585 100.43 368.635 100.43C369.685 100.43 370.56 100.255 371.26 99.905C371.983 99.5317 372.555 99.065 372.975 98.505C373.418 97.945 373.733 97.3383 373.92 96.685C374.107 96.0083 374.2 95.3667 374.2 94.76V79.22H378.61V94.9ZM383.639 87.2H387.629V89.895H387.699C388.095 89.055 388.702 88.3317 389.519 87.725C390.335 87.095 391.444 86.78 392.844 86.78C393.964 86.78 394.909 86.9667 395.679 87.34C396.472 87.7133 397.114 88.2033 397.604 88.81C398.094 89.4167 398.444 90.1167 398.654 90.91C398.864 91.7033 398.969 92.5317 398.969 93.395V104H394.769V95.495C394.769 95.0283 394.745 94.515 394.699 93.955C394.652 93.3717 394.524 92.835 394.314 92.345C394.127 91.8317 393.824 91.4117 393.404 91.085C392.984 90.735 392.412 90.56 391.689 90.56C390.989 90.56 390.394 90.6767 389.904 90.91C389.437 91.1433 389.04 91.4583 388.714 91.855C388.41 92.2517 388.189 92.7067 388.049 93.22C387.909 93.7333 387.839 94.27 387.839 94.83V104H383.639V87.2ZM414.093 87.2H418.293V89.86H418.363C418.83 88.88 419.495 88.1217 420.358 87.585C421.221 87.0483 422.213 86.78 423.333 86.78C423.59 86.78 423.835 86.8033 424.068 86.85C424.325 86.8967 424.581 86.955 424.838 87.025V91.085C424.488 90.9917 424.138 90.9217 423.788 90.875C423.461 90.805 423.135 90.77 422.808 90.77C421.828 90.77 421.035 90.9567 420.428 91.33C419.845 91.68 419.39 92.0883 419.063 92.555C418.76 93.0217 418.55 93.4883 418.433 93.955C418.34 94.4217 418.293 94.7717 418.293 95.005V104H414.093V87.2ZM430.441 97.07C430.581 98.33 431.071 99.31 431.911 100.01C432.751 100.71 433.766 101.06 434.956 101.06C436.006 101.06 436.881 100.85 437.581 100.43C438.305 99.9867 438.935 99.4383 439.471 98.785L442.481 101.06C441.501 102.273 440.405 103.137 439.191 103.65C437.978 104.163 436.706 104.42 435.376 104.42C434.116 104.42 432.926 104.21 431.806 103.79C430.686 103.37 429.718 102.775 428.901 102.005C428.085 101.235 427.431 100.313 426.941 99.24C426.475 98.1433 426.241 96.93 426.241 95.6C426.241 94.27 426.475 93.0683 426.941 91.995C427.431 90.8983 428.085 89.965 428.901 89.195C429.718 88.425 430.686 87.83 431.806 87.41C432.926 86.99 434.116 86.78 435.376 86.78C436.543 86.78 437.605 86.99 438.561 87.41C439.541 87.8067 440.37 88.39 441.046 89.16C441.746 89.93 442.283 90.8867 442.656 92.03C443.053 93.15 443.251 94.445 443.251 95.915V97.07H430.441ZM439.051 93.92C439.028 92.6833 438.643 91.715 437.896 91.015C437.15 90.2917 436.111 89.93 434.781 89.93C433.521 89.93 432.518 90.2917 431.771 91.015C431.048 91.7383 430.605 92.7067 430.441 93.92H439.051ZM436.566 79.22H441.326L436.391 84.26H433.101L436.566 79.22ZM456.139 91.855C455.322 90.7117 454.225 90.14 452.849 90.14C452.289 90.14 451.74 90.28 451.204 90.56C450.667 90.84 450.399 91.295 450.399 91.925C450.399 92.4383 450.62 92.8117 451.064 93.045C451.507 93.2783 452.067 93.4767 452.744 93.64C453.42 93.8033 454.144 93.9783 454.914 94.165C455.707 94.3283 456.442 94.5967 457.119 94.97C457.795 95.32 458.355 95.81 458.799 96.44C459.242 97.07 459.464 97.9333 459.464 99.03C459.464 100.033 459.242 100.885 458.799 101.585C458.379 102.262 457.819 102.81 457.119 103.23C456.442 103.65 455.672 103.953 454.809 104.14C453.945 104.327 453.082 104.42 452.219 104.42C450.912 104.42 449.71 104.233 448.614 103.86C447.517 103.487 446.537 102.81 445.674 101.83L448.474 99.205C449.01 99.8117 449.582 100.313 450.189 100.71C450.819 101.083 451.577 101.27 452.464 101.27C452.767 101.27 453.082 101.235 453.409 101.165C453.735 101.095 454.039 100.978 454.319 100.815C454.599 100.652 454.82 100.453 454.984 100.22C455.17 99.9633 455.264 99.6717 455.264 99.345C455.264 98.7617 455.042 98.33 454.599 98.05C454.155 97.77 453.595 97.5483 452.919 97.385C452.242 97.1983 451.507 97.035 450.714 96.895C449.944 96.7317 449.22 96.4867 448.544 96.16C447.867 95.81 447.307 95.3317 446.864 94.725C446.42 94.1183 446.199 93.2783 446.199 92.205C446.199 91.2717 446.385 90.4667 446.759 89.79C447.155 89.09 447.669 88.5183 448.299 88.075C448.929 87.6317 449.652 87.305 450.469 87.095C451.285 86.885 452.114 86.78 452.954 86.78C454.074 86.78 455.182 86.9783 456.279 87.375C457.375 87.7483 458.262 88.4017 458.939 89.335L456.139 91.855ZM466.091 97.07C466.231 98.33 466.721 99.31 467.561 100.01C468.401 100.71 469.416 101.06 470.606 101.06C471.656 101.06 472.531 100.85 473.231 100.43C473.954 99.9867 474.584 99.4383 475.121 98.785L478.131 101.06C477.151 102.273 476.054 103.137 474.841 103.65C473.627 104.163 472.356 104.42 471.026 104.42C469.766 104.42 468.576 104.21 467.456 103.79C466.336 103.37 465.367 102.775 464.551 102.005C463.734 101.235 463.081 100.313 462.591 99.24C462.124 98.1433 461.891 96.93 461.891 95.6C461.891 94.27 462.124 93.0683 462.591 91.995C463.081 90.8983 463.734 89.965 464.551 89.195C465.367 88.425 466.336 87.83 467.456 87.41C468.576 86.99 469.766 86.78 471.026 86.78C472.192 86.78 473.254 86.99 474.211 87.41C475.191 87.8067 476.019 88.39 476.696 89.16C477.396 89.93 477.932 90.8867 478.306 92.03C478.702 93.15 478.901 94.445 478.901 95.915V97.07H466.091ZM474.701 93.92C474.677 92.6833 474.292 91.715 473.546 91.015C472.799 90.2917 471.761 89.93 470.431 89.93C469.171 89.93 468.167 90.2917 467.421 91.015C466.697 91.7383 466.254 92.7067 466.091 93.92H474.701ZM493.328 101.69H493.223C492.617 102.647 491.847 103.347 490.913 103.79C489.98 104.21 488.953 104.42 487.833 104.42C487.063 104.42 486.305 104.315 485.558 104.105C484.835 103.895 484.182 103.58 483.598 103.16C483.038 102.74 482.583 102.215 482.233 101.585C481.883 100.955 481.708 100.22 481.708 99.38C481.708 98.47 481.872 97.7 482.198 97.07C482.525 96.4167 482.957 95.88 483.493 95.46C484.053 95.0167 484.695 94.6667 485.418 94.41C486.142 94.1533 486.888 93.9667 487.658 93.85C488.452 93.71 489.245 93.6283 490.038 93.605C490.832 93.5583 491.578 93.535 492.278 93.535H493.328V93.08C493.328 92.03 492.967 91.2483 492.243 90.735C491.52 90.1983 490.598 89.93 489.478 89.93C488.592 89.93 487.763 90.0933 486.993 90.42C486.223 90.7233 485.558 91.1433 484.998 91.68L482.793 89.475C483.727 88.5183 484.812 87.83 486.048 87.41C487.308 86.99 488.603 86.78 489.933 86.78C491.123 86.78 492.127 86.92 492.943 87.2C493.76 87.4567 494.437 87.795 494.973 88.215C495.51 88.635 495.918 89.125 496.198 89.685C496.502 90.2217 496.712 90.77 496.828 91.33C496.968 91.89 497.05 92.4383 497.073 92.975C497.097 93.4883 497.108 93.9433 497.108 94.34V104H493.328V101.69ZM493.083 96.475H492.208C491.625 96.475 490.972 96.4983 490.248 96.545C489.525 96.5917 488.837 96.7083 488.183 96.895C487.553 97.0583 487.017 97.315 486.573 97.665C486.13 97.9917 485.908 98.4583 485.908 99.065C485.908 99.4617 485.99 99.8 486.153 100.08C486.34 100.337 486.573 100.558 486.853 100.745C487.133 100.932 487.448 101.072 487.798 101.165C488.148 101.235 488.498 101.27 488.848 101.27C490.295 101.27 491.357 100.932 492.033 100.255C492.733 99.555 493.083 98.61 493.083 97.42V96.475ZM516.957 104H512.967V101.305H512.897C512.5 102.145 511.894 102.88 511.077 103.51C510.26 104.117 509.152 104.42 507.752 104.42C506.632 104.42 505.675 104.245 504.882 103.895C504.112 103.522 503.482 103.032 502.992 102.425C502.502 101.795 502.152 101.083 501.942 100.29C501.732 99.4967 501.627 98.6683 501.627 97.805V87.2H505.827V95.705C505.827 96.1717 505.85 96.6967 505.897 97.28C505.944 97.84 506.06 98.3767 506.247 98.89C506.457 99.38 506.76 99.8 507.157 100.15C507.577 100.477 508.16 100.64 508.907 100.64C509.607 100.64 510.19 100.523 510.657 100.29C511.147 100.057 511.544 99.7417 511.847 99.345C512.174 98.9483 512.407 98.4933 512.547 97.98C512.687 97.4667 512.757 96.93 512.757 96.37V87.2H516.957V104ZM368.88 146.69H368.775C368.168 147.647 367.398 148.347 366.465 148.79C365.532 149.21 364.505 149.42 363.385 149.42C362.615 149.42 361.857 149.315 361.11 149.105C360.387 148.895 359.733 148.58 359.15 148.16C358.59 147.74 358.135 147.215 357.785 146.585C357.435 145.955 357.26 145.22 357.26 144.38C357.26 143.47 357.423 142.7 357.75 142.07C358.077 141.417 358.508 140.88 359.045 140.46C359.605 140.017 360.247 139.667 360.97 139.41C361.693 139.153 362.44 138.967 363.21 138.85C364.003 138.71 364.797 138.628 365.59 138.605C366.383 138.558 367.13 138.535 367.83 138.535H368.88V138.08C368.88 137.03 368.518 136.248 367.795 135.735C367.072 135.198 366.15 134.93 365.03 134.93C364.143 134.93 363.315 135.093 362.545 135.42C361.775 135.723 361.11 136.143 360.55 136.68L358.345 134.475C359.278 133.518 360.363 132.83 361.6 132.41C362.86 131.99 364.155 131.78 365.485 131.78C366.675 131.78 367.678 131.92 368.495 132.2C369.312 132.457 369.988 132.795 370.525 133.215C371.062 133.635 371.47 134.125 371.75 134.685C372.053 135.222 372.263 135.77 372.38 136.33C372.52 136.89 372.602 137.438 372.625 137.975C372.648 138.488 372.66 138.943 372.66 139.34V149H368.88V146.69ZM368.635 141.475H367.76C367.177 141.475 366.523 141.498 365.8 141.545C365.077 141.592 364.388 141.708 363.735 141.895C363.105 142.058 362.568 142.315 362.125 142.665C361.682 142.992 361.46 143.458 361.46 144.065C361.46 144.462 361.542 144.8 361.705 145.08C361.892 145.337 362.125 145.558 362.405 145.745C362.685 145.932 363 146.072 363.35 146.165C363.7 146.235 364.05 146.27 364.4 146.27C365.847 146.27 366.908 145.932 367.585 145.255C368.285 144.555 368.635 143.61 368.635 142.42V141.475ZM377.179 132.2H381.379V134.86H381.449C381.915 133.88 382.58 133.122 383.444 132.585C384.307 132.048 385.299 131.78 386.419 131.78C386.675 131.78 386.92 131.803 387.154 131.85C387.41 131.897 387.667 131.955 387.924 132.025V136.085C387.574 135.992 387.224 135.922 386.874 135.875C386.547 135.805 386.22 135.77 385.894 135.77C384.914 135.77 384.12 135.957 383.514 136.33C382.93 136.68 382.475 137.088 382.149 137.555C381.845 138.022 381.635 138.488 381.519 138.955C381.425 139.422 381.379 139.772 381.379 140.005V149H377.179V132.2ZM388.822 135.77V132.2H392.287V127.335H396.487V132.2H401.107V135.77H396.487V143.12C396.487 143.96 396.639 144.625 396.942 145.115C397.269 145.605 397.899 145.85 398.832 145.85C399.206 145.85 399.614 145.815 400.057 145.745C400.501 145.652 400.851 145.512 401.107 145.325V148.86C400.664 149.07 400.116 149.21 399.462 149.28C398.832 149.373 398.272 149.42 397.782 149.42C396.662 149.42 395.741 149.292 395.017 149.035C394.317 148.802 393.757 148.44 393.337 147.95C392.941 147.437 392.661 146.807 392.497 146.06C392.357 145.313 392.287 144.45 392.287 143.47V135.77H388.822ZM404.49 132.2H408.69V149H404.49V132.2ZM403.895 126.495C403.895 125.818 404.14 125.235 404.63 124.745C405.143 124.232 405.785 123.975 406.555 123.975C407.325 123.975 407.967 124.22 408.48 124.71C409.017 125.177 409.285 125.772 409.285 126.495C409.285 127.218 409.017 127.825 408.48 128.315C407.967 128.782 407.325 129.015 406.555 129.015C405.785 129.015 405.143 128.77 404.63 128.28C404.14 127.767 403.895 127.172 403.895 126.495ZM422.472 136.855C421.655 135.712 420.559 135.14 419.182 135.14C418.622 135.14 418.074 135.28 417.537 135.56C417 135.84 416.732 136.295 416.732 136.925C416.732 137.438 416.954 137.812 417.397 138.045C417.84 138.278 418.4 138.477 419.077 138.64C419.754 138.803 420.477 138.978 421.247 139.165C422.04 139.328 422.775 139.597 423.452 139.97C424.129 140.32 424.689 140.81 425.132 141.44C425.575 142.07 425.797 142.933 425.797 144.03C425.797 145.033 425.575 145.885 425.132 146.585C424.712 147.262 424.152 147.81 423.452 148.23C422.775 148.65 422.005 148.953 421.142 149.14C420.279 149.327 419.415 149.42 418.552 149.42C417.245 149.42 416.044 149.233 414.947 148.86C413.85 148.487 412.87 147.81 412.007 146.83L414.807 144.205C415.344 144.812 415.915 145.313 416.522 145.71C417.152 146.083 417.91 146.27 418.797 146.27C419.1 146.27 419.415 146.235 419.742 146.165C420.069 146.095 420.372 145.978 420.652 145.815C420.932 145.652 421.154 145.453 421.317 145.22C421.504 144.963 421.597 144.672 421.597 144.345C421.597 143.762 421.375 143.33 420.932 143.05C420.489 142.77 419.929 142.548 419.252 142.385C418.575 142.198 417.84 142.035 417.047 141.895C416.277 141.732 415.554 141.487 414.877 141.16C414.2 140.81 413.64 140.332 413.197 139.725C412.754 139.118 412.532 138.278 412.532 137.205C412.532 136.272 412.719 135.467 413.092 134.79C413.489 134.09 414.002 133.518 414.632 133.075C415.262 132.632 415.985 132.305 416.802 132.095C417.619 131.885 418.447 131.78 419.287 131.78C420.407 131.78 421.515 131.978 422.612 132.375C423.709 132.748 424.595 133.402 425.272 134.335L422.472 136.855ZM427.104 135.77V132.2H430.569V127.335H434.769V132.2H439.389V135.77H434.769V143.12C434.769 143.96 434.92 144.625 435.224 145.115C435.55 145.605 436.18 145.85 437.114 145.85C437.487 145.85 437.895 145.815 438.339 145.745C438.782 145.652 439.132 145.512 439.389 145.325V148.86C438.945 149.07 438.397 149.21 437.744 149.28C437.114 149.373 436.554 149.42 436.064 149.42C434.944 149.42 434.022 149.292 433.299 149.035C432.599 148.802 432.039 148.44 431.619 147.95C431.222 147.437 430.942 146.807 430.779 146.06C430.639 145.313 430.569 144.45 430.569 143.47V135.77H427.104ZM442.771 132.2H446.971V149H442.771V132.2ZM442.176 126.495C442.176 125.818 442.421 125.235 442.911 124.745C443.425 124.232 444.066 123.975 444.836 123.975C445.606 123.975 446.248 124.22 446.761 124.71C447.298 125.177 447.566 125.772 447.566 126.495C447.566 127.218 447.298 127.825 446.761 128.315C446.248 128.782 445.606 129.015 444.836 129.015C444.066 129.015 443.425 128.77 442.911 128.28C442.421 127.767 442.176 127.172 442.176 126.495ZM469.083 156.98H464.883V146.865H464.778C464.568 147.145 464.3 147.437 463.973 147.74C463.646 148.02 463.25 148.288 462.783 148.545C462.316 148.802 461.78 149.012 461.173 149.175C460.566 149.338 459.866 149.42 459.073 149.42C457.883 149.42 456.786 149.198 455.783 148.755C454.78 148.288 453.916 147.658 453.193 146.865C452.493 146.072 451.945 145.138 451.548 144.065C451.151 142.992 450.953 141.837 450.953 140.6C450.953 139.363 451.14 138.208 451.513 137.135C451.886 136.062 452.435 135.128 453.158 134.335C453.881 133.542 454.745 132.923 455.748 132.48C456.775 132.013 457.941 131.78 459.248 131.78C460.438 131.78 461.546 132.013 462.573 132.48C463.6 132.947 464.416 133.693 465.023 134.72H465.093V132.2H469.083V156.98ZM455.153 140.6C455.153 141.253 455.258 141.883 455.468 142.49C455.701 143.097 456.028 143.633 456.448 144.1C456.891 144.567 457.416 144.94 458.023 145.22C458.63 145.5 459.318 145.64 460.088 145.64C460.858 145.64 461.546 145.5 462.153 145.22C462.76 144.94 463.273 144.567 463.693 144.1C464.136 143.633 464.463 143.097 464.673 142.49C464.906 141.883 465.023 141.253 465.023 140.6C465.023 139.947 464.906 139.317 464.673 138.71C464.463 138.103 464.136 137.567 463.693 137.1C463.273 136.633 462.76 136.26 462.153 135.98C461.546 135.7 460.858 135.56 460.088 135.56C459.318 135.56 458.63 135.7 458.023 135.98C457.416 136.26 456.891 136.633 456.448 137.1C456.028 137.567 455.701 138.103 455.468 138.71C455.258 139.317 455.153 139.947 455.153 140.6ZM489.169 149H485.179V146.305H485.109C484.712 147.145 484.106 147.88 483.289 148.51C482.472 149.117 481.364 149.42 479.964 149.42C478.844 149.42 477.887 149.245 477.094 148.895C476.324 148.522 475.694 148.032 475.204 147.425C474.714 146.795 474.364 146.083 474.154 145.29C473.944 144.497 473.839 143.668 473.839 142.805V132.2H478.039V140.705C478.039 141.172 478.062 141.697 478.109 142.28C478.156 142.84 478.272 143.377 478.459 143.89C478.669 144.38 478.972 144.8 479.369 145.15C479.789 145.477 480.372 145.64 481.119 145.64C481.819 145.64 482.402 145.523 482.869 145.29C483.359 145.057 483.756 144.742 484.059 144.345C484.386 143.948 484.619 143.493 484.759 142.98C484.899 142.467 484.969 141.93 484.969 141.37V132.2H489.169V149ZM497.297 142.07C497.437 143.33 497.927 144.31 498.767 145.01C499.607 145.71 500.622 146.06 501.812 146.06C502.862 146.06 503.737 145.85 504.437 145.43C505.16 144.987 505.79 144.438 506.327 143.785L509.337 146.06C508.357 147.273 507.26 148.137 506.047 148.65C504.833 149.163 503.562 149.42 502.232 149.42C500.972 149.42 499.782 149.21 498.662 148.79C497.542 148.37 496.573 147.775 495.757 147.005C494.94 146.235 494.287 145.313 493.797 144.24C493.33 143.143 493.097 141.93 493.097 140.6C493.097 139.27 493.33 138.068 493.797 136.995C494.287 135.898 494.94 134.965 495.757 134.195C496.573 133.425 497.542 132.83 498.662 132.41C499.782 131.99 500.972 131.78 502.232 131.78C503.398 131.78 504.46 131.99 505.417 132.41C506.397 132.807 507.225 133.39 507.902 134.16C508.602 134.93 509.138 135.887 509.512 137.03C509.908 138.15 510.107 139.445 510.107 140.915V142.07H497.297ZM505.907 138.92C505.883 137.683 505.498 136.715 504.752 136.015C504.005 135.292 502.967 134.93 501.637 134.93C500.377 134.93 499.373 135.292 498.627 136.015C497.903 136.738 497.46 137.707 497.297 138.92H505.907ZM524.216 132.2H528.206V134.825H528.276C528.649 134.032 529.244 133.332 530.061 132.725C530.901 132.095 532.021 131.78 533.421 131.78C536.057 131.78 537.807 132.818 538.671 134.895C539.277 133.822 540.036 133.04 540.946 132.55C541.856 132.037 542.941 131.78 544.201 131.78C545.321 131.78 546.266 131.967 547.036 132.34C547.806 132.713 548.424 133.227 548.891 133.88C549.381 134.533 549.731 135.303 549.941 136.19C550.151 137.053 550.256 137.987 550.256 138.99V149H546.056V139.48C546.056 138.967 546.009 138.477 545.916 138.01C545.822 137.52 545.659 137.1 545.426 136.75C545.192 136.377 544.877 136.085 544.481 135.875C544.084 135.665 543.571 135.56 542.941 135.56C542.287 135.56 541.727 135.688 541.261 135.945C540.817 136.178 540.444 136.505 540.141 136.925C539.861 137.322 539.651 137.788 539.511 138.325C539.394 138.838 539.336 139.363 539.336 139.9V149H535.136V138.99C535.136 137.94 534.914 137.112 534.471 136.505C534.027 135.875 533.292 135.56 532.266 135.56C531.566 135.56 530.971 135.677 530.481 135.91C530.014 136.143 529.617 136.458 529.291 136.855C528.987 137.252 528.766 137.707 528.626 138.22C528.486 138.733 528.416 139.27 528.416 139.83V149H524.216V132.2ZM554.005 140.6C554.005 139.27 554.238 138.068 554.705 136.995C555.195 135.898 555.848 134.965 556.665 134.195C557.482 133.425 558.45 132.83 559.57 132.41C560.69 131.99 561.88 131.78 563.14 131.78C564.4 131.78 565.59 131.99 566.71 132.41C567.83 132.83 568.798 133.425 569.615 134.195C570.432 134.965 571.073 135.898 571.54 136.995C572.03 138.068 572.275 139.27 572.275 140.6C572.275 141.93 572.03 143.143 571.54 144.24C571.073 145.313 570.432 146.235 569.615 147.005C568.798 147.775 567.83 148.37 566.71 148.79C565.59 149.21 564.4 149.42 563.14 149.42C561.88 149.42 560.69 149.21 559.57 148.79C558.45 148.37 557.482 147.775 556.665 147.005C555.848 146.235 555.195 145.313 554.705 144.24C554.238 143.143 554.005 141.93 554.005 140.6ZM558.205 140.6C558.205 141.253 558.31 141.883 558.52 142.49C558.753 143.097 559.08 143.633 559.5 144.1C559.943 144.567 560.468 144.94 561.075 145.22C561.682 145.5 562.37 145.64 563.14 145.64C563.91 145.64 564.598 145.5 565.205 145.22C565.812 144.94 566.325 144.567 566.745 144.1C567.188 143.633 567.515 143.097 567.725 142.49C567.958 141.883 568.075 141.253 568.075 140.6C568.075 139.947 567.958 139.317 567.725 138.71C567.515 138.103 567.188 137.567 566.745 137.1C566.325 136.633 565.812 136.26 565.205 135.98C564.598 135.7 563.91 135.56 563.14 135.56C562.37 135.56 561.682 135.7 561.075 135.98C560.468 136.26 559.943 136.633 559.5 137.1C559.08 137.567 558.753 138.103 558.52 138.71C558.31 139.317 558.205 139.947 558.205 140.6ZM576.207 132.2H580.197V134.895H580.267C580.664 134.055 581.27 133.332 582.087 132.725C582.904 132.095 584.012 131.78 585.412 131.78C586.532 131.78 587.477 131.967 588.247 132.34C589.04 132.713 589.682 133.203 590.172 133.81C590.662 134.417 591.012 135.117 591.222 135.91C591.432 136.703 591.537 137.532 591.537 138.395V149H587.337V140.495C587.337 140.028 587.314 139.515 587.267 138.955C587.22 138.372 587.092 137.835 586.882 137.345C586.695 136.832 586.392 136.412 585.972 136.085C585.552 135.735 584.98 135.56 584.257 135.56C583.557 135.56 582.962 135.677 582.472 135.91C582.005 136.143 581.609 136.458 581.282 136.855C580.979 137.252 580.757 137.707 580.617 138.22C580.477 138.733 580.407 139.27 580.407 139.83V149H576.207V132.2ZM609.605 146.48H609.535C608.928 147.507 608.111 148.253 607.085 148.72C606.058 149.187 604.95 149.42 603.76 149.42C602.453 149.42 601.286 149.198 600.26 148.755C599.256 148.288 598.393 147.658 597.67 146.865C596.946 146.072 596.398 145.138 596.025 144.065C595.651 142.992 595.465 141.837 595.465 140.6C595.465 139.363 595.663 138.208 596.06 137.135C596.456 136.062 597.005 135.128 597.705 134.335C598.428 133.542 599.291 132.923 600.295 132.48C601.298 132.013 602.395 131.78 603.585 131.78C604.378 131.78 605.078 131.862 605.685 132.025C606.291 132.188 606.828 132.398 607.295 132.655C607.761 132.912 608.158 133.192 608.485 133.495C608.811 133.775 609.08 134.055 609.29 134.335H609.395V122.54H613.595V149H609.605V146.48ZM599.665 140.6C599.665 141.253 599.77 141.883 599.98 142.49C600.213 143.097 600.54 143.633 600.96 144.1C601.403 144.567 601.928 144.94 602.535 145.22C603.141 145.5 603.83 145.64 604.6 145.64C605.37 145.64 606.058 145.5 606.665 145.22C607.271 144.94 607.785 144.567 608.205 144.1C608.648 143.633 608.975 143.097 609.185 142.49C609.418 141.883 609.535 141.253 609.535 140.6C609.535 139.947 609.418 139.317 609.185 138.71C608.975 138.103 608.648 137.567 608.205 137.1C607.785 136.633 607.271 136.26 606.665 135.98C606.058 135.7 605.37 135.56 604.6 135.56C603.83 135.56 603.141 135.7 602.535 135.98C601.928 136.26 601.403 136.633 600.96 137.1C600.54 137.567 600.213 138.103 599.98 138.71C599.77 139.317 599.665 139.947 599.665 140.6ZM618.455 132.2H622.655V149H618.455V132.2ZM617.86 126.495C617.86 125.818 618.105 125.235 618.595 124.745C619.108 124.232 619.75 123.975 620.52 123.975C621.29 123.975 621.932 124.22 622.445 124.71C622.982 125.177 623.25 125.772 623.25 126.495C623.25 127.218 622.982 127.825 622.445 128.315C621.932 128.782 621.29 129.015 620.52 129.015C619.75 129.015 619.108 128.77 618.595 128.28C618.105 127.767 617.86 127.172 617.86 126.495ZM637.977 146.69H637.872C637.265 147.647 636.495 148.347 635.562 148.79C634.628 149.21 633.602 149.42 632.482 149.42C631.712 149.42 630.953 149.315 630.207 149.105C629.483 148.895 628.83 148.58 628.247 148.16C627.687 147.74 627.232 147.215 626.882 146.585C626.532 145.955 626.357 145.22 626.357 144.38C626.357 143.47 626.52 142.7 626.847 142.07C627.173 141.417 627.605 140.88 628.142 140.46C628.702 140.017 629.343 139.667 630.067 139.41C630.79 139.153 631.537 138.967 632.307 138.85C633.1 138.71 633.893 138.628 634.687 138.605C635.48 138.558 636.227 138.535 636.927 138.535H637.977V138.08C637.977 137.03 637.615 136.248 636.892 135.735C636.168 135.198 635.247 134.93 634.127 134.93C633.24 134.93 632.412 135.093 631.642 135.42C630.872 135.723 630.207 136.143 629.647 136.68L627.442 134.475C628.375 133.518 629.46 132.83 630.697 132.41C631.957 131.99 633.252 131.78 634.582 131.78C635.772 131.78 636.775 131.92 637.592 132.2C638.408 132.457 639.085 132.795 639.622 133.215C640.158 133.635 640.567 134.125 640.847 134.685C641.15 135.222 641.36 135.77 641.477 136.33C641.617 136.89 641.698 137.438 641.722 137.975C641.745 138.488 641.757 138.943 641.757 139.34V149H637.977V146.69ZM637.732 141.475H636.857C636.273 141.475 635.62 141.498 634.897 141.545C634.173 141.592 633.485 141.708 632.832 141.895C632.202 142.058 631.665 142.315 631.222 142.665C630.778 142.992 630.557 143.458 630.557 144.065C630.557 144.462 630.638 144.8 630.802 145.08C630.988 145.337 631.222 145.558 631.502 145.745C631.782 145.932 632.097 146.072 632.447 146.165C632.797 146.235 633.147 146.27 633.497 146.27C634.943 146.27 636.005 145.932 636.682 145.255C637.382 144.555 637.732 143.61 637.732 142.42V141.475ZM646.346 122.54H650.546V149H646.346V122.54Z" fill="white"/>
</svg>
