<svg width="415" height="415" viewBox="0 0 415 415" fill="none" xmlns="http://www.w3.org/2000/svg">
<circle cx="207.5" cy="207.5" r="207.5" fill="black"/>
<path d="M112.61 94.9C112.61 96.3933 112.353 97.7467 111.84 98.96C111.327 100.15 110.627 101.165 109.74 102.005C108.853 102.845 107.803 103.498 106.59 103.965C105.377 104.408 104.058 104.63 102.635 104.63C101.212 104.63 99.8933 104.408 98.68 103.965C97.4667 103.498 96.405 102.845 95.495 102.005C94.6083 101.165 93.9083 100.15 93.395 98.96C92.905 97.7467 92.66 96.3933 92.66 94.9V79.22H97.07V94.76C97.07 95.3667 97.1633 96.0083 97.35 96.685C97.5367 97.3383 97.84 97.945 98.26 98.505C98.7033 99.065 99.275 99.5317 99.975 99.905C100.698 100.255 101.585 100.43 102.635 100.43C103.685 100.43 104.56 100.255 105.26 99.905C105.983 99.5317 106.555 99.065 106.975 98.505C107.418 97.945 107.733 97.3383 107.92 96.685C108.107 96.0083 108.2 95.3667 108.2 94.76V79.22H112.61V94.9ZM117.639 87.2H121.629V89.895H121.699C122.095 89.055 122.702 88.3317 123.519 87.725C124.335 87.095 125.444 86.78 126.844 86.78C127.964 86.78 128.909 86.9667 129.679 87.34C130.472 87.7133 131.114 88.2033 131.604 88.81C132.094 89.4167 132.444 90.1167 132.654 90.91C132.864 91.7033 132.969 92.5317 132.969 93.395V104H128.769V95.495C128.769 95.0283 128.745 94.515 128.699 93.955C128.652 93.3717 128.524 92.835 128.314 92.345C128.127 91.8317 127.824 91.4117 127.404 91.085C126.984 90.735 126.412 90.56 125.689 90.56C124.989 90.56 124.394 90.6767 123.904 90.91C123.437 91.1433 123.04 91.4583 122.714 91.855C122.41 92.2517 122.189 92.7067 122.049 93.22C121.909 93.7333 121.839 94.27 121.839 94.83V104H117.639V87.2ZM146.133 90.77V87.2H149.598V82.335H153.798V87.2H158.418V90.77H153.798V98.12C153.798 98.96 153.95 99.625 154.253 100.115C154.58 100.605 155.21 100.85 156.143 100.85C156.516 100.85 156.925 100.815 157.368 100.745C157.811 100.652 158.161 100.512 158.418 100.325V103.86C157.975 104.07 157.426 104.21 156.773 104.28C156.143 104.373 155.583 104.42 155.093 104.42C153.973 104.42 153.051 104.292 152.328 104.035C151.628 103.802 151.068 103.44 150.648 102.95C150.251 102.437 149.971 101.807 149.808 101.06C149.668 100.313 149.598 99.45 149.598 98.47V90.77H146.133ZM165.931 89.545H166.001C166.327 88.845 166.899 88.215 167.716 87.655C168.556 87.0717 169.629 86.78 170.936 86.78C172.056 86.78 173.001 86.9667 173.771 87.34C174.564 87.7133 175.206 88.2033 175.696 88.81C176.186 89.4167 176.536 90.1167 176.746 90.91C176.956 91.7033 177.061 92.5317 177.061 93.395V104H172.861V95.495C172.861 95.0283 172.837 94.515 172.791 93.955C172.744 93.3717 172.616 92.835 172.406 92.345C172.219 91.8317 171.916 91.4117 171.496 91.085C171.076 90.735 170.504 90.56 169.781 90.56C169.081 90.56 168.486 90.6767 167.996 90.91C167.529 91.1433 167.132 91.4583 166.806 91.855C166.502 92.2517 166.281 92.7067 166.141 93.22C166.001 93.7333 165.931 94.27 165.931 94.83V104H161.731V77.54H165.931V89.545ZM185.188 97.07C185.328 98.33 185.818 99.31 186.658 100.01C187.498 100.71 188.513 101.06 189.703 101.06C190.753 101.06 191.628 100.85 192.328 100.43C193.052 99.9867 193.682 99.4383 194.218 98.785L197.228 101.06C196.248 102.273 195.152 103.137 193.938 103.65C192.725 104.163 191.453 104.42 190.123 104.42C188.863 104.42 187.673 104.21 186.553 103.79C185.433 103.37 184.465 102.775 183.648 102.005C182.832 101.235 182.178 100.313 181.688 99.24C181.222 98.1433 180.988 96.93 180.988 95.6C180.988 94.27 181.222 93.0683 181.688 91.995C182.178 90.8983 182.832 89.965 183.648 89.195C184.465 88.425 185.433 87.83 186.553 87.41C187.673 86.99 188.863 86.78 190.123 86.78C191.29 86.78 192.352 86.99 193.308 87.41C194.288 87.8067 195.117 88.39 195.793 89.16C196.493 89.93 197.03 90.8867 197.403 92.03C197.8 93.15 197.998 94.445 197.998 95.915V97.07H185.188ZM193.798 93.92C193.775 92.6833 193.39 91.715 192.643 91.015C191.897 90.2917 190.858 89.93 189.528 89.93C188.268 89.93 187.265 90.2917 186.518 91.015C185.795 91.7383 185.352 92.7067 185.188 93.92H193.798ZM191.313 79.22H196.073L191.138 84.26H187.848L191.313 79.22ZM212.426 101.69H212.321C211.714 102.647 210.944 103.347 210.011 103.79C209.078 104.21 208.051 104.42 206.931 104.42C206.161 104.42 205.403 104.315 204.656 104.105C203.933 103.895 203.279 103.58 202.696 103.16C202.136 102.74 201.681 102.215 201.331 101.585C200.981 100.955 200.806 100.22 200.806 99.38C200.806 98.47 200.969 97.7 201.296 97.07C201.623 96.4167 202.054 95.88 202.591 95.46C203.151 95.0167 203.793 94.6667 204.516 94.41C205.239 94.1533 205.986 93.9667 206.756 93.85C207.549 93.71 208.343 93.6283 209.136 93.605C209.929 93.5583 210.676 93.535 211.376 93.535H212.426V93.08C212.426 92.03 212.064 91.2483 211.341 90.735C210.618 90.1983 209.696 89.93 208.576 89.93C207.689 89.93 206.861 90.0933 206.091 90.42C205.321 90.7233 204.656 91.1433 204.096 91.68L201.891 89.475C202.824 88.5183 203.909 87.83 205.146 87.41C206.406 86.99 207.701 86.78 209.031 86.78C210.221 86.78 211.224 86.92 212.041 87.2C212.858 87.4567 213.534 87.795 214.071 88.215C214.608 88.635 215.016 89.125 215.296 89.685C215.599 90.2217 215.809 90.77 215.926 91.33C216.066 91.89 216.148 92.4383 216.171 92.975C216.194 93.4883 216.206 93.9433 216.206 94.34V104H212.426V101.69ZM212.181 96.475H211.306C210.723 96.475 210.069 96.4983 209.346 96.545C208.623 96.5917 207.934 96.7083 207.281 96.895C206.651 97.0583 206.114 97.315 205.671 97.665C205.228 97.9917 205.006 98.4583 205.006 99.065C205.006 99.4617 205.088 99.8 205.251 100.08C205.438 100.337 205.671 100.558 205.951 100.745C206.231 100.932 206.546 101.072 206.896 101.165C207.246 101.235 207.596 101.27 207.946 101.27C209.393 101.27 210.454 100.932 211.131 100.255C211.831 99.555 212.181 98.61 212.181 97.42V96.475ZM211.341 84.26L208.926 81.11L206.511 84.26H202.591L206.616 79.22H211.341L215.331 84.26H211.341ZM218.765 90.77V87.2H222.23V82.335H226.43V87.2H231.05V90.77H226.43V98.12C226.43 98.96 226.581 99.625 226.885 100.115C227.211 100.605 227.841 100.85 228.775 100.85C229.148 100.85 229.556 100.815 230 100.745C230.443 100.652 230.793 100.512 231.05 100.325V103.86C230.606 104.07 230.058 104.21 229.405 104.28C228.775 104.373 228.215 104.42 227.725 104.42C226.605 104.42 225.683 104.292 224.96 104.035C224.26 103.802 223.7 103.44 223.28 102.95C222.883 102.437 222.603 101.807 222.44 101.06C222.3 100.313 222.23 99.45 222.23 98.47V90.77H218.765ZM234.328 87.2H238.528V89.86H238.598C239.065 88.88 239.73 88.1217 240.593 87.585C241.457 87.0483 242.448 86.78 243.568 86.78C243.825 86.78 244.07 86.8033 244.303 86.85C244.56 86.8967 244.817 86.955 245.073 87.025V91.085C244.723 90.9917 244.373 90.9217 244.023 90.875C243.697 90.805 243.37 90.77 243.043 90.77C242.063 90.77 241.27 90.9567 240.663 91.33C240.08 91.68 239.625 92.0883 239.298 92.555C238.995 93.0217 238.785 93.4883 238.668 93.955C238.575 94.4217 238.528 94.7717 238.528 95.005V104H234.328V87.2ZM250.677 97.07C250.817 98.33 251.307 99.31 252.147 100.01C252.987 100.71 254.002 101.06 255.192 101.06C256.242 101.06 257.117 100.85 257.817 100.43C258.54 99.9867 259.17 99.4383 259.707 98.785L262.717 101.06C261.737 102.273 260.64 103.137 259.427 103.65C258.213 104.163 256.942 104.42 255.612 104.42C254.352 104.42 253.162 104.21 252.042 103.79C250.922 103.37 249.953 102.775 249.137 102.005C248.32 101.235 247.667 100.313 247.177 99.24C246.71 98.1433 246.477 96.93 246.477 95.6C246.477 94.27 246.71 93.0683 247.177 91.995C247.667 90.8983 248.32 89.965 249.137 89.195C249.953 88.425 250.922 87.83 252.042 87.41C253.162 86.99 254.352 86.78 255.612 86.78C256.778 86.78 257.84 86.99 258.797 87.41C259.777 87.8067 260.605 88.39 261.282 89.16C261.982 89.93 262.518 90.8867 262.892 92.03C263.288 93.15 263.487 94.445 263.487 95.915V97.07H250.677ZM259.287 93.92C259.263 92.6833 258.878 91.715 258.132 91.015C257.385 90.2917 256.347 89.93 255.017 89.93C253.757 89.93 252.753 90.2917 252.007 91.015C251.283 91.7383 250.84 92.7067 250.677 93.92H259.287ZM92.765 124.22H101.375C102.565 124.22 103.708 124.337 104.805 124.57C105.925 124.78 106.917 125.153 107.78 125.69C108.643 126.227 109.332 126.95 109.845 127.86C110.358 128.77 110.615 129.925 110.615 131.325C110.615 133.122 110.113 134.627 109.11 135.84C108.13 137.053 106.718 137.788 104.875 138.045L111.455 149H106.135L100.395 138.5H97.175V149H92.765V124.22ZM100.605 134.72C101.235 134.72 101.865 134.697 102.495 134.65C103.125 134.58 103.697 134.44 104.21 134.23C104.747 133.997 105.178 133.658 105.505 133.215C105.832 132.748 105.995 132.107 105.995 131.29C105.995 130.567 105.843 129.983 105.54 129.54C105.237 129.097 104.84 128.77 104.35 128.56C103.86 128.327 103.312 128.175 102.705 128.105C102.122 128.035 101.55 128 100.99 128H97.175V134.72H100.605ZM113.586 140.6C113.586 139.27 113.819 138.068 114.286 136.995C114.776 135.898 115.429 134.965 116.246 134.195C117.063 133.425 118.031 132.83 119.151 132.41C120.271 131.99 121.461 131.78 122.721 131.78C123.981 131.78 125.171 131.99 126.291 132.41C127.411 132.83 128.379 133.425 129.196 134.195C130.013 134.965 130.654 135.898 131.121 136.995C131.611 138.068 131.856 139.27 131.856 140.6C131.856 141.93 131.611 143.143 131.121 144.24C130.654 145.313 130.013 146.235 129.196 147.005C128.379 147.775 127.411 148.37 126.291 148.79C125.171 149.21 123.981 149.42 122.721 149.42C121.461 149.42 120.271 149.21 119.151 148.79C118.031 148.37 117.063 147.775 116.246 147.005C115.429 146.235 114.776 145.313 114.286 144.24C113.819 143.143 113.586 141.93 113.586 140.6ZM117.786 140.6C117.786 141.253 117.891 141.883 118.101 142.49C118.334 143.097 118.661 143.633 119.081 144.1C119.524 144.567 120.049 144.94 120.656 145.22C121.263 145.5 121.951 145.64 122.721 145.64C123.491 145.64 124.179 145.5 124.786 145.22C125.393 144.94 125.906 144.567 126.326 144.1C126.769 143.633 127.096 143.097 127.306 142.49C127.539 141.883 127.656 141.253 127.656 140.6C127.656 139.947 127.539 139.317 127.306 138.71C127.096 138.103 126.769 137.567 126.326 137.1C125.906 136.633 125.393 136.26 124.786 135.98C124.179 135.7 123.491 135.56 122.721 135.56C121.951 135.56 121.263 135.7 120.656 135.98C120.049 136.26 119.524 136.633 119.081 137.1C118.661 137.567 118.334 138.103 118.101 138.71C117.891 139.317 117.786 139.947 117.786 140.6ZM135.613 132.2H139.603V134.825H139.673C140.047 134.032 140.642 133.332 141.458 132.725C142.298 132.095 143.418 131.78 144.818 131.78C147.455 131.78 149.205 132.818 150.068 134.895C150.675 133.822 151.433 133.04 152.343 132.55C153.253 132.037 154.338 131.78 155.598 131.78C156.718 131.78 157.663 131.967 158.433 132.34C159.203 132.713 159.822 133.227 160.288 133.88C160.778 134.533 161.128 135.303 161.338 136.19C161.548 137.053 161.653 137.987 161.653 138.99V149H157.453V139.48C157.453 138.967 157.407 138.477 157.313 138.01C157.22 137.52 157.057 137.1 156.823 136.75C156.59 136.377 156.275 136.085 155.878 135.875C155.482 135.665 154.968 135.56 154.338 135.56C153.685 135.56 153.125 135.688 152.658 135.945C152.215 136.178 151.842 136.505 151.538 136.925C151.258 137.322 151.048 137.788 150.908 138.325C150.792 138.838 150.733 139.363 150.733 139.9V149H146.533V138.99C146.533 137.94 146.312 137.112 145.868 136.505C145.425 135.875 144.69 135.56 143.663 135.56C142.963 135.56 142.368 135.677 141.878 135.91C141.412 136.143 141.015 136.458 140.688 136.855C140.385 137.252 140.163 137.707 140.023 138.22C139.883 138.733 139.813 139.27 139.813 139.83V149H135.613V132.2ZM176.742 146.69H176.637C176.031 147.647 175.261 148.347 174.327 148.79C173.394 149.21 172.367 149.42 171.247 149.42C170.477 149.42 169.719 149.315 168.972 149.105C168.249 148.895 167.596 148.58 167.012 148.16C166.452 147.74 165.997 147.215 165.647 146.585C165.297 145.955 165.122 145.22 165.122 144.38C165.122 143.47 165.286 142.7 165.612 142.07C165.939 141.417 166.371 140.88 166.907 140.46C167.467 140.017 168.109 139.667 168.832 139.41C169.556 139.153 170.302 138.967 171.072 138.85C171.866 138.71 172.659 138.628 173.452 138.605C174.246 138.558 174.992 138.535 175.692 138.535H176.742V138.08C176.742 137.03 176.381 136.248 175.657 135.735C174.934 135.198 174.012 134.93 172.892 134.93C172.006 134.93 171.177 135.093 170.407 135.42C169.637 135.723 168.972 136.143 168.412 136.68L166.207 134.475C167.141 133.518 168.226 132.83 169.462 132.41C170.722 131.99 172.017 131.78 173.347 131.78C174.537 131.78 175.541 131.92 176.357 132.2C177.174 132.457 177.851 132.795 178.387 133.215C178.924 133.635 179.332 134.125 179.612 134.685C179.916 135.222 180.126 135.77 180.242 136.33C180.382 136.89 180.464 137.438 180.487 137.975C180.511 138.488 180.522 138.943 180.522 139.34V149H176.742V146.69ZM176.497 141.475H175.622C175.039 141.475 174.386 141.498 173.662 141.545C172.939 141.592 172.251 141.708 171.597 141.895C170.967 142.058 170.431 142.315 169.987 142.665C169.544 142.992 169.322 143.458 169.322 144.065C169.322 144.462 169.404 144.8 169.567 145.08C169.754 145.337 169.987 145.558 170.267 145.745C170.547 145.932 170.862 146.072 171.212 146.165C171.562 146.235 171.912 146.27 172.262 146.27C173.709 146.27 174.771 145.932 175.447 145.255C176.147 144.555 176.497 143.61 176.497 142.42V141.475ZM185.111 132.2H189.311V149H185.111V132.2ZM184.516 126.495C184.516 125.818 184.761 125.235 185.251 124.745C185.764 124.232 186.406 123.975 187.176 123.975C187.946 123.975 188.588 124.22 189.101 124.71C189.638 125.177 189.906 125.772 189.906 126.495C189.906 127.218 189.638 127.825 189.101 128.315C188.588 128.782 187.946 129.015 187.176 129.015C186.406 129.015 185.764 128.77 185.251 128.28C184.761 127.767 184.516 127.172 184.516 126.495ZM194.133 132.2H198.123V134.895H198.193C198.59 134.055 199.196 133.332 200.013 132.725C200.83 132.095 201.938 131.78 203.338 131.78C204.458 131.78 205.403 131.967 206.173 132.34C206.966 132.713 207.608 133.203 208.098 133.81C208.588 134.417 208.938 135.117 209.148 135.91C209.358 136.703 209.463 137.532 209.463 138.395V149H205.263V140.495C205.263 140.028 205.24 139.515 205.193 138.955C205.146 138.372 205.018 137.835 204.808 137.345C204.621 136.832 204.318 136.412 203.898 136.085C203.478 135.735 202.906 135.56 202.183 135.56C201.483 135.56 200.888 135.677 200.398 135.91C199.931 136.143 199.535 136.458 199.208 136.855C198.905 137.252 198.683 137.707 198.543 138.22C198.403 138.733 198.333 139.27 198.333 139.83V149H194.133V132.2Z" fill="white"/>
</svg>
