<svg width="850" height="433" viewBox="0 0 850 433" fill="none" xmlns="http://www.w3.org/2000/svg">
<path fill-rule="evenodd" clip-rule="evenodd" d="M736.501 0L850 0V433H736.501V433.001C736.293 433.001 736.084 433.001 735.875 433H734V432.987C615.582 431.646 520 335.236 520 216.5C520 97.7654 615.582 1.35463 734 0.0141501V0L736.501 0Z" fill="black"/>
<path d="M632.61 94.9C632.61 96.3933 632.353 97.7467 631.84 98.96C631.327 100.15 630.627 101.165 629.74 102.005C628.853 102.845 627.803 103.498 626.59 103.965C625.377 104.408 624.058 104.63 622.635 104.63C621.212 104.63 619.893 104.408 618.68 103.965C617.467 103.498 616.405 102.845 615.495 102.005C614.608 101.165 613.908 100.15 613.395 98.96C612.905 97.7467 612.66 96.3933 612.66 94.9V79.22H617.07V94.76C617.07 95.3667 617.163 96.0083 617.35 96.685C617.537 97.3383 617.84 97.945 618.26 98.505C618.703 99.065 619.275 99.5317 619.975 99.905C620.698 100.255 621.585 100.43 622.635 100.43C623.685 100.43 624.56 100.255 625.26 99.905C625.983 99.5317 626.555 99.065 626.975 98.505C627.418 97.945 627.733 97.3383 627.92 96.685C628.107 96.0083 628.2 95.3667 628.2 94.76V79.22H632.61V94.9ZM637.639 87.2H641.629V89.895H641.699C642.095 89.055 642.702 88.3317 643.519 87.725C644.335 87.095 645.444 86.78 646.844 86.78C647.964 86.78 648.909 86.9667 649.679 87.34C650.472 87.7133 651.114 88.2033 651.604 88.81C652.094 89.4167 652.444 90.1167 652.654 90.91C652.864 91.7033 652.969 92.5317 652.969 93.395V104H648.769V95.495C648.769 95.0283 648.745 94.515 648.699 93.955C648.652 93.3717 648.524 92.835 648.314 92.345C648.127 91.8317 647.824 91.4117 647.404 91.085C646.984 90.735 646.412 90.56 645.689 90.56C644.989 90.56 644.394 90.6767 643.904 90.91C643.437 91.1433 643.04 91.4583 642.714 91.855C642.41 92.2517 642.189 92.7067 642.049 93.22C641.909 93.7333 641.839 94.27 641.839 94.83V104H637.639V87.2ZM661.096 97.07C661.236 98.33 661.726 99.31 662.566 100.01C663.406 100.71 664.421 101.06 665.611 101.06C666.661 101.06 667.536 100.85 668.236 100.43C668.96 99.9867 669.59 99.4383 670.126 98.785L673.136 101.06C672.156 102.273 671.06 103.137 669.846 103.65C668.633 104.163 667.361 104.42 666.031 104.42C664.771 104.42 663.581 104.21 662.461 103.79C661.341 103.37 660.373 102.775 659.556 102.005C658.74 101.235 658.086 100.313 657.596 99.24C657.13 98.1433 656.896 96.93 656.896 95.6C656.896 94.27 657.13 93.0683 657.596 91.995C658.086 90.8983 658.74 89.965 659.556 89.195C660.373 88.425 661.341 87.83 662.461 87.41C663.581 86.99 664.771 86.78 666.031 86.78C667.198 86.78 668.26 86.99 669.216 87.41C670.196 87.8067 671.025 88.39 671.701 89.16C672.401 89.93 672.938 90.8867 673.311 92.03C673.708 93.15 673.906 94.445 673.906 95.915V97.07H661.096ZM669.706 93.92C669.683 92.6833 669.298 91.715 668.551 91.015C667.805 90.2917 666.766 89.93 665.436 89.93C664.176 89.93 663.173 90.2917 662.426 91.015C661.703 91.7383 661.26 92.7067 661.096 93.92H669.706ZM685.916 87.2H690.501L694.981 98.96H695.051L699.566 87.2H703.871L697.256 104H692.776L685.916 87.2ZM705.5 95.6C705.5 94.27 705.733 93.0683 706.2 91.995C706.69 90.8983 707.343 89.965 708.16 89.195C708.977 88.425 709.945 87.83 711.065 87.41C712.185 86.99 713.375 86.78 714.635 86.78C715.895 86.78 717.085 86.99 718.205 87.41C719.325 87.83 720.293 88.425 721.11 89.195C721.927 89.965 722.568 90.8983 723.035 91.995C723.525 93.0683 723.77 94.27 723.77 95.6C723.77 96.93 723.525 98.1433 723.035 99.24C722.568 100.313 721.927 101.235 721.11 102.005C720.293 102.775 719.325 103.37 718.205 103.79C717.085 104.21 715.895 104.42 714.635 104.42C713.375 104.42 712.185 104.21 711.065 103.79C709.945 103.37 708.977 102.775 708.16 102.005C707.343 101.235 706.69 100.313 706.2 99.24C705.733 98.1433 705.5 96.93 705.5 95.6ZM709.7 95.6C709.7 96.2533 709.805 96.8833 710.015 97.49C710.248 98.0967 710.575 98.6333 710.995 99.1C711.438 99.5667 711.963 99.94 712.57 100.22C713.177 100.5 713.865 100.64 714.635 100.64C715.405 100.64 716.093 100.5 716.7 100.22C717.307 99.94 717.82 99.5667 718.24 99.1C718.683 98.6333 719.01 98.0967 719.22 97.49C719.453 96.8833 719.57 96.2533 719.57 95.6C719.57 94.9467 719.453 94.3167 719.22 93.71C719.01 93.1033 718.683 92.5667 718.24 92.1C717.82 91.6333 717.307 91.26 716.7 90.98C716.093 90.7 715.405 90.56 714.635 90.56C713.865 90.56 713.177 90.7 712.57 90.98C711.963 91.26 711.438 91.6333 710.995 92.1C710.575 92.5667 710.248 93.1033 710.015 93.71C709.805 94.3167 709.7 94.9467 709.7 95.6ZM727.772 77.54H731.972V104H727.772V77.54ZM735.954 95.6C735.954 94.27 736.187 93.0683 736.654 91.995C737.144 90.8983 737.797 89.965 738.614 89.195C739.431 88.425 740.399 87.83 741.519 87.41C742.639 86.99 743.829 86.78 745.089 86.78C746.349 86.78 747.539 86.99 748.659 87.41C749.779 87.83 750.747 88.425 751.564 89.195C752.381 89.965 753.022 90.8983 753.489 91.995C753.979 93.0683 754.224 94.27 754.224 95.6C754.224 96.93 753.979 98.1433 753.489 99.24C753.022 100.313 752.381 101.235 751.564 102.005C750.747 102.775 749.779 103.37 748.659 103.79C747.539 104.21 746.349 104.42 745.089 104.42C743.829 104.42 742.639 104.21 741.519 103.79C740.399 103.37 739.431 102.775 738.614 102.005C737.797 101.235 737.144 100.313 736.654 99.24C736.187 98.1433 735.954 96.93 735.954 95.6ZM740.154 95.6C740.154 96.2533 740.259 96.8833 740.469 97.49C740.702 98.0967 741.029 98.6333 741.449 99.1C741.892 99.5667 742.417 99.94 743.024 100.22C743.631 100.5 744.319 100.64 745.089 100.64C745.859 100.64 746.547 100.5 747.154 100.22C747.761 99.94 748.274 99.5667 748.694 99.1C749.137 98.6333 749.464 98.0967 749.674 97.49C749.907 96.8833 750.024 96.2533 750.024 95.6C750.024 94.9467 749.907 94.3167 749.674 93.71C749.464 93.1033 749.137 92.5667 748.694 92.1C748.274 91.6333 747.761 91.26 747.154 90.98C746.547 90.7 745.859 90.56 745.089 90.56C744.319 90.56 743.631 90.7 743.024 90.98C742.417 91.26 741.892 91.6333 741.449 92.1C741.029 92.5667 740.702 93.1033 740.469 93.71C740.259 94.3167 740.154 94.9467 740.154 95.6ZM758.156 87.2H762.146V89.895H762.216C762.613 89.055 763.22 88.3317 764.036 87.725C764.853 87.095 765.961 86.78 767.361 86.78C768.481 86.78 769.426 86.9667 770.196 87.34C770.99 87.7133 771.631 88.2033 772.121 88.81C772.611 89.4167 772.961 90.1167 773.171 90.91C773.381 91.7033 773.486 92.5317 773.486 93.395V104H769.286V95.495C769.286 95.0283 769.263 94.515 769.216 93.955C769.17 93.3717 769.041 92.835 768.831 92.345C768.645 91.8317 768.341 91.4117 767.921 91.085C767.501 90.735 766.93 90.56 766.206 90.56C765.506 90.56 764.911 90.6767 764.421 90.91C763.955 91.1433 763.558 91.4583 763.231 91.855C762.928 92.2517 762.706 92.7067 762.566 93.22C762.426 93.7333 762.356 94.27 762.356 94.83V104H758.156V87.2ZM776.294 90.77V87.2H779.759V82.335H783.959V87.2H788.579V90.77H783.959V98.12C783.959 98.96 784.111 99.625 784.414 100.115C784.741 100.605 785.371 100.85 786.304 100.85C786.677 100.85 787.086 100.815 787.529 100.745C787.972 100.652 788.322 100.512 788.579 100.325V103.86C788.136 104.07 787.587 104.21 786.934 104.28C786.304 104.373 785.744 104.42 785.254 104.42C784.134 104.42 783.212 104.292 782.489 104.035C781.789 103.802 781.229 103.44 780.809 102.95C780.412 102.437 780.132 101.807 779.969 101.06C779.829 100.313 779.759 99.45 779.759 98.47V90.77H776.294ZM795.218 97.07C795.358 98.33 795.848 99.31 796.688 100.01C797.528 100.71 798.543 101.06 799.733 101.06C800.783 101.06 801.658 100.85 802.358 100.43C803.081 99.9867 803.711 99.4383 804.248 98.785L807.258 101.06C806.278 102.273 805.181 103.137 803.968 103.65C802.754 104.163 801.483 104.42 800.153 104.42C798.893 104.42 797.703 104.21 796.583 103.79C795.463 103.37 794.494 102.775 793.678 102.005C792.861 101.235 792.208 100.313 791.718 99.24C791.251 98.1433 791.018 96.93 791.018 95.6C791.018 94.27 791.251 93.0683 791.718 91.995C792.208 90.8983 792.861 89.965 793.678 89.195C794.494 88.425 795.463 87.83 796.583 87.41C797.703 86.99 798.893 86.78 800.153 86.78C801.319 86.78 802.381 86.99 803.338 87.41C804.318 87.8067 805.146 88.39 805.823 89.16C806.523 89.93 807.059 90.8867 807.433 92.03C807.829 93.15 808.028 94.445 808.028 95.915V97.07H795.218ZM803.828 93.92C803.804 92.6833 803.419 91.715 802.673 91.015C801.926 90.2917 800.888 89.93 799.558 89.93C798.298 89.93 797.294 90.2917 796.548 91.015C795.824 91.7383 795.381 92.7067 795.218 93.92H803.828ZM801.343 79.22H806.103L801.168 84.26H797.878L801.343 79.22ZM612.38 132.2H616.37V134.72H616.44C617.047 133.693 617.863 132.947 618.89 132.48C619.917 132.013 621.025 131.78 622.215 131.78C623.498 131.78 624.653 132.013 625.68 132.48C626.707 132.923 627.582 133.542 628.305 134.335C629.028 135.128 629.577 136.062 629.95 137.135C630.323 138.208 630.51 139.363 630.51 140.6C630.51 141.837 630.312 142.992 629.915 144.065C629.518 145.138 628.958 146.072 628.235 146.865C627.535 147.658 626.683 148.288 625.68 148.755C624.677 149.198 623.58 149.42 622.39 149.42C621.597 149.42 620.897 149.338 620.29 149.175C619.683 149.012 619.147 148.802 618.68 148.545C618.213 148.288 617.817 148.02 617.49 147.74C617.163 147.437 616.895 147.145 616.685 146.865H616.58V156.98H612.38V132.2ZM626.31 140.6C626.31 139.947 626.193 139.317 625.96 138.71C625.75 138.103 625.423 137.567 624.98 137.1C624.56 136.633 624.047 136.26 623.44 135.98C622.833 135.7 622.145 135.56 621.375 135.56C620.605 135.56 619.917 135.7 619.31 135.98C618.703 136.26 618.178 136.633 617.735 137.1C617.315 137.567 616.988 138.103 616.755 138.71C616.545 139.317 616.44 139.947 616.44 140.6C616.44 141.253 616.545 141.883 616.755 142.49C616.988 143.097 617.315 143.633 617.735 144.1C618.178 144.567 618.703 144.94 619.31 145.22C619.917 145.5 620.605 145.64 621.375 145.64C622.145 145.64 622.833 145.5 623.44 145.22C624.047 144.94 624.56 144.567 624.98 144.1C625.423 143.633 625.75 143.097 625.96 142.49C626.193 141.883 626.31 141.253 626.31 140.6ZM633.586 140.6C633.586 139.27 633.819 138.068 634.286 136.995C634.776 135.898 635.429 134.965 636.246 134.195C637.063 133.425 638.031 132.83 639.151 132.41C640.271 131.99 641.461 131.78 642.721 131.78C643.981 131.78 645.171 131.99 646.291 132.41C647.411 132.83 648.379 133.425 649.196 134.195C650.013 134.965 650.654 135.898 651.121 136.995C651.611 138.068 651.856 139.27 651.856 140.6C651.856 141.93 651.611 143.143 651.121 144.24C650.654 145.313 650.013 146.235 649.196 147.005C648.379 147.775 647.411 148.37 646.291 148.79C645.171 149.21 643.981 149.42 642.721 149.42C641.461 149.42 640.271 149.21 639.151 148.79C638.031 148.37 637.063 147.775 636.246 147.005C635.429 146.235 634.776 145.313 634.286 144.24C633.819 143.143 633.586 141.93 633.586 140.6ZM637.786 140.6C637.786 141.253 637.891 141.883 638.101 142.49C638.334 143.097 638.661 143.633 639.081 144.1C639.524 144.567 640.049 144.94 640.656 145.22C641.263 145.5 641.951 145.64 642.721 145.64C643.491 145.64 644.179 145.5 644.786 145.22C645.393 144.94 645.906 144.567 646.326 144.1C646.769 143.633 647.096 143.097 647.306 142.49C647.539 141.883 647.656 141.253 647.656 140.6C647.656 139.947 647.539 139.317 647.306 138.71C647.096 138.103 646.769 137.567 646.326 137.1C645.906 136.633 645.393 136.26 644.786 135.98C644.179 135.7 643.491 135.56 642.721 135.56C641.951 135.56 641.263 135.7 640.656 135.98C640.049 136.26 639.524 136.633 639.081 137.1C638.661 137.567 638.334 138.103 638.101 138.71C637.891 139.317 637.786 139.947 637.786 140.6ZM655.858 122.54H660.058V149H655.858V122.54ZM664.984 132.2H669.184V149H664.984V132.2ZM664.389 126.495C664.389 125.818 664.634 125.235 665.124 124.745C665.638 124.232 666.279 123.975 667.049 123.975C667.819 123.975 668.461 124.22 668.974 124.71C669.511 125.177 669.779 125.772 669.779 126.495C669.779 127.218 669.511 127.825 668.974 128.315C668.461 128.782 667.819 129.015 667.049 129.015C666.279 129.015 665.638 128.77 665.124 128.28C664.634 127.767 664.389 127.172 664.389 126.495ZM672.046 135.77V132.2H675.511V127.335H679.711V132.2H684.331V135.77H679.711V143.12C679.711 143.96 679.863 144.625 680.166 145.115C680.493 145.605 681.123 145.85 682.056 145.85C682.429 145.85 682.838 145.815 683.281 145.745C683.724 145.652 684.074 145.512 684.331 145.325V148.86C683.888 149.07 683.339 149.21 682.686 149.28C682.056 149.373 681.496 149.42 681.006 149.42C679.886 149.42 678.964 149.292 678.241 149.035C677.541 148.802 676.981 148.44 676.561 147.95C676.164 147.437 675.884 146.807 675.721 146.06C675.581 145.313 675.511 144.45 675.511 143.47V135.77H672.046ZM687.714 132.2H691.914V149H687.714V132.2ZM687.119 126.495C687.119 125.818 687.364 125.235 687.854 124.745C688.367 124.232 689.009 123.975 689.779 123.975C690.549 123.975 691.19 124.22 691.704 124.71C692.24 125.177 692.509 125.772 692.509 126.495C692.509 127.218 692.24 127.825 691.704 128.315C691.19 128.782 690.549 129.015 689.779 129.015C689.009 129.015 688.367 128.77 687.854 128.28C687.364 127.767 687.119 127.172 687.119 126.495ZM714.025 156.98H709.825V146.865H709.72C709.51 147.145 709.242 147.437 708.915 147.74C708.589 148.02 708.192 148.288 707.725 148.545C707.259 148.802 706.722 149.012 706.115 149.175C705.509 149.338 704.809 149.42 704.015 149.42C702.825 149.42 701.729 149.198 700.725 148.755C699.722 148.288 698.859 147.658 698.135 146.865C697.435 146.072 696.887 145.138 696.49 144.065C696.094 142.992 695.895 141.837 695.895 140.6C695.895 139.363 696.082 138.208 696.455 137.135C696.829 136.062 697.377 135.128 698.1 134.335C698.824 133.542 699.687 132.923 700.69 132.48C701.717 132.013 702.884 131.78 704.19 131.78C705.38 131.78 706.489 132.013 707.515 132.48C708.542 132.947 709.359 133.693 709.965 134.72H710.035V132.2H714.025V156.98ZM700.095 140.6C700.095 141.253 700.2 141.883 700.41 142.49C700.644 143.097 700.97 143.633 701.39 144.1C701.834 144.567 702.359 144.94 702.965 145.22C703.572 145.5 704.26 145.64 705.03 145.64C705.8 145.64 706.489 145.5 707.095 145.22C707.702 144.94 708.215 144.567 708.635 144.1C709.079 143.633 709.405 143.097 709.615 142.49C709.849 141.883 709.965 141.253 709.965 140.6C709.965 139.947 709.849 139.317 709.615 138.71C709.405 138.103 709.079 137.567 708.635 137.1C708.215 136.633 707.702 136.26 707.095 135.98C706.489 135.7 705.8 135.56 705.03 135.56C704.26 135.56 703.572 135.7 702.965 135.98C702.359 136.26 701.834 136.633 701.39 137.1C700.97 137.567 700.644 138.103 700.41 138.71C700.2 139.317 700.095 139.947 700.095 140.6ZM734.111 149H730.121V146.305H730.051C729.655 147.145 729.048 147.88 728.231 148.51C727.415 149.117 726.306 149.42 724.906 149.42C723.786 149.42 722.83 149.245 722.036 148.895C721.266 148.522 720.636 148.032 720.146 147.425C719.656 146.795 719.306 146.083 719.096 145.29C718.886 144.497 718.781 143.668 718.781 142.805V132.2H722.981V140.705C722.981 141.172 723.005 141.697 723.051 142.28C723.098 142.84 723.215 143.377 723.401 143.89C723.611 144.38 723.915 144.8 724.311 145.15C724.731 145.477 725.315 145.64 726.061 145.64C726.761 145.64 727.345 145.523 727.811 145.29C728.301 145.057 728.698 144.742 729.001 144.345C729.328 143.948 729.561 143.493 729.701 142.98C729.841 142.467 729.911 141.93 729.911 141.37V132.2H734.111V149ZM742.239 142.07C742.379 143.33 742.869 144.31 743.709 145.01C744.549 145.71 745.564 146.06 746.754 146.06C747.804 146.06 748.679 145.85 749.379 145.43C750.102 144.987 750.732 144.438 751.269 143.785L754.279 146.06C753.299 147.273 752.202 148.137 750.989 148.65C749.776 149.163 748.504 149.42 747.174 149.42C745.914 149.42 744.724 149.21 743.604 148.79C742.484 148.37 741.516 147.775 740.699 147.005C739.882 146.235 739.229 145.313 738.739 144.24C738.272 143.143 738.039 141.93 738.039 140.6C738.039 139.27 738.272 138.068 738.739 136.995C739.229 135.898 739.882 134.965 740.699 134.195C741.516 133.425 742.484 132.83 743.604 132.41C744.724 131.99 745.914 131.78 747.174 131.78C748.341 131.78 749.402 131.99 750.359 132.41C751.339 132.807 752.167 133.39 752.844 134.16C753.544 134.93 754.081 135.887 754.454 137.03C754.851 138.15 755.049 139.445 755.049 140.915V142.07H742.239ZM750.849 138.92C750.826 137.683 750.441 136.715 749.694 136.015C748.947 135.292 747.909 134.93 746.579 134.93C745.319 134.93 744.316 135.292 743.569 136.015C742.846 136.738 742.402 137.707 742.239 138.92H750.849Z" fill="white"/>
</svg>
