<svg width="258" height="43" viewBox="0 0 258 43" fill="none" xmlns="http://www.w3.org/2000/svg">
<path d="M41.3633 21.5L31.8178 27.0111V15.9889L41.3633 21.5Z" fill="black"/>
<path d="M60.3115 15.38H64.3915C64.7415 15.38 65.1115 15.42 65.5015 15.5C65.8915 15.58 66.2765 15.71 66.6565 15.89C67.0465 16.06 67.4165 16.285 67.7665 16.565C68.1265 16.845 68.4415 17.185 68.7115 17.585C68.9815 17.975 69.1965 18.43 69.3565 18.95C69.5165 19.46 69.5965 20.04 69.5965 20.69C69.5965 21.34 69.5165 21.925 69.3565 22.445C69.1965 22.955 68.9815 23.41 68.7115 23.81C68.4415 24.2 68.1265 24.535 67.7665 24.815C67.4165 25.095 67.0465 25.325 66.6565 25.505C66.2765 25.675 65.8915 25.8 65.5015 25.88C65.1115 25.96 64.7415 26 64.3915 26H60.3115V15.38ZM61.5715 24.83H63.9715C64.5815 24.83 65.1465 24.75 65.6665 24.59C66.1865 24.43 66.6365 24.185 67.0165 23.855C67.3965 23.515 67.6965 23.085 67.9165 22.565C68.1365 22.045 68.2465 21.42 68.2465 20.69C68.2465 19.96 68.1365 19.335 67.9165 18.815C67.6965 18.295 67.3965 17.87 67.0165 17.54C66.6365 17.2 66.1865 16.95 65.6665 16.79C65.1465 16.63 64.5815 16.55 63.9715 16.55H61.5715V24.83ZM77.6847 24.725C77.2647 25.265 76.8047 25.645 76.3047 25.865C75.8047 26.075 75.2247 26.18 74.5647 26.18C74.0147 26.18 73.5197 26.085 73.0797 25.895C72.6397 25.695 72.2647 25.43 71.9547 25.1C71.6547 24.77 71.4197 24.38 71.2497 23.93C71.0897 23.48 71.0097 23 71.0097 22.49C71.0097 21.95 71.0997 21.455 71.2797 21.005C71.4597 20.545 71.7097 20.155 72.0297 19.835C72.3497 19.505 72.7297 19.25 73.1697 19.07C73.6097 18.89 74.0897 18.8 74.6097 18.8C75.0997 18.8 75.5497 18.885 75.9597 19.055C76.3697 19.215 76.7197 19.455 77.0097 19.775C77.3097 20.085 77.5397 20.47 77.6997 20.93C77.8597 21.38 77.9397 21.895 77.9397 22.475V22.85H72.2697C72.2897 23.15 72.3597 23.44 72.4797 23.72C72.6097 23.99 72.7747 24.23 72.9747 24.44C73.1747 24.64 73.4097 24.8 73.6797 24.92C73.9497 25.04 74.2447 25.1 74.5647 25.1C75.0747 25.1 75.5047 25.01 75.8547 24.83C76.2047 24.65 76.5197 24.385 76.7997 24.035L77.6847 24.725ZM76.6797 21.86C76.6597 21.26 76.4647 20.78 76.0947 20.42C75.7247 20.06 75.2147 19.88 74.5647 19.88C73.9147 19.88 73.3897 20.06 72.9897 20.42C72.5897 20.78 72.3497 21.26 72.2697 21.86H76.6797ZM74.9997 15.14H76.6497L74.5047 17.3H73.4397L74.9997 15.14ZM84.7446 20.735C84.4946 20.435 84.2246 20.22 83.9346 20.09C83.6446 19.95 83.3246 19.88 82.9746 19.88C82.5846 19.88 82.2396 19.95 81.9396 20.09C81.6396 20.22 81.3896 20.405 81.1896 20.645C80.9996 20.885 80.8546 21.165 80.7546 21.485C80.6546 21.795 80.6046 22.13 80.6046 22.49C80.6046 22.85 80.6596 23.19 80.7696 23.51C80.8896 23.82 81.0496 24.095 81.2496 24.335C81.4596 24.575 81.7096 24.765 81.9996 24.905C82.2896 25.035 82.6146 25.1 82.9746 25.1C83.7446 25.1 84.3396 24.81 84.7596 24.23L85.6296 25.055C85.2896 25.445 84.8896 25.73 84.4296 25.91C83.9696 26.09 83.4846 26.18 82.9746 26.18C82.4346 26.18 81.9396 26.09 81.4896 25.91C81.0396 25.73 80.6546 25.475 80.3346 25.145C80.0246 24.815 79.7796 24.425 79.5996 23.975C79.4296 23.525 79.3446 23.03 79.3446 22.49C79.3446 21.96 79.4296 21.47 79.5996 21.02C79.7796 20.57 80.0296 20.18 80.3496 19.85C80.6696 19.52 81.0496 19.265 81.4896 19.085C81.9396 18.895 82.4346 18.8 82.9746 18.8C83.4946 18.8 83.9846 18.89 84.4446 19.07C84.9146 19.25 85.3246 19.53 85.6746 19.91L84.7446 20.735ZM86.581 22.49C86.581 21.94 86.676 21.44 86.866 20.99C87.056 20.54 87.316 20.155 87.646 19.835C87.976 19.505 88.371 19.25 88.831 19.07C89.291 18.89 89.791 18.8 90.331 18.8C90.871 18.8 91.371 18.89 91.831 19.07C92.291 19.25 92.686 19.505 93.016 19.835C93.346 20.155 93.606 20.54 93.796 20.99C93.986 21.44 94.081 21.94 94.081 22.49C94.081 23.04 93.986 23.54 93.796 23.99C93.606 24.44 93.346 24.83 93.016 25.16C92.686 25.48 92.291 25.73 91.831 25.91C91.371 26.09 90.871 26.18 90.331 26.18C89.791 26.18 89.291 26.09 88.831 25.91C88.371 25.73 87.976 25.48 87.646 25.16C87.316 24.83 87.056 24.44 86.866 23.99C86.676 23.54 86.581 23.04 86.581 22.49ZM87.841 22.49C87.841 22.86 87.896 23.205 88.006 23.525C88.126 23.835 88.296 24.11 88.516 24.35C88.736 24.58 88.996 24.765 89.296 24.905C89.606 25.035 89.951 25.1 90.331 25.1C90.711 25.1 91.051 25.035 91.351 24.905C91.661 24.765 91.926 24.58 92.146 24.35C92.366 24.11 92.531 23.835 92.641 23.525C92.761 23.205 92.821 22.86 92.821 22.49C92.821 22.12 92.761 21.78 92.641 21.47C92.531 21.15 92.366 20.875 92.146 20.645C91.926 20.405 91.661 20.22 91.351 20.09C91.051 19.95 90.711 19.88 90.331 19.88C89.951 19.88 89.606 19.95 89.296 20.09C88.996 20.22 88.736 20.405 88.516 20.645C88.296 20.875 88.126 21.15 88.006 21.47C87.896 21.78 87.841 22.12 87.841 22.49ZM102.012 24.335C102.012 24.655 102.022 24.955 102.042 25.235C102.062 25.515 102.072 25.77 102.072 26H100.962C100.962 25.81 100.957 25.62 100.947 25.43C100.937 25.24 100.932 25.045 100.932 24.845H100.902C100.822 25.015 100.707 25.18 100.557 25.34C100.417 25.5 100.247 25.645 100.047 25.775C99.8472 25.895 99.6222 25.99 99.3722 26.06C99.1222 26.14 98.8522 26.18 98.5622 26.18C98.1022 26.18 97.7022 26.11 97.3622 25.97C97.0322 25.83 96.7572 25.635 96.5372 25.385C96.3172 25.135 96.1522 24.835 96.0422 24.485C95.9422 24.125 95.8922 23.735 95.8922 23.315V18.98H97.0622V23.195C97.0622 23.785 97.1922 24.25 97.4522 24.59C97.7122 24.93 98.1172 25.1 98.6672 25.1C99.0472 25.1 99.3722 25.035 99.6422 24.905C99.9222 24.775 100.147 24.59 100.317 24.35C100.497 24.11 100.627 23.825 100.707 23.495C100.797 23.165 100.842 22.8 100.842 22.4V18.98H102.012V24.335ZM107.422 26H106.132L103.267 18.98H104.632L106.822 24.485H106.852L108.937 18.98H110.197L107.422 26ZM111.464 20.645C111.464 20.325 111.454 20.025 111.434 19.745C111.414 19.465 111.404 19.21 111.404 18.98H112.514C112.514 19.17 112.519 19.36 112.529 19.55C112.539 19.74 112.544 19.935 112.544 20.135H112.574C112.654 19.965 112.764 19.8 112.904 19.64C113.054 19.48 113.229 19.34 113.429 19.22C113.629 19.09 113.854 18.99 114.104 18.92C114.354 18.84 114.624 18.8 114.914 18.8C114.994 18.8 115.074 18.805 115.154 18.815C115.234 18.825 115.314 18.845 115.394 18.875L115.319 20.06C115.119 20 114.909 19.97 114.689 19.97C113.969 19.97 113.444 20.205 113.114 20.675C112.794 21.135 112.634 21.77 112.634 22.58V26H111.464V20.645ZM116.842 18.98H118.012V26H116.842V18.98ZM116.572 16.235C116.572 16.005 116.652 15.805 116.812 15.635C116.982 15.465 117.187 15.38 117.427 15.38C117.667 15.38 117.867 15.465 118.027 15.635C118.197 15.805 118.282 16.005 118.282 16.235C118.282 16.485 118.202 16.69 118.042 16.85C117.882 17.01 117.677 17.09 117.427 17.09C117.177 17.09 116.972 17.01 116.812 16.85C116.652 16.69 116.572 16.485 116.572 16.235ZM120.34 20.645C120.34 20.325 120.33 20.025 120.31 19.745C120.29 19.465 120.28 19.21 120.28 18.98H121.39C121.39 19.17 121.395 19.36 121.405 19.55C121.415 19.74 121.42 19.935 121.42 20.135H121.45C121.53 19.965 121.64 19.8 121.78 19.64C121.93 19.48 122.105 19.34 122.305 19.22C122.505 19.09 122.73 18.99 122.98 18.92C123.23 18.84 123.5 18.8 123.79 18.8C123.87 18.8 123.95 18.805 124.03 18.815C124.11 18.825 124.19 18.845 124.27 18.875L124.195 20.06C123.995 20 123.785 19.97 123.565 19.97C122.845 19.97 122.32 20.205 121.99 20.675C121.67 21.135 121.51 21.77 121.51 22.58V26H120.34V20.645ZM129.999 15.38H136.584V16.55H131.259V20.06H136.209V21.23H131.259V26H129.999V15.38ZM138.229 14.66H139.399V26H138.229V14.66ZM141.322 22.49C141.322 21.94 141.417 21.44 141.607 20.99C141.797 20.54 142.057 20.155 142.387 19.835C142.717 19.505 143.112 19.25 143.572 19.07C144.032 18.89 144.532 18.8 145.072 18.8C145.612 18.8 146.112 18.89 146.572 19.07C147.032 19.25 147.427 19.505 147.757 19.835C148.087 20.155 148.347 20.54 148.537 20.99C148.727 21.44 148.822 21.94 148.822 22.49C148.822 23.04 148.727 23.54 148.537 23.99C148.347 24.44 148.087 24.83 147.757 25.16C147.427 25.48 147.032 25.73 146.572 25.91C146.112 26.09 145.612 26.18 145.072 26.18C144.532 26.18 144.032 26.09 143.572 25.91C143.112 25.73 142.717 25.48 142.387 25.16C142.057 24.83 141.797 24.44 141.607 23.99C141.417 23.54 141.322 23.04 141.322 22.49ZM142.582 22.49C142.582 22.86 142.637 23.205 142.747 23.525C142.867 23.835 143.037 24.11 143.257 24.35C143.477 24.58 143.737 24.765 144.037 24.905C144.347 25.035 144.692 25.1 145.072 25.1C145.452 25.1 145.792 25.035 146.092 24.905C146.402 24.765 146.667 24.58 146.887 24.35C147.107 24.11 147.272 23.835 147.382 23.525C147.502 23.205 147.562 22.86 147.562 22.49C147.562 22.12 147.502 21.78 147.382 21.47C147.272 21.15 147.107 20.875 146.887 20.645C146.667 20.405 146.402 20.22 146.092 20.09C145.792 19.95 145.452 19.88 145.072 19.88C144.692 19.88 144.347 19.95 144.037 20.09C143.737 20.22 143.477 20.405 143.257 20.645C143.037 20.875 142.867 21.15 142.747 21.47C142.637 21.78 142.582 22.12 142.582 22.49ZM150.633 20.645C150.633 20.325 150.623 20.025 150.603 19.745C150.583 19.465 150.573 19.21 150.573 18.98H151.683C151.683 19.17 151.688 19.36 151.698 19.55C151.708 19.74 151.713 19.935 151.713 20.135H151.743C151.823 19.965 151.933 19.8 152.073 19.64C152.223 19.48 152.398 19.34 152.598 19.22C152.798 19.09 153.023 18.99 153.273 18.92C153.523 18.84 153.793 18.8 154.083 18.8C154.163 18.8 154.243 18.805 154.323 18.815C154.403 18.825 154.483 18.845 154.563 18.875L154.488 20.06C154.288 20 154.078 19.97 153.858 19.97C153.138 19.97 152.613 20.205 152.283 20.675C151.963 21.135 151.803 21.77 151.803 22.58V26H150.633V20.645ZM161.913 24.725C161.493 25.265 161.033 25.645 160.533 25.865C160.033 26.075 159.453 26.18 158.793 26.18C158.243 26.18 157.748 26.085 157.308 25.895C156.868 25.695 156.493 25.43 156.183 25.1C155.883 24.77 155.648 24.38 155.478 23.93C155.318 23.48 155.238 23 155.238 22.49C155.238 21.95 155.328 21.455 155.508 21.005C155.688 20.545 155.938 20.155 156.258 19.835C156.578 19.505 156.958 19.25 157.398 19.07C157.838 18.89 158.318 18.8 158.838 18.8C159.328 18.8 159.778 18.885 160.188 19.055C160.598 19.215 160.948 19.455 161.238 19.775C161.538 20.085 161.768 20.47 161.928 20.93C162.088 21.38 162.168 21.895 162.168 22.475V22.85H156.498C156.518 23.15 156.588 23.44 156.708 23.72C156.838 23.99 157.003 24.23 157.203 24.44C157.403 24.64 157.638 24.8 157.908 24.92C158.178 25.04 158.473 25.1 158.793 25.1C159.303 25.1 159.733 25.01 160.083 24.83C160.433 24.65 160.748 24.385 161.028 24.035L161.913 24.725ZM160.908 21.86C160.888 21.26 160.693 20.78 160.323 20.42C159.953 20.06 159.443 19.88 158.793 19.88C158.143 19.88 157.618 20.06 157.218 20.42C156.818 20.78 156.578 21.26 156.498 21.86H160.908ZM163.978 20.645C163.978 20.325 163.968 20.025 163.948 19.745C163.928 19.465 163.918 19.21 163.918 18.98H165.028C165.028 19.17 165.033 19.36 165.043 19.55C165.053 19.74 165.058 19.935 165.058 20.135H165.088C165.168 19.965 165.278 19.8 165.418 19.64C165.568 19.48 165.743 19.34 165.943 19.22C166.143 19.09 166.368 18.99 166.618 18.92C166.868 18.84 167.138 18.8 167.428 18.8C167.888 18.8 168.283 18.87 168.613 19.01C168.953 19.15 169.233 19.345 169.453 19.595C169.673 19.845 169.833 20.15 169.933 20.51C170.043 20.86 170.098 21.245 170.098 21.665V26H168.928V21.785C168.928 21.195 168.798 20.73 168.538 20.39C168.278 20.05 167.873 19.88 167.323 19.88C166.943 19.88 166.613 19.945 166.333 20.075C166.063 20.205 165.838 20.39 165.658 20.63C165.488 20.87 165.358 21.155 165.268 21.485C165.188 21.815 165.148 22.18 165.148 22.58V26H163.978V20.645ZM177.308 20.735C177.058 20.435 176.788 20.22 176.498 20.09C176.208 19.95 175.888 19.88 175.538 19.88C175.148 19.88 174.803 19.95 174.503 20.09C174.203 20.22 173.953 20.405 173.753 20.645C173.563 20.885 173.418 21.165 173.318 21.485C173.218 21.795 173.168 22.13 173.168 22.49C173.168 22.85 173.223 23.19 173.333 23.51C173.453 23.82 173.613 24.095 173.813 24.335C174.023 24.575 174.273 24.765 174.563 24.905C174.853 25.035 175.178 25.1 175.538 25.1C176.308 25.1 176.903 24.81 177.323 24.23L178.193 25.055C177.853 25.445 177.453 25.73 176.993 25.91C176.533 26.09 176.048 26.18 175.538 26.18C174.998 26.18 174.503 26.09 174.053 25.91C173.603 25.73 173.218 25.475 172.898 25.145C172.588 24.815 172.343 24.425 172.163 23.975C171.993 23.525 171.908 23.03 171.908 22.49C171.908 21.96 171.993 21.47 172.163 21.02C172.343 20.57 172.593 20.18 172.913 19.85C173.233 19.52 173.613 19.265 174.053 19.085C174.503 18.895 174.998 18.8 175.538 18.8C176.058 18.8 176.548 18.89 177.008 19.07C177.478 19.25 177.888 19.53 178.238 19.91L177.308 20.735ZM185.819 24.725C185.399 25.265 184.939 25.645 184.439 25.865C183.939 26.075 183.359 26.18 182.699 26.18C182.149 26.18 181.654 26.085 181.214 25.895C180.774 25.695 180.399 25.43 180.089 25.1C179.789 24.77 179.554 24.38 179.384 23.93C179.224 23.48 179.144 23 179.144 22.49C179.144 21.95 179.234 21.455 179.414 21.005C179.594 20.545 179.844 20.155 180.164 19.835C180.484 19.505 180.864 19.25 181.304 19.07C181.744 18.89 182.224 18.8 182.744 18.8C183.234 18.8 183.684 18.885 184.094 19.055C184.504 19.215 184.854 19.455 185.144 19.775C185.444 20.085 185.674 20.47 185.834 20.93C185.994 21.38 186.074 21.895 186.074 22.475V22.85H180.404C180.424 23.15 180.494 23.44 180.614 23.72C180.744 23.99 180.909 24.23 181.109 24.44C181.309 24.64 181.544 24.8 181.814 24.92C182.084 25.04 182.379 25.1 182.699 25.1C183.209 25.1 183.639 25.01 183.989 24.83C184.339 24.65 184.654 24.385 184.934 24.035L185.819 24.725ZM184.814 21.86C184.794 21.26 184.599 20.78 184.229 20.42C183.859 20.06 183.349 19.88 182.699 19.88C182.049 19.88 181.524 20.06 181.124 20.42C180.724 20.78 180.484 21.26 180.404 21.86H184.814ZM192.269 15.38H198.854V16.55H193.529V20.06H198.479V21.23H193.529V26H192.269V15.38ZM199.989 22.49C199.989 21.94 200.084 21.44 200.274 20.99C200.464 20.54 200.724 20.155 201.054 19.835C201.384 19.505 201.779 19.25 202.239 19.07C202.699 18.89 203.199 18.8 203.739 18.8C204.279 18.8 204.779 18.89 205.239 19.07C205.699 19.25 206.094 19.505 206.424 19.835C206.754 20.155 207.014 20.54 207.204 20.99C207.394 21.44 207.489 21.94 207.489 22.49C207.489 23.04 207.394 23.54 207.204 23.99C207.014 24.44 206.754 24.83 206.424 25.16C206.094 25.48 205.699 25.73 205.239 25.91C204.779 26.09 204.279 26.18 203.739 26.18C203.199 26.18 202.699 26.09 202.239 25.91C201.779 25.73 201.384 25.48 201.054 25.16C200.724 24.83 200.464 24.44 200.274 23.99C200.084 23.54 199.989 23.04 199.989 22.49ZM201.249 22.49C201.249 22.86 201.304 23.205 201.414 23.525C201.534 23.835 201.704 24.11 201.924 24.35C202.144 24.58 202.404 24.765 202.704 24.905C203.014 25.035 203.359 25.1 203.739 25.1C204.119 25.1 204.459 25.035 204.759 24.905C205.069 24.765 205.334 24.58 205.554 24.35C205.774 24.11 205.939 23.835 206.049 23.525C206.169 23.205 206.229 22.86 206.229 22.49C206.229 22.12 206.169 21.78 206.049 21.47C205.939 21.15 205.774 20.875 205.554 20.645C205.334 20.405 205.069 20.22 204.759 20.09C204.459 19.95 204.119 19.88 203.739 19.88C203.359 19.88 203.014 19.95 202.704 20.09C202.404 20.22 202.144 20.405 201.924 20.645C201.704 20.875 201.534 21.15 201.414 21.47C201.304 21.78 201.249 22.12 201.249 22.49ZM209.3 20.645C209.3 20.325 209.29 20.025 209.27 19.745C209.25 19.465 209.24 19.21 209.24 18.98H210.35C210.35 19.17 210.355 19.36 210.365 19.55C210.375 19.74 210.38 19.935 210.38 20.135H210.41C210.49 19.965 210.6 19.8 210.74 19.64C210.89 19.48 211.065 19.34 211.265 19.22C211.465 19.09 211.69 18.99 211.94 18.92C212.19 18.84 212.46 18.8 212.75 18.8C212.83 18.8 212.91 18.805 212.99 18.815C213.07 18.825 213.15 18.845 213.23 18.875L213.155 20.06C212.955 20 212.745 19.97 212.525 19.97C211.805 19.97 211.28 20.205 210.95 20.675C210.63 21.135 210.47 21.77 210.47 22.58V26H209.3V20.645ZM220.58 24.725C220.16 25.265 219.7 25.645 219.2 25.865C218.7 26.075 218.12 26.18 217.46 26.18C216.91 26.18 216.415 26.085 215.975 25.895C215.535 25.695 215.16 25.43 214.85 25.1C214.55 24.77 214.315 24.38 214.145 23.93C213.985 23.48 213.905 23 213.905 22.49C213.905 21.95 213.995 21.455 214.175 21.005C214.355 20.545 214.605 20.155 214.925 19.835C215.245 19.505 215.625 19.25 216.065 19.07C216.505 18.89 216.985 18.8 217.505 18.8C217.995 18.8 218.445 18.885 218.855 19.055C219.265 19.215 219.615 19.455 219.905 19.775C220.205 20.085 220.435 20.47 220.595 20.93C220.755 21.38 220.835 21.895 220.835 22.475V22.85H215.165C215.185 23.15 215.255 23.44 215.375 23.72C215.505 23.99 215.67 24.23 215.87 24.44C216.07 24.64 216.305 24.8 216.575 24.92C216.845 25.04 217.14 25.1 217.46 25.1C217.97 25.1 218.4 25.01 218.75 24.83C219.1 24.65 219.415 24.385 219.695 24.035L220.58 24.725ZM219.575 21.86C219.555 21.26 219.36 20.78 218.99 20.42C218.62 20.06 218.11 19.88 217.46 19.88C216.81 19.88 216.285 20.06 215.885 20.42C215.485 20.78 215.245 21.26 215.165 21.86H219.575ZM222.795 24.155C223.025 24.445 223.275 24.675 223.545 24.845C223.825 25.015 224.175 25.1 224.595 25.1C224.775 25.1 224.955 25.08 225.135 25.04C225.325 25 225.495 24.935 225.645 24.845C225.795 24.755 225.915 24.645 226.005 24.515C226.095 24.375 226.14 24.21 226.14 24.02C226.14 23.83 226.095 23.675 226.005 23.555C225.925 23.435 225.815 23.335 225.675 23.255C225.535 23.165 225.375 23.095 225.195 23.045C225.015 22.995 224.83 22.95 224.64 22.91C224.31 22.84 223.995 22.76 223.695 22.67C223.395 22.58 223.13 22.465 222.9 22.325C222.68 22.175 222.5 21.985 222.36 21.755C222.23 21.525 222.165 21.23 222.165 20.87C222.165 20.53 222.24 20.23 222.39 19.97C222.54 19.71 222.74 19.495 222.99 19.325C223.24 19.155 223.52 19.025 223.83 18.935C224.14 18.845 224.46 18.8 224.79 18.8C225.29 18.8 225.75 18.9 226.17 19.1C226.6 19.3 226.935 19.625 227.175 20.075L226.2 20.72C226.05 20.47 225.85 20.27 225.6 20.12C225.36 19.96 225.065 19.88 224.715 19.88C224.555 19.88 224.39 19.9 224.22 19.94C224.06 19.98 223.915 20.04 223.785 20.12C223.655 20.2 223.545 20.305 223.455 20.435C223.375 20.555 223.335 20.695 223.335 20.855C223.335 21.005 223.38 21.135 223.47 21.245C223.57 21.345 223.7 21.435 223.86 21.515C224.03 21.595 224.22 21.665 224.43 21.725C224.65 21.785 224.875 21.835 225.105 21.875C225.415 21.935 225.71 22.015 225.99 22.115C226.27 22.205 226.515 22.33 226.725 22.49C226.935 22.65 227.1 22.85 227.22 23.09C227.34 23.33 227.4 23.625 227.4 23.975C227.4 24.375 227.32 24.715 227.16 24.995C227 25.275 226.785 25.505 226.515 25.685C226.255 25.855 225.955 25.98 225.615 26.06C225.285 26.14 224.945 26.18 224.595 26.18C223.995 26.18 223.475 26.09 223.035 25.91C222.605 25.72 222.215 25.375 221.865 24.875L222.795 24.155ZM232.872 19.97H230.802V23.48C230.802 23.71 230.807 23.925 230.817 24.125C230.827 24.315 230.867 24.485 230.937 24.635C231.007 24.775 231.112 24.89 231.252 24.98C231.392 25.06 231.592 25.1 231.852 25.1C232.022 25.1 232.197 25.08 232.377 25.04C232.557 25 232.727 24.94 232.887 24.86L232.932 25.925C232.732 26.015 232.507 26.08 232.257 26.12C232.017 26.16 231.787 26.18 231.567 26.18C231.147 26.18 230.812 26.125 230.562 26.015C230.312 25.905 230.117 25.75 229.977 25.55C229.837 25.35 229.742 25.105 229.692 24.815C229.652 24.515 229.632 24.185 229.632 23.825V19.97H228.102V18.98H229.632V16.985H230.802V18.98H232.872V19.97ZM234.425 18.98H235.595V26H234.425V18.98ZM234.155 16.235C234.155 16.005 234.235 15.805 234.395 15.635C234.565 15.465 234.77 15.38 235.01 15.38C235.25 15.38 235.45 15.465 235.61 15.635C235.78 15.805 235.865 16.005 235.865 16.235C235.865 16.485 235.785 16.69 235.625 16.85C235.465 17.01 235.26 17.09 235.01 17.09C234.76 17.09 234.555 17.01 234.395 16.85C234.235 16.69 234.155 16.485 234.155 16.235Z" fill="black"/>
<rect x="0.5" y="0.5" width="257" height="42" stroke="black"/>
</svg>
