<svg width="135" height="46" viewBox="0 0 135 46" fill="none" xmlns="http://www.w3.org/2000/svg">
<rect x="1" y="1" width="44" height="44" fill="white"/>
<path d="M31.23 33.4783C30.9397 34.0009 30.4012 34.2966 29.8442 34.2966C29.5855 34.2966 29.3216 34.2332 29.0787 34.0986C24.8051 31.7335 20.4286 31.3058 14.888 32.7128C14.0406 32.9292 13.1775 32.4171 12.9637 31.5672C12.7472 30.7198 13.2593 29.8567 14.1093 29.6429C20.4022 28.0432 25.6472 28.5791 30.6124 31.327C31.3779 31.7493 31.655 32.7154 31.23 33.4809V33.4783Z" fill="black"/>
<path d="M35.1148 27.3225C34.7663 27.9534 34.1117 28.3097 33.4386 28.3097C33.1245 28.3097 32.8077 28.2332 32.5147 28.0695C26.6996 24.8492 20.7498 24.2684 13.2242 26.1822C12.2 26.4435 11.1573 25.8232 10.8986 24.799C10.6373 23.7748 11.2576 22.7322 12.2818 22.4735C20.7076 20.3301 27.7264 21.0454 34.3678 24.7225C35.2916 25.2346 35.6269 26.3986 35.1148 27.3225Z" fill="black"/>
<path d="M36.9524 22.0512C36.6171 22.0512 36.2766 21.9693 35.9625 21.7951C28.5477 17.6878 20.9667 16.9434 11.3847 19.3798C10.2893 19.657 9.17533 18.9971 8.89817 17.9016C8.62101 16.8062 9.28092 15.6922 10.3764 15.4151C20.9007 12.7385 29.6617 13.628 37.9449 18.2158C38.9321 18.7622 39.2911 20.0081 38.7447 20.9953C38.3725 21.6711 37.673 22.0512 36.9524 22.0512Z" fill="black"/>
<rect x="0.5" y="0.5" width="45" height="45" stroke="black"/>
<rect x="45" y="1" width="44" height="44" fill="white"/>
<path d="M63.4848 23.461L73.2727 19.9624V25.7792C72.691 25.4465 71.9995 25.2535 71.2576 25.2535C69.1907 25.2535 67.5152 26.7508 67.5152 28.5978C67.5152 30.4447 69.1907 31.942 71.2576 31.942C73.3245 31.942 75 30.4447 75 28.5978C75 28.5977 75 28.5978 75 28.5978L75 18.767C75 17.591 75 16.6048 74.9074 15.819C74.8943 15.7079 74.8788 15.5975 74.8618 15.4945C74.7726 14.9576 74.6149 14.4568 74.3107 14.0386C74.1585 13.8295 73.9698 13.6411 73.7346 13.4791C73.6904 13.4487 73.6447 13.4193 73.5973 13.3908L73.5878 13.3851C72.7734 12.9008 71.8579 12.9354 70.9148 13.1502C70.0027 13.3579 68.8719 13.7809 67.4853 14.2995L65.0739 15.2014C64.4239 15.4445 63.8733 15.6504 63.4411 15.8637C62.9812 16.0907 62.5851 16.3583 62.288 16.7572C61.991 17.1561 61.8676 17.5859 61.8108 18.0526C61.7575 18.4913 61.7576 19.0247 61.7576 19.6543V27.8372C61.1759 27.5044 60.4844 27.3115 59.7424 27.3115C57.6755 27.3115 56 28.8088 56 30.6558C56 32.5027 57.6755 34 59.7424 34C61.8093 34 63.4848 32.5027 63.4848 30.6558C63.4848 30.6557 63.4848 30.6558 63.4848 30.6558L63.4848 23.461Z" fill="black"/>
<rect x="44.5" y="0.5" width="45" height="45" stroke="black"/>
<rect x="90" y="1" width="44" height="44" fill="white"/>
<path d="M105.341 24.6353C105.307 24.4959 105.312 21.2365 105.344 21.1323H111.321C111.351 21.2315 111.353 24.5097 111.323 24.6353H105.342H105.341Z" fill="black"/>
<path d="M105.341 19.7324C105.307 19.5931 105.312 16.3337 105.344 16.2295H111.321C111.351 16.3287 111.353 19.6069 111.323 19.7324H105.342H105.341Z" fill="black"/>
<path d="M105.341 14.8785C105.307 14.7392 105.312 11.4798 105.344 11.3756H111.321C111.351 11.4748 111.353 14.753 111.323 14.8785H105.342H105.341Z" fill="black"/>
<path d="M112.635 19.7112V16.2271H118.641C118.665 16.3162 118.669 19.5756 118.645 19.7199C118.531 19.7513 112.734 19.7438 112.635 19.7112Z" fill="black"/>
<path d="M98.0166 21.1373H104.002C104.029 21.2265 104.039 24.4306 104.011 24.6327C103.959 24.6352 103.905 24.6403 103.851 24.6403C102.087 24.6403 100.322 24.639 98.5577 24.6378C98.4108 24.6378 98.2639 24.639 98.117 24.6378C98.0304 24.6365 98.0229 24.6265 98.0179 24.5398C98.0166 24.5135 98.0179 24.4883 98.0179 24.462C98.0179 23.4111 98.0179 22.3615 98.0179 21.3106C98.0179 21.2591 98.0179 21.2076 98.0179 21.1386L98.0166 21.1373Z" fill="black"/>
<path d="M112.639 24.6404V21.1337H118.639C118.666 21.2404 118.67 24.5048 118.641 24.6404H112.639Z" fill="black"/>
<path d="M119.955 21.1261C120.011 21.1261 120.058 21.1261 120.104 21.1261C121.578 21.1274 123.053 21.1286 124.527 21.1324C124.955 21.1324 125.384 21.1412 125.812 21.1474C125.952 21.1487 125.956 21.1537 125.956 21.2956C125.956 22.3628 125.956 23.4313 125.956 24.4985C125.956 24.6341 125.954 24.6366 125.818 24.6366C123.902 24.6403 121.986 24.6441 120.071 24.6466C120.038 24.6466 120.002 24.6441 119.973 24.6416C119.966 24.6341 119.962 24.6315 119.96 24.629C119.957 24.6265 119.952 24.6228 119.952 24.619C119.948 24.5976 119.943 24.5763 119.943 24.555C119.943 23.44 119.943 22.3239 119.943 21.209C119.943 21.1876 119.948 21.1663 119.955 21.1261Z" fill="black"/>
<path d="M119.955 16.2195C120.011 16.2195 120.058 16.2195 120.104 16.2195C121.578 16.2207 123.053 16.222 124.527 16.2258C124.955 16.2258 125.384 16.2345 125.812 16.2408C125.952 16.2421 125.956 16.2471 125.956 16.389C125.956 17.4562 125.956 18.5246 125.956 19.5918C125.956 19.7274 125.954 19.73 125.818 19.73C123.902 19.7337 121.986 19.7375 120.071 19.74C120.038 19.74 120.002 19.7375 119.973 19.735C119.966 19.7274 119.962 19.7249 119.96 19.7224C119.957 19.7199 119.952 19.7161 119.952 19.7124C119.948 19.691 119.943 19.6697 119.943 19.6483C119.943 18.5334 119.943 17.4173 119.943 16.3023C119.943 16.281 119.948 16.2597 119.955 16.2195Z" fill="black"/>
<path d="M103.028 33.5948H101.804V32.9595C101.775 32.9859 101.761 32.9934 101.752 33.0047C101.537 33.2847 101.251 33.4492 100.912 33.5283C100.405 33.6476 99.8989 33.6363 99.4055 33.4642C98.8493 33.2709 98.445 32.8993 98.2253 32.3531C97.9227 31.6023 97.9214 30.8389 98.2428 30.0944C98.5454 29.3938 99.1004 28.9971 99.8512 28.8765C100.213 28.8188 100.574 28.8276 100.93 28.9305C101.237 29.0197 101.496 29.1841 101.688 29.444C101.701 29.4604 101.714 29.4754 101.75 29.5181C101.752 29.0059 101.75 28.525 101.751 28.0441C101.751 27.5607 101.751 27.0761 101.751 26.5952C101.851 26.5638 102.736 26.5538 103.01 26.5777C103.013 26.5802 103.016 26.5827 103.019 26.5864C103.021 26.5902 103.025 26.5927 103.026 26.5965C103.03 26.6128 103.034 26.6304 103.034 26.6467C103.034 28.9431 103.034 31.2382 103.034 33.5346C103.034 33.5509 103.029 33.5685 103.025 33.5936L103.028 33.5948ZM99.31 31.242C99.31 31.3072 99.3075 31.3713 99.31 31.4366C99.3138 31.488 99.3238 31.5395 99.3339 31.5897C99.4594 32.2175 99.9227 32.5552 100.416 32.6004C100.96 32.6507 101.453 32.3732 101.67 31.871C101.796 31.581 101.822 31.2796 101.775 30.9695C101.667 30.2827 101.131 29.8094 100.454 29.8609C100.117 29.886 99.8374 30.0203 99.6214 30.279C99.3891 30.5564 99.3025 30.8866 99.31 31.2432V31.242Z" fill="black"/>
<path d="M112.568 31.4729H109.373C109.378 31.8081 109.489 32.0818 109.733 32.2965C109.941 32.4798 110.19 32.5752 110.465 32.5878C110.614 32.5941 110.768 32.5878 110.916 32.5639C111.252 32.5074 111.486 32.3103 111.624 32.0002C111.654 31.9336 111.678 31.8646 111.708 31.7855C112.066 31.9274 112.421 32.068 112.784 32.2124C112.775 32.2463 112.771 32.2751 112.761 32.3015C112.52 32.913 112.091 33.3235 111.456 33.4955C110.764 33.6826 110.077 33.6613 109.415 33.3687C108.697 33.0511 108.278 32.4886 108.135 31.7215C108.027 31.1452 108.078 30.5827 108.349 30.0554C108.696 29.3811 109.261 28.9969 110.003 28.8789C110.506 28.7986 111.004 28.8337 111.478 29.0334C112.122 29.302 112.488 29.793 112.599 30.4772C112.646 30.761 112.64 31.046 112.597 31.3297C112.591 31.3724 112.579 31.4139 112.567 31.4729H112.568ZM111.373 30.6003C111.382 30.5777 111.387 30.5701 111.388 30.5613C111.389 30.5488 111.39 30.535 111.389 30.5224C111.37 30.1985 111.198 29.9863 110.906 29.862C110.731 29.7879 110.547 29.7754 110.36 29.7817C109.921 29.7967 109.543 30.0767 109.403 30.4948C109.393 30.5262 109.388 30.5588 109.379 30.6003H111.374H111.373Z" fill="black"/>
<path d="M106.991 31.7855C107.352 31.9299 107.708 32.0705 108.072 32.2162C108.054 32.2664 108.043 32.3066 108.026 32.3455C107.778 32.9369 107.351 33.3336 106.728 33.4981C106.013 33.6877 105.304 33.6613 104.629 33.3386C103.943 33.0122 103.548 32.4535 103.414 31.7127C103.318 31.1917 103.352 30.6756 103.571 30.1872C103.905 29.4364 104.492 29.007 105.298 28.879C105.77 28.8036 106.239 28.8363 106.689 29.0058C107.362 29.2594 107.754 29.7478 107.878 30.4534C107.932 30.7635 107.923 31.0736 107.872 31.3825C107.868 31.4076 107.857 31.4315 107.847 31.4666H104.654C104.659 31.5407 104.657 31.6035 104.668 31.665C104.755 32.1321 105.077 32.4623 105.545 32.5614C105.763 32.6079 105.982 32.6104 106.202 32.5665C106.542 32.4987 106.776 32.3003 106.913 31.9852C106.94 31.9224 106.962 31.8583 106.991 31.7855ZM106.672 30.6016C106.672 30.5538 106.675 30.52 106.672 30.4861C106.635 30.1835 106.468 29.9801 106.191 29.8646C106.016 29.7917 105.832 29.7779 105.645 29.7842C105.195 29.7993 104.812 30.088 104.678 30.5174C104.669 30.5438 104.668 30.5727 104.663 30.6028H106.672V30.6016Z" fill="black"/>
<path d="M121.686 31.4704H118.5C118.482 31.5797 118.507 31.6751 118.532 31.7692C118.652 32.2037 118.951 32.4522 119.377 32.5577C119.597 32.6117 119.822 32.6104 120.046 32.5652C120.375 32.4987 120.606 32.3091 120.745 32.0053C120.775 31.9387 120.799 31.8697 120.832 31.7843C121.192 31.9274 121.55 32.0693 121.914 32.2137C121.897 32.2627 121.885 32.3041 121.869 32.343C121.622 32.9356 121.194 33.3286 120.572 33.4969C119.925 33.6726 119.278 33.6601 118.651 33.4152C117.846 33.1014 117.383 32.5 117.247 31.65C117.17 31.1628 117.201 30.6819 117.397 30.2249C117.726 29.454 118.316 29.0108 119.137 28.879C119.64 28.7986 120.139 28.8363 120.612 29.0372C121.296 29.3272 121.653 29.8621 121.741 30.5903C121.772 30.854 121.761 31.1164 121.713 31.3775C121.708 31.4064 121.698 31.434 121.687 31.4704H121.686ZM120.514 30.5991C120.512 30.5438 120.513 30.4974 120.506 30.4522C120.464 30.1885 120.317 30.0027 120.08 29.8872C119.888 29.7943 119.684 29.7755 119.475 29.783C119.04 29.7993 118.655 30.0868 118.521 30.4986C118.51 30.53 118.507 30.5627 118.5 30.5991H120.514Z" fill="black"/>
<path d="M117.042 28.8513V29.2506C117.042 29.4276 117.037 29.6059 117.045 29.7817C117.048 29.8721 117.016 29.9336 116.953 29.9951C116.167 30.7622 115.384 31.5319 114.599 32.3003C114.562 32.3367 114.521 32.3693 114.477 32.4082C114.526 32.456 114.575 32.4409 114.618 32.4409C115.396 32.4409 116.175 32.4409 116.953 32.4409C117.003 32.4409 117.053 32.4409 117.11 32.4409V33.5834C117.021 33.6136 113.075 33.6249 112.849 33.5947C112.846 33.5558 112.842 33.5144 112.842 33.4742C112.842 33.1892 112.845 32.9029 112.84 32.6179C112.839 32.5313 112.869 32.4735 112.928 32.4145C113.718 31.6386 114.506 30.8614 115.294 30.0855C115.328 30.0529 115.369 30.0265 115.412 29.9913C115.353 29.9411 115.304 29.9549 115.261 29.9549C114.539 29.9549 113.817 29.9549 113.094 29.9549H112.932V28.8513H117.04H117.042Z" fill="black"/>
<path d="M125.992 30.6204H124.753C124.753 30.5577 124.753 30.5037 124.753 30.4484C124.752 30.3103 124.709 30.1848 124.635 30.0692C124.512 29.8809 124.338 29.7792 124.112 29.7943C123.869 29.8094 123.685 29.9236 123.583 30.1521C123.523 30.289 123.506 30.4346 123.506 30.5828C123.506 31.5345 123.506 32.4849 123.506 33.4366C123.506 33.4881 123.506 33.5383 123.506 33.5998H122.245C122.217 33.5031 122.203 29.2029 122.231 28.8727C122.32 28.8476 123.327 28.8413 123.501 28.8664V29.513C123.537 29.4704 123.557 29.4528 123.569 29.4302C123.809 29.0372 124.166 28.8589 124.619 28.8514C124.834 28.8476 125.042 28.8778 125.238 28.9656C125.7 29.1728 125.931 29.5495 125.989 30.0366C126.011 30.2237 125.992 30.4158 125.992 30.6204Z" fill="black"/>
<path d="M99.3103 31.2406C99.3027 30.884 99.3881 30.5551 99.6216 30.2764C99.8376 30.0177 100.118 29.8834 100.454 29.8583C101.131 29.808 101.667 30.2801 101.775 30.9669C101.824 31.277 101.796 31.5796 101.671 31.8684C101.453 32.3693 100.961 32.6468 100.416 32.5978C99.9242 32.5526 99.4597 32.2149 99.3341 31.5871C99.3241 31.5369 99.314 31.4854 99.3103 31.434C99.3065 31.3699 99.3103 31.3046 99.3103 31.2394V31.2406Z" fill="white"/>
<path d="M111.372 30.6003H109.377C109.386 30.5589 109.391 30.5262 109.401 30.4948C109.541 30.0767 109.918 29.798 110.358 29.7817C110.545 29.7754 110.729 29.788 110.904 29.862C111.196 29.9851 111.368 30.1973 111.387 30.5224C111.387 30.535 111.387 30.5488 111.386 30.5614C111.386 30.5702 111.38 30.5777 111.371 30.6003H111.372Z" fill="white"/>
<path d="M106.67 30.6016H104.661C104.666 30.5702 104.667 30.5426 104.676 30.5162C104.809 30.0881 105.193 29.798 105.643 29.783C105.83 29.7767 106.015 29.7905 106.189 29.8633C106.467 29.9801 106.634 30.1822 106.67 30.4848C106.674 30.5187 106.67 30.5526 106.67 30.6003V30.6016Z" fill="white"/>
<path d="M120.515 30.5991H118.501C118.509 30.5627 118.511 30.5301 118.521 30.4987C118.655 30.0869 119.041 29.7994 119.475 29.783C119.685 29.7755 119.89 29.7931 120.08 29.8873C120.318 30.0028 120.465 30.1886 120.506 30.4522C120.514 30.4974 120.511 30.5439 120.515 30.5991Z" fill="white"/>
<rect x="89.5" y="0.5" width="45" height="45" stroke="black"/>
</svg>
